<svg xmlns="http://www.w3.org/2000/svg" id="svgid19" width="512" height="512" x="0" y="0" xmlns:xlink="http://www.w3.org/1999/xlink" version="1.1" viewBox="0 0 64 64" xml:space="preserve" repair="1"><g><path d="M18 5C10.832 5 5 10.832 5 18s5.832 13 13 13v-2c-2.673 0-5.125-.96-7.034-2.552l4.28-4.28C16.04 22.69 16.984 23 18 23v-2c-1.654 0-3-1.346-3-3s1.346-3 3-3c1.108 0 2.123.607 2.646 1.586l1.764-.945C21.537 14.013 19.848 13 18 13c-1.017 0-1.962.31-2.753.833l-4.28-4.28C12.874 7.96 15.326 7 18 7c4.02 0 7.72 2.192 9.653 5.72l1.754-.96C27.12 7.59 22.75 5 18 5zm-8.448 5.966l4.28 4.28C13.31 16.04 13 16.984 13 18s.31 1.962.833 2.753l-4.28 4.28C7.96 23.126 7 20.674 7 18s.96-5.125 2.552-7.034z"></path><g><path fill="rgb(224, 81, 19)" d="M49 30h10V5H39v5h6v4h4z" coriginal="rgb(240, 188, 94, 1)" colortype="0" awdzp="0" colorover="rgb(240, 188, 94, 1)" style="fill: rgb(224, 81, 19);"></path></g><g><path fill="rgb(224, 81, 19)" d="M42.627 17.14c-2.615-3.848-6.94-6.14-11.6-6.14C23.293 11 17 17.293 17 25.027V34h1c0-2.21 1.79-4 4-4l.097-.02c3.228-.645 6.27-2.005 8.903-3.98.63 1.26.63 2.74 0 4l2.05-.293c3.248-.464 6.326-1.74 8.95-3.707v4c2.21 0 4 1.79 4 4h1V23.123c0-2.753-1.78-5.16-4.373-5.984z" coriginal="rgb(240, 188, 94, 1)" colortype="0" awdzp="0" colorover="rgb(240, 188, 94, 1)" style="fill: rgb(224, 81, 19);"></path></g><g><path d="M57 5h2v2h-2z"></path></g><g><path d="M33 5h22v2H33z"></path></g><g><path d="M39 9h20v2H39z"></path></g><g><path d="M45 13h14v2H45z"></path></g><g><path d="M49 17h10v2H49z"></path></g><g><path d="M49 21h10v2H49z"></path></g><g><path d="M49 25h10v2H49z"></path></g><g><path d="M49 29h10v2H49z"></path></g><g><path d="M42.59 38.94c2.144-.256 3.883-1.852 4.31-3.94H63V1H1v34h16.1c.427 2.09 2.166 3.685 4.31 3.94.725 2.605 2.38 4.822 4.59 6.267v2.072l-10.214 3.404c-2.862.954-4.786 3.623-4.786 6.64V63h42v-5.676c0-3.018-1.924-5.687-4.786-6.64L38 47.28v-2.073c2.21-1.445 3.864-3.662 4.59-6.267zm.368-2.11c.02-.276.042-.55.042-.83v-4.816c1.16.414 2 1.514 2 2.816 0 1.317-.86 2.427-2.042 2.83zM17.1 33H3V3h58v30H46.9c-.4-1.956-1.944-3.5-3.9-3.9V24l-1.6 1.2c-2.483 1.862-5.42 3.078-8.492 3.517l-.495.07c.157-1.094-.016-2.228-.52-3.234l-.535-1.07-.958.717c-2.198 1.647-4.736 2.863-7.4 3.55V26h-2v3.1c-1.956.4-3.5 1.944-3.9 3.9zm1.9 1c0-1.302.84-2.402 2-2.816V36c0 .28.02.554.042.83C19.86 36.426 19 35.316 19 34zm4 2v-5.192c2.64-.616 5.182-1.71 7.448-3.2.074.662-.04 1.34-.343 1.945l-.854 1.707 3.94-.562c2.766-.396 5.432-1.358 7.81-2.812V36c0 4.963-4.037 9-9 9s-9-4.037-9-9zm3.73 13.144L30.586 53l-3.404 3.404-3.833-6.133 3.38-1.126zM13 57.324c0-2.155 1.374-4.062 3.42-4.743l4.977-1.658 5.42 8.674L31 55.414V61H21v-4h-2v4h-6v-3.676zm38 0V61h-6v-4h-2v4H33v-5.586l4.182 4.182 5.42-8.674 4.98 1.66c2.044.68 3.418 2.587 3.418 4.742zM40.65 50.27l-3.832 6.134L33.414 53l3.856-3.856 3.38 1.127zM36 47.587l-4 4-4-4v-1.35c1.242.487 2.588.764 4 .764s2.758-.277 4-.764v1.35z"></path><circle cx="37" cy="33" r="1"></circle><circle cx="27" cy="33" r="1"></circle><path d="M36 38h-2c0 1.103-.897 2-2 2s-2-.897-2-2h-2c0 2.206 1.794 4 4 4s4-1.794 4-4z"></path></g></g></svg>