<svg xmlns="http://www.w3.org/2000/svg" id="svgid1" width="512" height="512" x="0" y="0" xmlns:xlink="http://www.w3.org/1999/xlink" version="1.1" viewBox="0 0 64 64" xml:space="preserve" repair="1"><g><g><path fill="rgb(224, 81, 19)" d="M45 33h14v13H45z" coriginal="rgb(240, 188, 94, 1)" colortype="0" awdzp="0" colorover="rgb(240, 188, 94, 1)" style="fill: rgb(224, 81, 19);"></path></g><g><path fill="rgb(224, 81, 19)" d="M5 33h14v13H5z" coriginal="rgb(240, 188, 94, 1)" colortype="0" awdzp="0" colorover="rgb(240, 188, 94, 1)" style="fill: rgb(224, 81, 19);"></path></g><path d="M58 17h-8.118c-.15-1.34-.455-2.63-.882-3.863V13h-.05C46.47 6.02 39.82 1 32 1c-9.25 0-16.883 7.013-17.882 16H6c-2.757 0-5 2.243-5 5v30c0 2.757 2.243 5 5 5h13v4h-4v2h34v-2h-4v-4h13c2.757 0 5-2.243 5-5V22c0-2.757-2.243-5-5-5zM32 3c4.2 0 8.014 1.64 10.87 4.294l-3.642.52c-1.183.17-2.208.908-2.74 1.976l-.652 1.303c-.28.56-.842.907-1.468.907H33.06c-.753 0-1.407-.51-1.59-1.243C31.064 9.134 29.612 8 27.938 8H26.32c-.514 0-1.004-.245-1.312-.656L23.57 5.427C26.02 3.897 28.905 3 32 3zM6 19h8c0 6.37 3.277 12.14 8.766 15.43l1.028-1.714C18.914 29.79 16 24.662 16 19c0-1.694.27-3.326.76-4.86l2.777.463c.968.162 1.748.917 1.94 1.88C21.885 18.52 23.69 20 25.77 20h.683c1.056 0 1.996.71 2.286 1.724l1.3 4.55 1.922-.55-1.3-4.55C30.127 19.307 28.397 18 26.452 18h-.683c-1.13 0-2.11-.804-2.332-1.91-.354-1.772-1.79-3.162-3.572-3.46l-2.346-.39c1.034-2.205 2.544-4.14 4.415-5.66l1.473 1.964C24.09 9.456 25.18 10 26.32 10h1.618c.754 0 1.408.51 1.59 1.243.408 1.623 1.86 2.757 3.534 2.757h1.307c1.387 0 2.635-.77 3.255-2.012l.65-1.304c.242-.48.703-.814 1.236-.89l5.018-.717c.94 1.184 1.717 2.5 2.294 3.923h-3.455c-1.19 0-2.296.592-2.957 1.583l-.483.725c-.29.433-.773.692-1.294.692h-2.08C34.594 16 33 17.594 33 19.554c0 1.24.66 2.408 1.726 3.047l2.52 1.513c.465.28.754.79.754 1.333V29h2v-3.554c0-1.24-.66-2.408-1.726-3.047l-2.52-1.513c-.465-.28-.754-.79-.754-1.333 0-.857.697-1.554 1.554-1.554h2.08c1.19 0 2.295-.592 2.956-1.583l.483-.725c.29-.433.773-.692 1.294-.692h4.107c.33 1.28.526 2.617.526 4 0 5.662-2.914 10.79-7.794 13.716l1.028 1.715C46.724 31.14 50 25.37 50 19h8c1.654 0 3 1.346 3 3v27H3V22c0-1.654 1.346-3 3-3zm37 42H21v-4h22v4zm15-6H6c-1.654 0-3-1.346-3-3v-1h58v1c0 1.654-1.346 3-3 3z"></path><g><path d="M5 45h14v2H5z"></path></g><g><path d="M5 41h14v2H5z"></path></g><g><path d="M5 37h14v2H5z"></path></g><g><path d="M5 33h12v2H5z"></path></g><g><path d="M45 45h14v2H45z"></path></g><g><path d="M45 41h14v2H45z"></path></g><g><path d="M45 37h14v2H45z"></path></g><g><path d="M47 33h12v2H47z"></path></g><g><path fill="rgb(224, 81, 19)" d="M34.72 47h-5.44l-.818-2.456-2.315 1.158-3.848-3.848 1.157-2.315L21 38.72v-5.44l2.456-.818-1.158-2.315 3.848-3.848 2.315 1.157.82-2.457h5.44l.818 2.456 2.315-1.158 3.848 3.848-1.157 2.315 2.457.82v5.44l-2.456.818 1.158 2.315-3.848 3.848-2.315-1.157L34.72 47z" coriginal="rgb(240, 188, 94, 1)" colortype="0" awdzp="0" colorover="rgb(240, 188, 94, 1)" style="fill: rgb(224, 81, 19);"></path></g><g><path d="M32 41c-2.757 0-5-2.243-5-5s2.243-5 5-5 5 2.243 5 5-2.243 5-5 5zm0-8c-1.654 0-3 1.346-3 3s1.346 3 3 3 3-1.346 3-3-1.346-3-3-3z"></path></g></g></svg>