<svg xmlns="http://www.w3.org/2000/svg" id="svgid18" x="0" y="0" version="1.1" xmlns:xlink="http://www.w3.org/1999/xlink" viewBox="0 0 290.626 290.626" xml:space="preserve" repair="1"><g><g><path fill="rgb(224, 81, 19)" d="M154.69 135.938h-1.68C141.85 144.718 127.808 150 112.503 150s-29.348-5.283-40.51-14.063H23.44v75h178.125v-75H154.69z" coriginal="rgb(249, 186, 72, 1)" colortype="0" awdzp="0" colorover="rgb(178, 219, 191)" style="fill: rgb(224, 81, 19);"></path><path fill="rgb(51, 51, 51, 1)" d="M276.565 229.688h-4.688v-51.563h-19.194l-4.688-46.875h-41.742V89.063h-23.677c.103-1.556.24-3.103.24-4.688 0-18.89-7.53-36.033-19.693-48.68l3.286-3.286 8.404 8.404 6.628-6.628-23.437-23.438-6.628 6.628 8.405 8.405-3.595 3.596c-10.86-8.644-24.314-14.1-38.995-15.075V9.376h14.062V0h-37.5v9.375h14.062v4.927c-14.68.975-28.134 6.436-38.995 15.075l-3.594-3.595 8.405-8.405-6.627-6.628-23.44 23.436 6.628 6.628 8.406-8.405 3.286 3.285C49.718 48.342 42.19 65.485 42.19 84.375c0 1.584.136 3.13.24 4.688H18.75v140.625h-4.687c-7.753 0-14.063 6.31-14.063 14.062s6.31 14.063 14.062 14.063H42.19c0 18.09 14.72 32.813 32.812 32.813s32.812-14.723 32.812-32.813h89.062c0 18.09 14.72 32.813 32.812 32.813s32.812-14.723 32.812-32.813H276.56c7.754 0 14.063-6.31 14.063-14.063s-6.305-14.062-14.058-14.062zm-37.055-89.063l3.75 37.5h-37.008v-37.5h33.258zM112.502 23.438c33.6 0 60.937 27.337 60.937 60.938S146.1 145.313 112.5 145.313s-60.937-27.338-60.937-60.938 27.337-60.937 60.937-60.937zm-93.75 225h-4.687c-2.583 0-4.687-2.1-4.687-4.688s2.105-4.688 4.687-4.688h4.687v9.376zm56.25 32.812c-12.923 0-23.437-10.514-23.437-23.438s10.514-23.437 23.437-23.437S98.44 244.89 98.44 257.813 87.925 281.25 75 281.25zm31.43-32.812C102.386 234.9 89.832 225 75.002 225s-27.384 9.9-31.43 23.438H28.127v-150h15.478c6.534 32.053 34.94 56.25 68.897 56.25s62.362-24.197 68.897-56.25h15.477v150.004h-90.445v-.002zM229.69 281.25c-12.924 0-23.438-10.514-23.438-23.438s10.514-23.438 23.437-23.438c12.922 0 23.436 10.514 23.436 23.438s-10.513 23.438-23.437 23.438zm32.813-32.812h-1.383C257.074 234.9 244.52 225 229.69 225c-9.18 0-17.476 3.797-23.438 9.895V187.5H262.5v60.938zm14.062 0h-4.688v-9.375h4.688c2.583 0 4.687 2.1 4.687 4.688s-2.105 4.688-4.687 4.688z" coriginal="rgb(51, 51, 51, 1)" colortype="1" awdzp="1" colorover="rgb(51, 51, 51, 1)" style="fill: rgb(51, 51, 51);" attrfill="block"></path><path fill="rgb(51, 51, 51, 1)" d="M75.002 243.75c-7.753 0-14.062 6.31-14.062 14.063 0 7.753 6.31 14.063 14.062 14.063s14.062-6.31 14.062-14.063c0-7.754-6.31-14.063-14.062-14.063zm0 18.75c-2.583 0-4.687-2.1-4.687-4.688s2.105-4.688 4.687-4.688 4.687 2.1 4.687 4.688c0 2.588-2.105 4.688-4.688 4.688zM229.69 243.75c-7.754 0-14.063 6.31-14.063 14.063 0 7.753 6.31 14.063 14.062 14.063s14.06-6.31 14.06-14.063c.002-7.754-6.308-14.063-14.06-14.063zm0 18.75c-2.584 0-4.69-2.1-4.69-4.688s2.106-4.688 4.69-4.688c2.582 0 4.686 2.1 4.686 4.688 0 2.588-2.104 4.688-4.687 4.688zM98.44 84.375c0 7.753 6.31 14.063 14.062 14.063s14.062-6.31 14.062-14.063-6.31-14.063-14.062-14.063c-.797 0-1.566.108-2.33.234l-26.925-31.41-7.12 6.103L101.87 75.27c-2.11 2.46-3.43 5.616-3.43 9.103zm18.75 0c0 2.583-2.105 4.688-4.687 4.688-2.583 0-4.687-2.105-4.687-4.688s2.105-4.688 4.687-4.688c2.582 0 4.687 2.105 4.687 4.688zM108.227 135.727l.77-9.342c-21.69-1.79-38.682-20.24-38.682-42.01 0-10.302 3.797-20.24 10.692-27.993l-7.003-6.23C65.58 59.622 60.94 71.775 60.94 84.375c0 26.61 20.77 49.167 47.287 51.352z" colortype="1" coriginal="rgb(51, 51, 51, 1)" awdzp="1" colorover="rgb(51, 51, 51, 1)" style="fill: rgb(51, 51, 51);" attrfill="block"></path></g></g></svg>