<svg xmlns="http://www.w3.org/2000/svg" id="svgid15" x="0" y="0" xmlns:xlink="http://www.w3.org/1999/xlink" version="1.1" viewBox="0 0 496 496" xml:space="preserve" repair="1"><g><circle cx="72" cy="408" r="8" fill="rgba(51, 51, 51, 1)" coriginal="rgb(51, 51, 51, 1)" colortype="1" awdzp="1" style="fill: rgb(51, 51, 51);" colorover="rgba(51, 51, 51, 1)" attrfill="block"></circle><path fill="rgba(51, 51, 51, 1)" d="M461.976 122.952l24.456 4.888 3.144-15.688-46.52-9.304-18.48 46.176 14.856 5.936 9.248-23.128C469.176 167.112 480 206.944 480 248c0 127.92-104.08 232-232 232-52.904 0-104.68-18.32-145.8-51.584l-10.064 12.44C136.096 476.416 191.448 496 248 496c136.752 0 248-111.248 248-248 0-44.232-11.776-87.12-34.024-125.048zM393.8 67.584l10.064-12.44C359.904 19.584 304.552 0 248 0 111.248 0 0 111.248 0 248c0 44.232 11.776 87.12 34.024 125.048L9.568 368.16l-3.136 15.68 46.52 9.304 18.48-46.176-14.856-5.936-9.256 23.128C26.824 328.888 16 289.056 16 248 16 120.08 120.08 16 248 16c52.904 0 104.68 18.32 145.8 51.584z" colortype="1" coriginal="rgb(51, 51, 51, 1)" awdzp="1" style="fill: rgb(51, 51, 51);" colorover="rgba(51, 51, 51, 1)" attrfill="block"></path><circle cx="424" cy="88" r="8" fill="rgba(51, 51, 51, 1)" colortype="1" coriginal="rgb(51, 51, 51, 1)" awdzp="1" style="fill: rgb(51, 51, 51);" colorover="rgba(51, 51, 51, 1)" attrfill="block"></circle><path fill="rgba(51, 51, 51, 1)" d="M104 320h8v16H96v48h208v-16h-64v-16h16v-16h-32v-16h16v-16h-24v-16h16v-32h8v-32h16v-16h-8v-16h16v8h16v-8h32v-16h-16v-16h8v-48H96v32h-8v48h16v16h-8v32h-8v48h16v32zm56 32v16h-16v-16h16zm16 0h16v16h-16v-16zm-16-16v-16h16v16h-16zm-8-32v-16h16v16h-16zm16-32v-16h16v16h-16zm8-32v-16h16v16h-16zm8-32v-16h16v16h-16zm0-48v16h-16v-16h16zm32 0v16h-16v-16h16zm16 0h16v16h-16v-16zm8-16v-16h16v16h-16zm-16 0h-16v-16h16v16zm-32 0h-16v-16h16v16zm-32 0h-16v-16h16v16zm-8 16v16h-16v-16h16zm16 32v16h-16v-16h16zm-8 32v16h-16v-16h16zm-8 32v16h-16v-16h16zm-16 32v16h-16v-16h16zm-8 32h16v16h-16v-16zm-16 32h16v16h-16v-16zm112 16h-16v-16h16v16zm-16-32h-16v-16h16v16zm-8-32h-16v-16h16v16zm16-32h-16v-16h16v16zm8-32h-16v-16h16v16zm8-32h-16v-16h16v16zm48-32h-16v-16h16v16zm8-32h-16v-16h16v16zm-176-16h16v16h-16v-16zm-8 32h16v16h-16v-16zm16 32h16v16h-16v-16zm-8 32h16v16h-16v-16zm-8 32h16v16h-16v-16z" colortype="1" coriginal="rgb(51, 51, 51, 1)" awdzp="1" style="fill: rgb(51, 51, 51);" colorover="rgba(51, 51, 51, 1)" attrfill="block"></path></g><path fill="rgb(224, 81, 19)" d="M328 384c-57.344 0-104-46.656-104-104s46.656-104 104-104 104 46.656 104 104-46.656 104-104 104z" coriginal="rgb(249, 186, 72, 1)" colortype="0" awdzp="0" style="fill: rgb(224, 81, 19);" colorover="rgba(249, 186, 72, 1)"></path><path fill="rgba(51, 51, 51, 1)" d="M384 256v-4c0-19.848-16.152-36-36-36h-12v-16h-16v16h-12c-19.848 0-36 16.152-36 36s16.152 36 36 36h40c11.032 0 20 8.968 20 20s-8.968 20-20 20h-40c-11.032 0-20-8.968-20-20v-4h-16v4c0 19.848 16.152 36 36 36h12v16h16v-16h12c19.848 0 36-16.152 36-36s-16.152-36-36-36h-40c-11.032 0-20-8.968-20-20s8.968-20 20-20h40c11.032 0 20 8.968 20 20v4h16z" colortype="1" coriginal="rgb(51, 51, 51, 1)" awdzp="1" style="fill: rgb(51, 51, 51);" colorover="rgba(51, 51, 51, 1)" attrfill="block"></path></svg>