<svg xmlns="http://www.w3.org/2000/svg" id="svgid12" width="512" height="512" x="0" y="0" xmlns:xlink="http://www.w3.org/1999/xlink" version="1.1" viewBox="0 0 64 64" xml:space="preserve" repair="1"><g><g><path fill="rgb(224, 81, 19)" d="M51 15H19v21h10V25h22z" coriginal="rgb(240, 188, 94, 1)" colortype="0" awdzp="0" colorover="rgb(240, 188, 94, 1)" style="fill: rgb(224, 81, 19);"></path></g><g><path fill="rgb(224, 81, 19)" d="M30.237 7.61L26.39 3.763l-2.323 1.162c-1.11-.652-2.29-1.144-3.525-1.466L19.722 1H14.28l-.82 2.46c-1.234.32-2.416.812-3.525 1.465L7.61 3.763 3.763 7.61l1.162 2.323c-.652 1.11-1.144 2.29-1.466 3.525l-2.46.82v5.442l2.46.82c.32 1.234.812 2.416 1.465 3.525L3.763 26.39l3.848 3.848 2.324-1.162c1.166.686 2.412 1.193 3.716 1.515l1.55 2.08L16 31v-9.1c-2.282-.464-4-2.48-4-4.9 0-2.76 2.24-5 5-5 .55 0 1.072.11 1.568.276.446-.172.926-.276 1.432-.276h9l.922-.37c-.24-.58-.524-1.147-.847-1.696l1.162-2.324z" coriginal="rgb(240, 188, 94, 1)" colortype="0" awdzp="0" colorover="rgb(240, 188, 94, 1)" style="fill: rgb(224, 81, 19);"></path></g><g><g><path fill="rgb(224, 81, 19)" d="M63 51H31V27h32v24z" coriginal="rgb(240, 188, 94, 1)" colortype="0" awdzp="0" colorover="rgb(240, 188, 94, 1)" style="fill: rgb(224, 81, 19);"></path></g></g><g><path d="M58 11H24.977C23.09 8.494 20.154 7 17 7 11.486 7 7 11.486 7 17c0 4.802 3.382 8.865 8 9.8V53H3v5c0 2.757 2.243 5 5 5h42c2.757 0 5-2.243 5-5v-7h-2v7c0 1.654-1.346 3-3 3s-3-1.346-3-3v-5H17V16c0-1.654 1.346-3 3-3h34.026C53.39 13.838 53 14.87 53 16v11h2v-2h8v-9c0-2.757-2.243-5-5-5zM46.002 61H8c-1.654 0-3-1.346-3-3v-3h40v3c0 1.125.373 2.164 1.002 3zM15 20.457c-1.205-.7-2-2.004-2-3.457 0-1.813 1.22-3.33 2.877-3.82-.552.804-.877 1.774-.877 2.82v4.457zm3.583-9.227C18.068 11.09 17.54 11 17 11c-3.31 0-6 2.69-6 6 0 2.56 1.643 4.805 4 5.642v2.098c-3.487-.893-6-4.04-6-7.74 0-4.41 3.59-8 8-8 1.972 0 3.842.727 5.287 2H20c-.496 0-.965.095-1.417.23zM61 23h-6v-7c0-1.654 1.346-3 3-3s3 1.346 3 3v7z"></path><path d="M31 31h32v2H31zM43.293 36.293L38.586 41l4.707 4.707 1.414-1.414L41.414 41l3.293-3.293zM50.707 45.707L55.414 41l-4.707-4.707-1.414 1.414L52.586 41l-3.293 3.293zM45.014 46.836l2-12 1.973.328-2 12zM19 15h2v2h-2zM23 15h28v2H23zM19 19h32v2H19zM19 23h12v2H19zM33 23h18v2H33zM19 27h10v2H19zM19 31h10v2H19zM19 35h10v2H19z"></path></g></g></svg>