<svg xmlns="http://www.w3.org/2000/svg" id="svgid6" x="0" y="0" version="1.1" xmlns:xlink="http://www.w3.org/1999/xlink" viewBox="0 0 290.626 290.626" xml:space="preserve" repair="1"><g><g><g><circle cx="145.314" cy="145.313" r="79.688" fill="rgb(224, 81, 19)" coriginal="rgb(249, 186, 72, 1)" colortype="0" awdzp="0" colorover="rgb(178, 219, 191)" style="fill: rgb(224, 81, 19);"></circle></g><g><path fill="rgb(51, 51, 51, 1)" d="M79.69 131.25C35.747 131.25 0 166.997 0 210.938s35.748 79.688 79.688 79.688 79.687-35.747 79.687-79.688S123.63 131.25 79.69 131.25zm0 150c-38.77 0-70.313-31.542-70.313-70.313s31.542-70.313 70.312-70.313S150 172.167 150 210.938s-31.54 70.312-70.31 70.312z" coriginal="rgb(51, 51, 51, 1)" colortype="1" awdzp="1" colorover="rgb(51, 51, 51, 1)" style="fill: rgb(51, 51, 51);" attrfill="block"></path><path fill="rgb(51, 51, 51, 1)" d="M86.72 164.063h-2.344V150H75v14.063h-2.343c-14.212 0-25.78 11.57-25.78 25.78s11.568 25.782 25.78 25.782H86.72c9.046 0 16.405 7.36 16.405 16.406s-7.36 16.407-16.406 16.407H72.656c-9.047 0-16.406-7.36-16.406-16.406V225h-9.374v7.03c0 14.214 11.57 25.782 25.78 25.782h2.345v14.063h9.376v-14.063h2.344c14.212 0 25.78-11.57 25.78-25.78s-11.568-25.782-25.78-25.782H72.657c-9.047 0-16.406-7.36-16.406-16.406s7.36-16.406 16.407-16.406H86.72c9.046 0 16.405 7.36 16.405 16.406v7.03h9.375v-7.03c0-14.213-11.568-25.78-25.78-25.78zM290.625 28.125h-26.283c4.575-2.63 7.533-7.495 7.533-13.03C271.875 6.768 265.107 0 256.78 0c-6.44 0-12.763 2.217-17.793 6.244L225 17.434 211.012 6.238C205.98 2.216 199.66 0 193.22 0c-8.326 0-15.095 6.77-15.095 15.094 0 5.54 2.958 10.402 7.533 13.03h-26.283v37.5h14.062v79.69h103.125v-79.69h14.062v-37.5zM229.688 37.5v18.75h-9.375V37.5h4.172l.516.112.517-.112h4.17zm15.16-23.94c3.375-2.7 7.612-4.185 11.934-4.185 3.155 0 5.72 2.564 5.72 5.72 0 2.7-1.843 4.99-4.478 5.577l-30.548 6.787 17.372-13.9zm-51.63-4.185c4.323 0 8.56 1.486 11.935 4.186l17.372 13.9-30.548-6.788c-2.634-.586-4.477-2.883-4.477-5.578 0-3.155 2.564-5.72 5.72-5.72zM168.752 56.25V37.5h42.188v18.75H168.75zm14.063 79.688V65.625h28.125v70.313h-28.125zm37.5 0V65.625h9.375v70.313h-9.375zm46.875 0h-28.125V65.625h28.125v70.313zM281.25 56.25h-42.187V37.5h42.187v18.75zM122.893 44.658l-2.034-9.15c-42.437 9.412-75.938 42.914-85.35 85.35l9.154 2.03c8.625-38.893 39.332-69.6 78.23-78.23zM167.734 245.962l2.034 9.155c42.436-9.417 75.933-42.914 85.35-85.35l-9.155-2.034c-8.625 38.897-39.332 69.604-78.23 78.23z" colortype="1" coriginal="rgb(51, 51, 51, 1)" awdzp="1" colorover="rgb(51, 51, 51, 1)" style="fill: rgb(51, 51, 51);" attrfill="block"></path></g></g></g></svg>