<svg xmlns="http://www.w3.org/2000/svg" id="svgid15" width="512" height="512" x="0" y="0" xmlns:xlink="http://www.w3.org/1999/xlink" version="1.1" viewBox="0 0 64 64" xml:space="preserve" repair="1"><g><g><path d="M18 41c-7.168 0-13-5.832-13-13s5.832-13 13-13c4.615 0 8.924 2.49 11.247 6.5l-1.73 1C25.55 19.11 21.904 17 18 17c-6.065 0-11 4.935-11 11s4.935 11 11 11c3.904 0 7.55-2.108 9.516-5.5l1.73 1C26.924 38.51 22.616 41 18 41z"></path></g><path d="M18 43C9.73 43 3 36.27 3 28s6.73-15 15-15c6.136 0 11.592 3.68 13.9 9.376l1.853-.752C31.138 15.17 24.955 11 18 11 8.626 11 1 18.626 1 28c0 7.634 5.06 14.107 12 16.247V47h-2v2h2v9c0 2.757 2.243 5 5 5s5-2.243 5-5v-9h2v-2h-2v-2.745c4.808-1.47 8.788-5.03 10.753-9.88l-1.854-.75C29.59 39.32 24.135 43 18 43zm3 15c0 1.654-1.346 3-3 3s-3-1.346-3-3v-9h6v9zm0-11h-6v-2.28c.976.173 1.975.28 3 .28 1.02 0 2.02-.1 3-.274V47z"></path><g><path fill="rgb(224, 81, 19)" d="M53.286 21c-.485 0-.942.19-1.316.497C50.072 23.057 47.65 24 45 24s-5.072-.943-6.97-2.503c-.374-.308-.83-.497-1.316-.497H15c-1.105 0-2 .895-2 2v10c0 1.105.895 2 2 2h46c1.105 0 2-.895 2-2V23c0-1.105-.895-2-2-2h-7.714z" coriginal="rgb(240, 188, 94, 1)" colortype="0" awdzp="0" colorover="rgb(240, 188, 94, 1)" style="fill: rgb(224, 81, 19);"></path></g><path d="M51.62 23C54.857 20.85 57 17.172 57 13c0-6.617-5.383-12-12-12S33 6.383 33 13s5.383 12 12 12c.683 0 1.348-.07 2-.18V35h2V24.3c.7-.248 1.367-.556 2-.924V33h10V23h-9.38zm-5.383-.085l.392-1.962c.19-.955.656-1.824 1.345-2.513.928-.93 2.163-1.44 3.477-1.44h2.708c-1.39 3.165-4.37 5.474-7.923 5.915zM54.797 15h-3.346c-1.848 0-3.585.72-4.89 2.026-.97.97-1.623 2.19-1.892 3.534l-.48 2.398c-.717-.058-1.414-.187-2.082-.39l.57-2.848c.256-1.284-.143-2.604-1.07-3.528l-1.048-1.05c-.36-.358-.558-.836-.558-1.346v-.592c0-.51.198-.988.557-1.348l.3-.298C41.593 10.82 42 9.84 42 8.796c0-1.488-.827-2.826-2.16-3.494l-.73-.365c1.14-.835 2.456-1.443 3.89-1.735v2.044c0 1.492 1.01 2.788 2.46 3.15l.595.147c.557.14.945.638.945 1.21C47 11.544 48.456 13 50.246 13H55c0 .685-.07 1.354-.202 2zm0-4h-4.55C49.558 11 49 10.44 49 9.754c0-1.492-1.01-2.788-2.46-3.15l-.595-.147c-.557-.14-.945-.638-.945-1.21V3c4.83 0 8.87 3.44 9.798 8zM35 13c0-2.54.96-4.854 2.525-6.62l1.42.71c.65.326 1.055.98 1.055 1.706 0 .51-.198.988-.557 1.348l-.3.298C38.407 11.18 38 12.16 38 13.204v.592c0 1.044.406 2.025 1.144 2.763l1.05 1.048c.45.45.645 1.095.52 1.722l-.49 2.454c-3.11-1.7-5.224-5-5.224-8.784zm24 18h-6v-6h6v6z"></path></g></svg>