<svg xmlns="http://www.w3.org/2000/svg" id="svgid9" x="0" y="0" xmlns:xlink="http://www.w3.org/1999/xlink" version="1.1" viewBox="0 0 496 496" xml:space="preserve" repair="1"><path fill="rgb(224, 81, 19)" d="M192 264v152h192V264H192zm112 73.768V384h-32v-46.232c-4.88-4.392-8-10.688-8-17.768 0-13.256 10.744-24 24-24s24 10.744 24 24c0 7.08-3.12 13.376-8 17.768z" coriginal="rgb(249, 186, 72, 1)" colortype="0" awdzp="0" style="fill: rgb(224, 81, 19);" colorover="rgba(249, 186, 72, 1)"></path><g><path fill="rgba(51, 51, 51, 1)" d="M352 376h32v16h-32zM192 376h32v16h-32zM200 264h16v-32c0-39.704 32.296-72 72-72s72 32.296 72 72v32h16v-32c0-48.52-39.48-88-88-88s-88 39.48-88 88v32z" coriginal="rgb(51, 51, 51, 1)" colortype="1" awdzp="1" style="fill: rgb(51, 51, 51);" colorover="rgba(51, 51, 51, 1)" attrfill="block"></path><path fill="rgba(51, 51, 51, 1)" d="M288 176c-30.872 0-56 25.128-56 56v32h16v-32c0-22.056 17.944-40 40-40s40 17.944 40 40v32h16v-32c0-30.872-25.128-56-56-56zM288 288c-17.648 0-32 14.352-32 32 0 7.728 2.872 15.208 8 21.04V392h48v-50.96c5.128-5.832 8-13.312 8-21.04 0-17.648-14.352-32-32-32zm10.64 43.832l-2.64 2.384V376h-16v-41.784l-2.64-2.384c-3.456-3.112-5.36-7.32-5.36-11.832 0-8.824 7.176-16 16-16s16 7.176 16 16c0 4.512-1.904 8.72-5.36 11.832zM352 288h32v16h-32zM192 288h32v16h-32z" colortype="1" coriginal="rgb(51, 51, 51, 1)" awdzp="1" style="fill: rgb(51, 51, 51);" colorover="rgba(51, 51, 51, 1)" attrfill="block"></path><path fill="rgba(51, 51, 51, 1)" d="M416 112V40H0v368c0 26.472 21.528 48 48 48h400c26.472 0 48-21.528 48-48V112h-80zM80 408c0 17.648-14.352 32-32 32s-32-14.352-32-32V56h384v56H220.944l-16-32H80v328zm400 0c0 17.648-14.352 32-32 32H83.752C91.36 431.504 96 420.28 96 408V96h99.056l16 32H480v280z" colortype="1" coriginal="rgb(51, 51, 51, 1)" awdzp="1" style="fill: rgb(51, 51, 51);" colorover="rgba(51, 51, 51, 1)" attrfill="block"></path></g></svg>