<svg xmlns="http://www.w3.org/2000/svg" id="svgid5" x="0" y="0" version="1.1" xmlns:xlink="http://www.w3.org/1999/xlink" viewBox="0 0 290.626 290.626" xml:space="preserve" repair="1"><g><g><circle cx="145.314" cy="42.188" r="42.188" fill="rgb(224, 81, 19)" coriginal="rgb(249, 186, 72, 1)" colortype="0" awdzp="0" colorover="rgb(178, 219, 191)" style="fill: rgb(224, 81, 19);"></circle><path fill="rgb(51, 51, 51, 1)" d="M77.382 108.975l-4.327-8.31c-3.005 1.56-5.892 3.412-8.587 5.493l5.742 7.416c2.25-1.75 4.665-3.29 7.172-4.6zM93.667 103.805l-1.37-9.277c-3.383.497-6.693 1.26-9.843 2.245l2.822 8.944c2.677-.844 5.5-1.49 8.39-1.912zM63.925 119.38L57 113.054c-2.235 2.447-4.32 5.138-6.2 7.983l7.822 5.166c1.618-2.443 3.4-4.74 5.303-6.82zM152.635 206.302l-.127 9.375c67.89.92 117.333 14.677 126.99 28.073h-26.373v9.375h26.236c-9.707 12.717-57.055 27.473-129.36 28.092V262.5h-9.375v18.717c-72.305-.62-119.653-15.375-129.36-28.092H37.5v-9.375H11.13c9.655-13.397 59.1-27.155 126.988-28.073l-.127-9.375C69.42 207.23 0 222 0 248.438c0 27.403 74.87 42.188 145.313 42.188s145.312-14.784 145.312-42.188c0-26.438-69.416-41.208-137.99-42.136zM239.823 121.036c-1.88-2.845-3.966-5.536-6.202-7.983l-6.922 6.328c1.903 2.082 3.69 4.384 5.297 6.82l7.828-5.164zM236.232 133.786c.553 1.186 1.012 2.283 1.397 3.262-7.328 2.555-12.63 9.455-12.63 17.64 0 10.34 8.41 18.75 18.75 18.75s18.75-8.41 18.75-18.75c0-9.114-6.538-16.712-15.168-18.39-.572-1.683-1.406-3.9-2.606-6.47l-8.494 3.958zm16.894 20.902c0 5.17-4.205 9.375-9.375 9.375s-9.374-4.205-9.374-9.375 4.205-9.375 9.375-9.375 9.376 4.204 9.376 9.375zM208.173 96.778c-3.15-.99-6.46-1.748-9.844-2.245l-1.37 9.277c2.892.427 5.72 1.073 8.395 1.917l2.818-8.95zM226.154 106.153c-2.69-2.08-5.578-3.933-8.587-5.494l-4.327 8.31c2.508 1.308 4.922 2.85 7.172 4.594l5.742-7.41z" coriginal="rgb(51, 51, 51, 1)" colortype="1" awdzp="1" colorover="rgb(51, 51, 51, 1)" style="fill: rgb(51, 51, 51);" attrfill="block"></path><path fill="rgb(224, 81, 19)" d="M145.314 243.75l-46.875-150h93.748z" coriginal="rgb(249, 186, 72, 1)" colortype="0" awdzp="0" colorover="rgb(178, 219, 191)" style="fill: rgb(224, 81, 19);"></path><path fill="rgb(51, 51, 51, 1)" d="M46.876 173.438c10.34 0 18.75-8.41 18.75-18.75 0-8.184-5.302-15.084-12.628-17.64.384-.98.844-2.076 1.397-3.26l-8.498-3.957c-1.2 2.57-2.034 4.787-2.606 6.47-8.624 1.678-15.163 9.277-15.163 18.39 0 10.338 8.41 18.748 18.75 18.748zm0-28.125c5.17 0 9.375 4.205 9.375 9.375s-4.204 9.375-9.374 9.375-9.375-4.205-9.375-9.375 4.206-9.375 9.376-9.375z" colortype="1" coriginal="rgb(51, 51, 51, 1)" awdzp="1" colorover="rgb(51, 51, 51, 1)" style="fill: rgb(51, 51, 51);" attrfill="block"></path></g></g></svg>