<svg xmlns="http://www.w3.org/2000/svg" id="svgid14" x="0" y="0" xmlns:xlink="http://www.w3.org/1999/xlink" version="1.1" viewBox="0 0 496 496" xml:space="preserve" repair="1"><g><path fill="rgb(51, 51, 51, 1)" d="M424 168H296v16h128c8.824 0 16 7.176 16 16v208c0 8.824-7.176 16-16 16H72c-8.824 0-16-7.176-16-16V200c0-8.824 7.176-16 16-16h128v-16H72c-17.648 0-32 14.352-32 32v208c0 17.648 14.352 32 32 32h104v40h-32v16h208v-16h-32v-40h104c17.648 0 32-14.352 32-32V200c0-17.648-14.352-32-32-32zM304 480H192v-40h112v40z" coriginal="rgb(51, 51, 51, 1)" colortype="1" awdzp="1" colorover="rgb(51, 51, 51, 1)" style="fill: rgb(51, 51, 51);" attrfill="block"></path><path fill="rgb(51, 51, 51, 1)" d="M72 408h352V200H288v16h120v176H88V216h120v-16H72z" colortype="1" coriginal="rgb(51, 51, 51, 1)" awdzp="1" colorover="rgb(51, 51, 51, 1)" style="fill: rgb(51, 51, 51);" attrfill="block"></path></g><path fill="rgb(224, 81, 19)" d="M248 64l-56 72 16 96h80l16-96-56-72zm0 96c-8.84 0-16-7.16-16-16s7.16-16 16-16 16 7.16 16 16-7.16 16-16 16z" coriginal="rgb(249, 186, 72, 1)" colortype="0" awdzp="0" colorover="rgb(249, 186, 72, 1)" style="fill: rgb(224, 81, 19);"></path><g><path fill="rgb(51, 51, 51, 1)" d="M120 48c10.416 0 19.216-6.712 22.528-16h48.08c-28.288 16.976-48.432 46.016-53.328 80H120v48h48v-48h-14.552c7.648-45.328 47.08-80 94.552-80s86.904 34.672 94.552 80H328v48h48v-48h-17.28c-4.896-33.984-25.048-63.024-53.328-80h40.08c3.312 9.288 12.112 16 22.528 16 13.232 0 24-10.768 24-24S381.232 0 368 0c-10.416 0-19.216 6.712-22.528 16H142.528C139.216 6.712 130.416 0 120 0c-13.232 0-24 10.768-24 24s10.768 24 24 24zm32 96h-16v-16h16v16zm208 0h-16v-16h16v16zm8-128c4.416 0 8 3.584 8 8s-3.584 8-8 8-8-3.584-8-8 3.584-8 8-8zm-248 0c4.416 0 8 3.584 8 8s-3.584 8-8 8-8-3.584-8-8 3.584-8 8-8zM312 304h16v16h-16zM344 304h16v16h-16z" colortype="1" coriginal="rgb(51, 51, 51, 1)" awdzp="1" colorover="rgb(51, 51, 51, 1)" style="fill: rgb(51, 51, 51);" attrfill="block"></path><path fill="rgb(51, 51, 51, 1)" d="M240 64v57.472c-9.288 3.312-16 12.112-16 22.528 0 13.232 10.768 24 24 24s24-10.768 24-24c0-10.416-6.712-19.216-16-22.528V64h-16zm8 88c-4.416 0-8-3.584-8-8s3.584-8 8-8 8 3.584 8 8-3.584 8-8 8zM184 248c0 10.416 6.712 19.216 16 22.528V328c0 8.824 7.176 16 16 16h64c8.824 0 16-7.176 16-16v-57.472c9.288-3.312 16-12.112 16-22.528 0-13.232-10.768-24-24-24h-80c-13.232 0-24 10.768-24 24zm32 80v-56h64l.016 56H216zm80-80c0 4.416-3.584 8-8 8h-80c-4.416 0-8-3.584-8-8s3.584-8 8-8h80c4.416 0 8 3.584 8 8zM376 304h16v16h-16zM104 304h16v16h-16zM136 304h16v16h-16zM168 304h16v16h-16z" colortype="1" coriginal="rgb(51, 51, 51, 1)" awdzp="1" colorover="rgb(51, 51, 51, 1)" style="fill: rgb(51, 51, 51);" attrfill="block"></path></g></svg>