<svg xmlns="http://www.w3.org/2000/svg" id="svgid16" x="0" y="0" xmlns:xlink="http://www.w3.org/1999/xlink" version="1.1" viewBox="0 0 496.128 496.128" xml:space="preserve" repair="1"><circle cx="248.128" cy="128.064" r="64" fill="rgb(224, 81, 19)" coriginal="rgb(249, 186, 72, 1)" colortype="0" awdzp="0" colorover="rgb(249, 186, 72, 1)" style="fill: rgb(224, 81, 19);"></circle><path fill="rgb(51, 51, 51, 1)" d="M456.128 288.064v-88c0-17.648-14.352-32-32-32h-48v-104c0-13.232-10.768-24-24-24h-16v-16c0-13.232-10.768-24-24-24h-128c-13.232 0-24 10.768-24 24v16h-16c-13.232 0-24 10.768-24 24v104h-48c-17.648 0-32 14.352-32 32v105.072L0 328.064l40.128 22.928v57.072c0 17.648 14.352 32 32 32h104v40h-32v16h208v-16h-32v-40h104c17.648 0 32-14.352 32-32v-40c22.056 0 40-17.944 40-40s-17.944-40-40-40zm-32 64h-16v-48h16v48zm-280-136h16v16c0 13.232 10.768 24 24 24h128c13.232 0 24-10.768 24-24v-16h72v72h-320v-72h56zm176 0v16c0 4.416-3.584 8-8 8h-128c-4.416 0-8-3.584-8-8v-16h144zm-144-16v-144h144v144h-144zm-96 152v-16h312v16h-312zm312-32h-312v-16h312v16zm-304 48h320v24h-320v-24zm336-184c8.824 0 16 7.176 16 16v88h-16v-88h-49.472c.896-2.512 1.472-5.184 1.472-8v-8h48zm-72-128c4.416 0 8 3.584 8 8v128c0 4.416-3.584 8-8 8h-16v-144h16zm-176-32c0-4.416 3.584-8 8-8h128c4.416 0 8 3.584 8 8v16h-144v-16zm-40 40c0-4.416 3.584-8 8-8h16v144h-16c-4.416 0-8-3.584-8-8v-128zm-80 136c0-8.824 7.176-16 16-16h48v8c0 2.816.576 5.488 1.472 8H72.128v88H70l-13.872 7.928v-95.928zm8 109.784v36.432l-31.872-18.216 31.872-18.216zm240 170.216h-112v-40h112v40zm136-72c0 8.824-7.176 16-16 16h-352c-8.824 0-16-7.176-16-16v-47.928L70 368.064h2.128v40h352v-40h16v40zm16-56h-16v-48h16c13.232 0 24 10.768 24 24s-10.768 24-24 24z" coriginal="rgb(51, 51, 51, 1)" colortype="1" awdzp="1" colorover="rgb(51, 51, 51, 1)" style="fill: rgb(51, 51, 51);" attrfill="block"></path></svg>