<svg xmlns="http://www.w3.org/2000/svg" id="svgid7" x="0" y="0" version="1.1" xmlns:xlink="http://www.w3.org/1999/xlink" viewBox="0 0 290.627 290.627" xml:space="preserve" repair="1"><g><g><g><path fill="rgb(224, 81, 19)" d="M123.458 98.438h9.375v93.75h-9.375z" coriginal="rgb(249, 186, 72, 1)" colortype="0" awdzp="0" colorover="rgb(178, 219, 191)" style="fill: rgb(224, 81, 19);"></path></g><g><path fill="rgb(224, 81, 19)" d="M160.958 98.438h9.375v93.75h-9.375z" coriginal="rgb(249, 186, 72, 1)" colortype="0" awdzp="0" colorover="rgb(178, 219, 191)" style="fill: rgb(224, 81, 19);"></path></g><g><path fill="rgb(224, 81, 19)" d="M198.458 98.438h9.375v93.75h-9.375z" coriginal="rgb(249, 186, 72, 1)" colortype="0" awdzp="0" colorover="rgb(178, 219, 191)" style="fill: rgb(224, 81, 19);"></path></g><g><path fill="rgb(51, 51, 51, 1)" d="M67.208 220.313h181.66l40.175-140.625h-11.048c-1.463-29.447-16.59-32.813-23.292-32.813-6.075 0-10.64 2.348-14.062 5.517v-5.517c0-7.753 6.31-14.063 14.063-14.063v-9.375c-12.923 0-23.437 10.514-23.437 23.438v5.517c-3.417-3.17-7.983-5.517-14.058-5.517-4.06 0-11.198 1.247-16.542 8.733l6.422-27.29c1.622-6.892.033-14.03-4.364-19.58S191.742 0 184.664 0c-10.59 0-19.782 7.177-22.35 17.452l-6.48 25.912c-8.33-17.302-25.986-29.302-46.438-29.302-28.43 0-51.562 23.133-51.562 51.563 0 4.8.717 9.497 2.02 14.063h-6.13L38.098 14.063H1.582v9.375h29.11l44.643 187.5h-8.128c-12.923 0-23.437 10.514-23.437 23.438s10.515 23.438 23.438 23.438h.422c-.258 1.528-.422 3.09-.422 4.688 0 15.51 12.614 28.125 28.125 28.125s28.125-12.614 28.125-28.125c0-1.598-.164-3.16-.422-4.688h66.47c-.26 1.528-.423 3.09-.423 4.688 0 15.51 12.614 28.125 28.125 28.125s28.125-12.614 28.125-28.125-12.614-28.125-28.125-28.125c-10.383 0-19.448 5.672-24.32 14.063h-73.236c-4.87-8.39-13.936-14.063-24.32-14.063s-19.447 5.672-24.318 14.063h-3.806c-7.753 0-14.062-6.31-14.062-14.063s6.31-14.064 14.062-14.064zm150-164.063c10.81 0 14.133 14.888 14.16 15.023.45 2.166 2.364 3.727 4.576 3.727h.014c2.208 0 4.12-1.552 4.584-3.713.033-.15 3.356-15.037 14.166-15.037 10.552 0 13.355 13.092 13.93 23.438h-65.36c.576-10.34 3.378-23.438 13.93-23.438zm-56.39 5.827l10.588-42.352c1.523-6.094 6.975-10.35 13.256-10.35 4.2 0 8.105 1.89 10.716 5.18 2.606 3.29 3.548 7.523 2.587 11.616L185.37 79.69h-26.428c1.298-4.566 2.016-9.262 2.016-14.063 0-1.2-.098-2.38-.178-3.563l.037.015zm-9.235 3.548c0 4.828-.862 9.54-2.47 14.063h-13.805c-1.613-4.514-2.475-9.225-2.475-14.063 0-9.755 3.314-18.975 9.375-26.456 5.85 7.24 9.375 16.443 9.375 26.455zm-16.087-33.08c-7.79 9.267-12.037 20.83-12.037 33.08 0 4.805.712 9.502 2.015 14.063H93.317c1.303-4.56 2.016-9.258 2.016-14.063 0-12.248-4.247-23.813-12.037-33.08 7.19-5.686 16.247-9.108 26.1-9.108s18.91 3.422 26.1 9.108zm-68.288 33.08c0-10.012 3.525-19.214 9.375-26.456 6.06 7.48 9.375 16.7 9.375 26.455 0 4.838-.862 9.548-2.47 14.063H69.683c-1.612-4.524-2.475-9.235-2.475-14.063zm-11.25 23.438h220.664L241.8 210.938H84.973L55.958 89.063zm161.25 154.687c10.34 0 18.75 8.41 18.75 18.75s-8.41 18.75-18.75 18.75-18.75-8.41-18.75-18.75 8.41-18.75 18.75-18.75zm-121.875 0c10.34 0 18.75 8.41 18.75 18.75s-8.41 18.75-18.75 18.75-18.75-8.41-18.75-18.75 8.41-18.75 18.75-18.75z" coriginal="rgb(51, 51, 51, 1)" colortype="1" awdzp="1" colorover="rgb(51, 51, 51, 1)" style="fill: rgb(51, 51, 51);" attrfill="block"></path><circle cx="217.208" cy="262.5" r="4.688" fill="rgb(51, 51, 51, 1)" colortype="1" coriginal="rgb(51, 51, 51, 1)" awdzp="1" colorover="rgb(51, 51, 51, 1)" style="fill: rgb(51, 51, 51);" attrfill="block"></circle><circle cx="95.333" cy="262.5" r="4.688" fill="rgb(51, 51, 51, 1)" colortype="1" coriginal="rgb(51, 51, 51, 1)" awdzp="1" colorover="rgb(51, 51, 51, 1)" style="fill: rgb(51, 51, 51);" attrfill="block"></circle><path fill="rgb(51, 51, 51, 1)" d="M85.958 112.5H250.02v9.375H85.958zM90.646 140.625h150V150h-150zM95.333 168.75H231.27v9.375H95.333zM169.187 46.742l2.274-9.095 18.748 4.686-2.274 9.095zM164.5 65.49l2.273-9.095 18.747 4.687-2.274 9.094z" colortype="1" coriginal="rgb(51, 51, 51, 1)" awdzp="1" colorover="rgb(51, 51, 51, 1)" style="fill: rgb(51, 51, 51);" attrfill="block"></path></g></g></g></svg>