<svg xmlns="http://www.w3.org/2000/svg" id="svgid2" x="0" y="0" xmlns:xlink="http://www.w3.org/1999/xlink" version="1.1" viewBox="0 0 496 496" xml:space="preserve" repair="1"><path fill="rgb(224, 81, 19)" d="M136 452h320V180H352v176l-16 24-16-24V180H136z" coriginal="rgb(249, 186, 72, 1)" colortype="0" awdzp="0" colorover="rgb(249, 186, 72, 1)" style="fill: rgb(224, 81, 19);"></path><g><path fill="rgb(51, 51, 51, 1)" d="M456 140h-96V92c0-13.232-10.768-24-24-24s-24 10.768-24 24v48H72c-22.056 0-40 17.944-40 40v128h-8c-4.416 0-8-3.584-8-8V92c0-4.416 3.584-8 8-8h224c13.232 0 24-10.768 24-24V4h-16v56c0 4.416-3.584 8-8 8H24C10.768 68 0 78.768 0 92v208c0 13.232 10.768 24 24 24h8v128c0 22.056 17.944 40 40 40h384c22.056 0 40-17.944 40-40V180c0-22.056-17.944-40-40-40zM336 373.576l-8-12V356h16v5.576l-8 12zM344 340h-16v-96h16v96zm-8-256c4.416 0 8 3.584 8 8v136h-16V92c0-4.416 3.584-8 8-8zM48 196h80v240H48V196zm432 256c0 13.232-10.768 24-24 24H72c-13.232 0-24-10.768-24-24h96V180H48c0-13.232 10.768-24 24-24h240v210.424l16 24V412h16v-21.576l16-24V156h96c13.232 0 24 10.768 24 24v272z" coriginal="rgb(51, 51, 51, 1)" colortype="1" awdzp="1" colorover="rgb(51, 51, 51, 1)" style="fill: rgb(51, 51, 51);" attrfill="block"></path><path fill="rgb(51, 51, 51, 1)" d="M88 356c22.056 0 40-17.944 40-40s-17.944-40-40-40-40 17.944-40 40 17.944 40 40 40zm0-64c13.232 0 24 10.768 24 24s-10.768 24-24 24-24-10.768-24-24 10.768-24 24-24z" colortype="1" coriginal="rgb(51, 51, 51, 1)" awdzp="1" colorover="rgb(51, 51, 51, 1)" style="fill: rgb(51, 51, 51);" attrfill="block"></path><circle cx="88" cy="316" r="8" fill="rgb(51, 51, 51, 1)" colortype="1" coriginal="rgb(51, 51, 51, 1)" awdzp="1" colorover="rgb(51, 51, 51, 1)" style="fill: rgb(51, 51, 51);" attrfill="block"></circle><path fill="rgb(51, 51, 51, 1)" d="M64 244h48v16H64zM64 212h48v16H64zM64 404h48v16H64zM64 372h48v16H64z" colortype="1" coriginal="rgb(51, 51, 51, 1)" awdzp="1" colorover="rgb(51, 51, 51, 1)" style="fill: rgb(51, 51, 51);" attrfill="block"></path></g></svg>