<svg xmlns="http://www.w3.org/2000/svg" id="svgid9" x="0" y="0" xmlns:xlink="http://www.w3.org/1999/xlink" version="1.1" viewBox="0 0 496.111 496.111" xml:space="preserve" repair="1"><path fill="rgb(224, 81, 19)" d="M248.056 128.054c-52.936 0-96 43.064-96 96 0 34.512 18.264 65.904 48 83.064v20.936h96v-20.936c29.736-17.16 48-48.544 48-83.064 0-52.936-43.064-96-96-96zm0 120c-13.256 0-24-10.744-24-24s10.744-24 24-24 24 10.744 24 24-10.744 24-24 24z" coriginal="rgb(249, 186, 72, 1)" colortype="0" awdzp="0" colorover="rgb(249, 186, 72, 1)" style="fill: rgb(224, 81, 19);"></path><g><path fill="rgb(51, 51, 51, 1)" d="M284.056 312.054h-28v-57.136c13.768-3.576 24-15.992 24-30.864 0-17.648-14.352-32-32-32s-32 14.352-32 32c0 14.872 10.232 27.288 24 30.864v57.136h-28c-11.032 0-20 8.968-20 20 0 4.52 1.56 8.648 4.096 12-2.536 3.352-4.096 7.48-4.096 12 0 11.032 8.968 20 20 20h72c11.032 0 20-8.968 20-20 0-4.52-1.56-8.648-4.096-12 2.536-3.352 4.096-7.48 4.096-12 0-11.032-8.968-20-20-20zm-52-88c0-8.824 7.176-16 16-16s16 7.176 16 16-7.176 16-16 16-16-7.176-16-16zm-20 104h72c2.2 0 4 1.8 4 4s-1.8 4-4 4h-72c-2.2 0-4-1.8-4-4s1.8-4 4-4zm72 32h-72c-2.2 0-4-1.8-4-4s1.8-4 4-4h72c2.2 0 4 1.8 4 4s-1.8 4-4 4z" coriginal="rgb(51, 51, 51, 1)" colortype="1" awdzp="1" colorover="rgb(51, 51, 51, 1)" style="fill: rgb(51, 51, 51);" attrfill="block"></path><path fill="rgb(51, 51, 51, 1)" d="M490.296 297.638c-5.608-25.624-15.112-51.48-27.944-76.816 18.656-63.856 10.376-123.064-26.816-160.256-33.12-33.128-83.896-44.232-143.032-31.312-5.752 1.256-11.512 2.792-17.28 4.472-25.32-12.816-51.152-22.312-76.76-27.912C133.096-8.474 76.952 3.782 40.368 40.366S-8.48 133.102 5.816 198.47c5.608 25.624 15.112 51.48 27.944 76.816-19.008 64.744-9.976 123.464 26.816 160.256 24.12 24.12 57.592 36.568 96.832 36.568 14.656 0 30.12-1.744 46.192-5.256 5.752-1.256 11.512-2.792 17.28-4.472 25.32 12.816 51.152 22.312 76.76 27.912 17.8 3.888 34.912 5.816 51.136 5.816 43.36 0 80.344-13.744 106.968-40.368 36.584-36.584 48.848-92.736 34.552-158.104zM424.224 71.886c29.976 29.976 38.456 76.664 27.016 128.52-18.016-30.768-40.952-60.416-68.04-87.496-27.088-27.088-56.744-50.032-87.512-68.048 51.4-11.336 98.264-3.256 128.536 27.024zm-56.168 268.168c0-11.032 8.968-20 20-20s20 8.968 20 20-8.968 20-20 20-20-8.968-20-20zm34.288-33.008c-4.384-1.912-9.208-2.992-14.288-2.992-19.848 0-36 16.152-36 36 0 7.312 2.216 14.096 5.976 19.776-41.992 41.728-89.808 70.808-135.488 85.44-34.568-18.272-68.064-43.128-98.32-73.384C94 341.662 69.16 308.198 50.896 273.67c3.744-11.648 8.544-23.528 14.224-35.504 3.464 1.12 7.096 1.888 10.936 1.888 19.848 0 36-16.152 36-36 0-10-4.112-19.048-10.712-25.576 10.84-14.416 22.816-28.304 35.824-41.312 42.216-42.208 90.4-71.592 136.408-86.328 34.568 18.264 68.064 43.128 98.312 73.376 30.248 30.248 55.104 63.744 73.376 98.304-8.92 27.76-23.296 56.448-42.92 84.528zM96.056 204.054c0 11.032-8.968 20-20 20s-20-8.968-20-20 8.968-20 20-20 20 8.968 20 20zm-74.608-9C8.352 135.198 19.088 84.27 51.68 51.678c23.536-23.536 56.616-35.672 95.736-35.672 15.048 0 31 1.8 47.64 5.44 19.44 4.256 39.048 10.864 58.456 19.576-44.904 17.104-89.16 46.32-127.664 84.824-13.92 13.92-26.712 28.808-38.24 44.28-3.64-1.248-7.488-2.072-11.552-2.072-19.848 0-36 16.152-36 36 0 10.232 4.336 19.424 11.208 25.984-3.776 7.888-7.224 15.744-10.208 23.536-8.728-19.424-15.352-39.056-19.608-58.52zm50.44 229.168c-29.56-29.56-38.52-75.912-26.928-128.376 18 30.712 40.912 60.312 67.952 87.352 27.088 27.088 56.744 50.032 87.512 68.048-51.392 11.336-98.256 3.264-128.536-27.024zm372.544 20.208c-32.592 32.592-83.488 43.344-143.376 30.232-19.44-4.256-39.048-10.864-58.456-19.576 44.68-17.016 88.704-46.032 127.064-84.248 5.4 3.24 11.648 5.216 18.392 5.216 19.848 0 36-16.152 36-36 0-8.984-3.424-17.112-8.888-23.424 17.144-24.472 30.472-49.464 39.888-74.096 8.728 19.432 15.352 39.064 19.608 58.528 13.096 59.848 2.36 110.776-30.232 143.368z" colortype="1" coriginal="rgb(51, 51, 51, 1)" awdzp="1" colorover="rgb(51, 51, 51, 1)" style="fill: rgb(51, 51, 51);" attrfill="block"></path></g></svg>