<svg xmlns="http://www.w3.org/2000/svg" id="svgid2" x="0" y="0" xmlns:xlink="http://www.w3.org/1999/xlink" version="1.1" viewBox="0 0 496 496" xml:space="preserve" repair="1"><path fill="rgb(224, 81, 19)" d="M64 152h344v312H64z" coriginal="rgb(249, 186, 72, 1)" colortype="0" awdzp="0" style="fill: rgb(224, 81, 19);" colorover="rgba(249, 186, 72, 1)"></path><g><path fill="rgba(51, 51, 51, 1)" d="M456 120H40c-22.056 0-40 17.944-40 40v296c0 22.056 17.944 40 40 40h416c22.056 0 40-17.944 40-40V160c0-22.056-17.944-40-40-40zm24 336c0 13.232-10.768 24-24 24H40c-13.232 0-24-10.768-24-24V160c0-13.232 10.768-24 24-24h416c13.232 0 24 10.768 24 24v296z" coriginal="rgb(51, 51, 51, 1)" colortype="1" awdzp="1" style="fill: rgb(51, 51, 51);" colorover="rgba(51, 51, 51, 1)" attrfill="block"></path><path fill="rgba(51, 51, 51, 1)" d="M32 256h16v64H32zM32 352h16v16H32zM444 284c-15.44 0-28 12.56-28 28s12.56 28 28 28 28-12.56 28-28-12.56-28-28-28zm0 40c-6.616 0-12-5.384-12-12s5.384-12 12-12 12 5.384 12 12-5.384 12-12 12zM200 248c0-17.648-14.352-32-32-32s-32 14.352-32 32 14.352 32 32 32 32-14.352 32-32zm-32 16c-8.824 0-16-7.176-16-16s7.176-16 16-16 16 7.176 16 16-7.176 16-16 16z" colortype="1" coriginal="rgb(51, 51, 51, 1)" awdzp="1" style="fill: rgb(51, 51, 51);" colorover="rgba(51, 51, 51, 1)" attrfill="block"></path><path fill="rgba(51, 51, 51, 1)" d="M168 328c39.704 0 72-32.296 72-72s-32.296-72-72-72-72 32.296-72 72 32.296 72 72 72zm-15.768-18.296C153.36 301.976 159.968 296 168 296s14.64 5.976 15.768 13.704C178.76 311.176 173.48 312 168 312s-10.76-.824-15.768-2.296zM168 200c30.872 0 56 25.128 56 56 0 19.616-10.168 36.888-25.48 46.888C194.568 289.696 182.464 280 168 280s-26.568 9.696-30.52 22.888C122.168 292.888 112 275.616 112 256c0-30.872 25.128-56 56-56zM256 184h120v16H256zM256 216h120v16H256zM256 248h120v16H256zM256 280h120v16H256zM256 312h120v16H256zM240 432h136v-88H240v88zm16-72h104v56H256v-56zM96 352h128v16H96zM96 384h128v16H96zM96 416h128v16H96zM464 104c17.648 0 32-14.352 32-32s-14.352-32-32-32c-14.872 0-27.288 10.232-30.864 24H428v16h5.136c3.576 13.768 15.992 24 30.864 24zm0-48c8.824 0 16 7.176 16 16s-7.176 16-16 16-16-7.176-16-16 7.176-16 16-16zM32 64c14.872 0 27.288-10.232 30.864-24H68V24h-5.136C59.288 10.232 46.872 0 32 0 14.352 0 0 14.352 0 32s14.352 32 32 32zm0-48c8.824 0 16 7.176 16 16s-7.176 16-16 16-16-7.176-16-16 7.176-16 16-16zM84 24h16v16H84zM120 44h16V24h-20v16h4zM120 60h16v16h-16zM120 92h16v12h-16zM208 92h16v12h-16zM224 80h4V64h-20v20h16zM383.552 64h22.216v16h-22.216zM250.24 64h22.216v16H250.24zM339.12 64h22.216v16H339.12zM294.664 64h22.216v16h-22.216z" colortype="1" coriginal="rgb(51, 51, 51, 1)" awdzp="1" style="fill: rgb(51, 51, 51);" colorover="rgba(51, 51, 51, 1)" attrfill="block"></path></g></svg>