<svg xmlns="http://www.w3.org/2000/svg" id="svgid13" x="0" y="0" xmlns:xlink="http://www.w3.org/1999/xlink" version="1.1" viewBox="0 0 496 496" xml:space="preserve" repair="1"><g><path fill="rgb(51, 51, 51, 1)" d="M32 152h16v-16h80v-16H48c-8.824 0-16 7.176-16 16v16z" coriginal="rgb(51, 51, 51, 1)" colortype="1" awdzp="1" colorover="rgb(51, 51, 51, 1)" style="fill: rgb(51, 51, 51);" attrfill="block"></path><path fill="rgb(51, 51, 51, 1)" d="M464 88H32c-17.648 0-32 14.352-32 32v256c0 17.648 14.352 32 32 32h432c17.648 0 32-14.352 32-32V120c0-17.648-14.352-32-32-32zm-224 32h-96v16h96v161.056L229.576 304H208v16h21.576L240 326.944V360H48V168H32v192c0 8.824 7.176 16 16 16h192v16H32c-8.824 0-16-7.176-16-16V120c0-8.824 7.176-16 16-16h208v16zm240 256c0 8.824-7.176 16-16 16H256v-56h16v40h192v-40h8c2.816 0 5.488-.576 8-1.472V376zm-233.576-64l12-8H264v16h-5.576l-12-8zM448 184v104H288V136h112v48h48zm-32-16v-20.688L436.688 168H416zm-72 136v16h-64v-16h64zm104 32v24H288v-24h160zm24-16H360v-16h112c4.416 0 8 3.584 8 8s-3.584 8-8 8zm8-30.528c-2.512-.896-5.184-1.472-8-1.472h-8V172.688L411.312 120H272v168h-16V104h208c8.824 0 16 7.176 16 16v169.472z" colortype="1" coriginal="rgb(51, 51, 51, 1)" awdzp="1" colorover="rgb(51, 51, 51, 1)" style="fill: rgb(51, 51, 51);" attrfill="block"></path></g><path fill="rgb(224, 81, 19)" d="M195.96 280.52l-39.92-153.04c-2.224-8.512-11.024-13.736-19.56-11.6l-96.96 24.24c-8.536 2.136-13.704 10.848-11.48 19.36l39.92 153.04c2.224 8.512 11.024 13.736 19.56 11.6l96.952-24.24c8.544-2.136 13.712-10.848 11.488-19.36zM132 304c-6.624 0-12-5.376-12-12s5.376-12 12-12 12 5.376 12 12-5.376 12-12 12z" coriginal="rgb(249, 186, 72, 1)" colortype="0" awdzp="0" colorover="rgb(249, 186, 72, 1)" style="fill: rgb(224, 81, 19);"></path><g><path fill="rgb(51, 51, 51, 1)" d="M191.47 263.652L63.466 295.62l-3.875-15.516 128.006-31.968zM161.066 147.106l-128.004 31.97-3.875-15.517 128.004-31.97z" colortype="1" coriginal="rgb(51, 51, 51, 1)" awdzp="1" colorover="rgb(51, 51, 51, 1)" style="fill: rgb(51, 51, 51);" attrfill="block"></path><path fill="rgb(51, 51, 51, 1)" d="M132 312c-11.032 0-20-8.968-20-20s8.968-20 20-20 20 8.968 20 20-8.968 20-20 20zm0-24c-2.2 0-4 1.8-4 4s1.8 4 4 4 4-1.8 4-4-1.8-4-4-4z" colortype="1" coriginal="rgb(51, 51, 51, 1)" awdzp="1" colorover="rgb(51, 51, 51, 1)" style="fill: rgb(51, 51, 51);" attrfill="block"></path></g></svg>