<svg xmlns="http://www.w3.org/2000/svg" id="svgid10" x="0" y="0" xmlns:xlink="http://www.w3.org/1999/xlink" version="1.1" viewBox="0 0 496 496" xml:space="preserve" repair="1"><path fill="rgb(224, 81, 19)" d="M136 175.788H56v216h384v-216h-80v64l-128 48-96-48z" coriginal="rgb(249, 186, 72, 1)" colortype="0" awdzp="0" colorover="rgb(249, 186, 72, 1)" style="fill: rgb(224, 81, 19);"></path><g><path fill="rgb(51, 51, 51, 1)" d="M480 415.788v-248c0-17.648-14.352-32-32-32h-39.024c-.208-.712-.36-1.44-.584-2.152l-6.888 2.152H368v-12.944L264.464 71.068 128 122.244v13.544H91.128l-3.808-1.168c-.12.384-.192.776-.312 1.168H48c-17.648 0-32 14.352-32 32v248H0v32c0 17.648 14.352 32 32 32h432c17.648 0 32-14.352 32-32v-32h-16zM272 186.836v-17.504l80-30v87.504l-80-40zm-32-5.504l16-6v10.912l-16 6v-10.912zm32-29.088V92.74l68.008 34L272 152.244zm-16 6l-23.536 8.824-76.472-38.232L256 91.332v66.912zm-32 22.496v17.504l-80 30v-87.512l80 40.008zm0 34.592v59.504l-68.008-34L224 215.332zm16-6l23.536-8.824 76.472 38.232L240 276.244v-66.912zM32 167.788c0-8.824 7.176-16 16-16h35.16c-.472 2.44-1 4.872-1.36 7.32l15.832 2.328c.472-3.232 1.104-6.448 1.792-9.648H128v92.944l103.536 51.776L368 245.332v-93.544h28.552c.624 2.904 1.232 5.808 1.68 8.736l15.816-2.44c-.32-2.104-.808-4.2-1.208-6.296H448c8.824 0 16 7.176 16 16v248H272v16h-48v-16H32v-248zm448 280c0 8.824-7.176 16-16 16H32c-8.824 0-16-7.176-16-16v-16h192c0 8.824 7.176 16 16 16h48c8.824 0 16-7.176 16-16h192v16z" coriginal="rgb(51, 51, 51, 1)" colortype="1" awdzp="1" colorover="rgb(51, 51, 51, 1)" style="fill: rgb(51, 51, 51);" attrfill="block"></path><path fill="rgb(51, 51, 51, 1)" d="M96 184.092l-16 .032c.016 8.392.656 16.808 1.904 25.024l15.816-2.408c-1.128-7.432-1.704-15.048-1.72-22.648zM122.2 98.444l-13.232-8.984c-4.704 6.92-8.912 14.24-12.52 21.76l14.424 6.92c3.264-6.8 7.072-13.432 11.328-19.696zM152.936 65.18L142.92 52.692c-6.496 5.208-12.672 10.976-18.352 17.12l11.752 10.856c5.144-5.56 10.728-10.768 16.616-15.488zM399.12 110.3c-3.648-7.504-7.904-14.784-12.632-21.664l-13.184 9.08c4.288 6.216 8.136 12.816 11.448 19.6l14.368-7.016zM331.528 37.996c-7.248-4.168-14.864-7.816-22.656-10.832l-5.8 14.904c7.04 2.744 13.928 6.04 20.488 9.808l7.968-13.88zM284.832 19.836c-8.12-1.824-16.472-3.04-24.832-3.624l-1.12 15.952c7.56.536 15.128 1.64 22.472 3.28l3.48-15.608zM236.152 32.252L234.936 16.3c-8.32.64-16.656 1.904-24.8 3.784l3.576 15.592c7.368-1.704 14.92-2.848 22.44-3.424zM192.048 42.412L186.16 27.54c-7.784 3.08-15.368 6.776-22.568 10.96l8.064 13.832c6.496-3.792 13.36-7.128 20.392-9.92zM370.776 69.1c-5.688-6.088-11.896-11.816-18.464-17.016l-9.936 12.528c5.936 4.712 11.552 9.888 16.696 15.408l11.704-10.92zM408.592 233.284l-15.296-4.72c-2.216 7.208-5.008 14.328-8.296 21.152l14.424 6.936c3.624-7.544 6.712-15.4 9.168-23.368zM386.848 278.396l-13.216-9.016c-4.256 6.232-9.024 12.208-14.168 17.76l11.736 10.872c5.672-6.112 10.944-12.72 15.648-19.616zM352.824 315.092l-10-12.496c-5.904 4.728-12.208 9.04-18.736 12.824l8.016 13.84c7.216-4.184 14.184-8.952 20.72-14.168zM260.72 351.316l-1.184-15.952c-3.712.272-7.464.424-11.256.424-3.832.048-7.688-.136-11.48-.4l-1.16 15.952c4.168.304 8.36.52 12.64.448 4.192 0 8.336-.168 12.44-.472zM309.52 340.164l-5.856-14.888c-7.016 2.768-14.304 5.024-21.688 6.712l3.576 15.592c8.152-1.872 16.224-4.36 23.968-7.416zM109.328 278.652c4.712 6.872 9.992 13.464 15.696 19.584l11.704-10.904c-5.16-5.536-9.936-11.504-14.192-17.728l-13.208 9.048zM186.8 340.284c7.768 3.048 15.84 5.528 24.032 7.376l3.512-15.608c-7.392-1.664-14.696-3.904-21.704-6.656l-5.84 14.888zM143.424 315.276c6.536 5.2 13.52 9.96 20.752 14.136l8-13.856c-6.544-3.776-12.864-8.08-18.784-12.792l-9.968 12.512zM102.8 228.876l-15.28 4.752c2.48 7.96 5.576 15.816 9.216 23.336l14.408-6.968c-3.304-6.816-6.112-13.92-8.344-21.12zM416 183.788v-.656l-16 .656c0 7.592-.56 15.216-1.68 22.648l15.832 2.376c1.224-8.216 1.848-16.632 1.848-25.024z" colortype="1" coriginal="rgb(51, 51, 51, 1)" awdzp="1" colorover="rgb(51, 51, 51, 1)" style="fill: rgb(51, 51, 51);" attrfill="block"></path></g></svg>