<svg xmlns="http://www.w3.org/2000/svg" id="svgid15" x="0" y="0" xmlns:xlink="http://www.w3.org/1999/xlink" version="1.1" viewBox="0 0 501.336 501.336" xml:space="preserve" repair="1"><g><path fill="rgb(51, 51, 51, 1)" d="M117.336 282.668h128v-16h-128v-32h88v-16h-88v-32h64v-16h-74.664L0 250.668l106.672 80h146.664v-16h-136v-32zm-16 24l-40-30v-52l40-30v112zm-56-70v28l-18.664-14 18.664-14zM421.336 170.668h-176v16h128v32h-104v16h104v32h-72v16h72v32h-56v16h104c44.112 0 80-35.888 80-80s-35.888-80-80-80zm-32 16h24v128h-24v-128zm40 127.448V187.22c31.52 3.96 56 30.872 56 63.448s-24.48 59.488-56 63.448z" coriginal="rgb(51, 51, 51, 1)" colortype="1" awdzp="1" colorover="rgb(51, 51, 51, 1)" style="fill: rgb(51, 51, 51);" attrfill="block"></path></g><path fill="rgb(224, 81, 19)" d="M381.336 10.668l-216 168 88 144-128 168 216-168-88-144z" coriginal="rgb(249, 186, 72, 1)" colortype="0" awdzp="0" colorover="rgb(249, 186, 72, 1)" style="fill: rgb(224, 81, 19);"></path></svg>