<svg xmlns="http://www.w3.org/2000/svg" id="svgid2" x="0" y="0" version="1.1" xmlns:xlink="http://www.w3.org/1999/xlink" viewBox="0 0 290.626 290.626" xml:space="preserve" repair="1"><g><g><path fill="rgb(51, 51, 51, 1)" d="M145.314 0C80.696 0 28.126 52.57 28.126 117.188H37.5c0-18.09 14.72-32.813 32.813-32.813s32.812 14.723 32.812 32.813h9.375c0-16.495 12.248-30.15 28.125-32.438v60.563H56.25v145.313h178.126V145.313H150V84.75c15.878 2.288 28.126 15.942 28.126 32.438h9.375c0-18.09 14.72-32.813 32.813-32.813s32.812 14.723 32.812 32.813h9.375C262.5 52.57 209.93 0 145.314 0zM225 281.25H65.627V154.688H225V281.25zM70.315 75c-10.81 0-20.68 4.083-28.153 10.795 12.423-40.74 48.385-71.25 91.956-75.773-17.23 20.705-27.572 46.387-29.377 73.472l-.578 8.64C96.47 81.763 84.184 75 70.314 75zm75 0c-12.572 0-23.836 5.56-31.57 14.31l.347-5.197C115.9 57.033 127 31.53 145.315 11.63c18.314 19.898 29.414 45.398 31.223 72.483l.347 5.198c-7.735-8.75-19-14.31-31.57-14.31zm75 0c-13.87 0-26.157 6.764-33.85 17.133l-.576-8.64c-1.805-27.083-12.145-52.766-29.376-73.47 43.57 4.522 79.528 35.033 91.955 75.772C240.995 79.083 231.123 75 220.313 75z" coriginal="rgb(51, 51, 51, 1)" colortype="1" awdzp="1" colorover="rgb(51, 51, 51, 1)" style="fill: rgb(51, 51, 51);" attrfill="block"></path><g><path fill="rgb(224, 81, 19)" d="M126.564 145.313h37.5v70.313h-37.5z" coriginal="rgb(249, 186, 72, 1)" colortype="0" awdzp="0" colorover="rgb(178, 219, 191)" style="fill: rgb(224, 81, 19);"></path></g></g></g></svg>