<svg xmlns="http://www.w3.org/2000/svg" id="svgid19" x="0" y="0" xmlns:xlink="http://www.w3.org/1999/xlink" version="1.1" viewBox="0 0 496.128 496.128" xml:space="preserve" repair="1"><g><path fill="rgb(224, 81, 19)" d="M360.064 192.128h136v112h-136zM200.064 192.128h96v112h-96zM.064 192.128h136v112h-136z" coriginal="rgb(249, 186, 72, 1)" colortype="0" awdzp="0" colorover="rgb(249, 186, 72, 1)" style="fill: rgb(224, 81, 19);"></path></g><g><path fill="rgb(51, 51, 51, 1)" d="M384.064 334.32c-5.024 4.504-8 10.984-8 17.808s2.976 13.296 8 17.808v38.192c0 4.416-3.584 8-8 8h-8V174.656c9.288-3.312 16-12.112 16-22.528 0-9.768-5.88-18.16-14.272-21.896l15.04-60.168L328.064 3.84l-56.768 66.216 15.04 60.168c-8.392 3.744-14.272 12.136-14.272 21.904 0 10.416 6.712 19.216 16 22.528v281.472c0 22.056 17.944 40 40 40s40-17.944 40-40v-24h8c13.232 0 24-10.768 24-24v-46.824l-3.976-2.312c-2.52-1.464-4.024-4.032-4.024-6.864s1.504-5.4 4.024-6.864l3.976-2.312v-22.824h-16v14.192zm-32 49.808h-48v-208h48v208zm-48 16h48v16h-48v-16zm56-240h-64c-4.416 0-8-3.584-8-8s3.584-8 8-8h64c4.416 0 8 3.584 8 8s-3.584 8-8 8zm-24-80c0 4.416-3.584 8-8 8s-8-3.584-8-8 3.584-8 8-8 8 3.584 8 8zm-16-42.376V57.6c-9.288 3.312-16 12.112-16 22.528 0 13.232 10.768 24 24 24s24-10.768 24-24c0-10.416-6.712-19.216-16-22.528V37.752L367.296 74.2l-13.48 53.928h-51.504L288.824 74.2l31.24-36.448zm32 418.376c0 13.232-10.768 24-24 24s-24-10.768-24-24v-24h48v24zM128.064 70v386.128c0 22.056 17.944 40 40 40s40-17.944 40-40V70l-40-70-40 70zm58.216-5.872h-36.432l18.216-31.872 18.216 31.872zm-26.216 16v312h-16v-312h16zm32 328v16h-48v-16h48zm-16-16v-312h16v312h-16zm-8 88c-13.232 0-24-10.768-24-24v-16h48v16c0 13.232-10.768 24-24 24zM32.064 200.128h16v32h-16zM64.064 200.128h16v40h-16zM96.064 200.128h16v32h-16zM224.064 200.128h16v32h-16zM256.064 200.128h16v40h-16zM416.064 200.128h16v32h-16zM448.064 200.128h16v40h-16z" coriginal="rgb(51, 51, 51, 1)" colortype="1" awdzp="1" colorover="rgb(51, 51, 51, 1)" style="fill: rgb(51, 51, 51);" attrfill="block"></path><path fill="rgb(51, 51, 51, 1)" d="M384.064 200.128h16v40h-16z" colortype="1" coriginal="rgb(51, 51, 51, 1)" awdzp="1" colorover="rgb(51, 51, 51, 1)" style="fill: rgb(51, 51, 51);" attrfill="block"></path></g></svg>