<svg xmlns="http://www.w3.org/2000/svg" id="svgid6" width="512" height="512" x="0" y="0" xmlns:xlink="http://www.w3.org/1999/xlink" version="1.1" viewBox="0 0 64 64" xml:space="preserve" repair="1"><g><g><path fill="rgb(224, 81, 19)" d="M59 23H41V11h18v12z" coriginal="rgb(240, 188, 94, 1)" colortype="0" awdzp="0" colorover="rgb(240, 188, 94, 1)" style="fill: rgb(224, 81, 19);"></path></g><g><path fill="rgb(224, 81, 19)" d="M59 35H41v-9h18v9z" coriginal="rgb(240, 188, 94, 1)" colortype="0" awdzp="0" colorover="rgb(240, 188, 94, 1)" style="fill: rgb(224, 81, 19);"></path></g><g><path fill="rgb(224, 81, 19)" d="M5 23h32v12H5z" coriginal="rgb(240, 188, 94, 1)" colortype="0" awdzp="0" colorover="rgb(240, 188, 94, 1)" style="fill: rgb(224, 81, 19);"></path></g><g><path fill="rgb(224, 81, 19)" d="M19 47H5V37h14v10z" coriginal="rgb(240, 188, 94, 1)" colortype="0" awdzp="0" colorover="rgb(240, 188, 94, 1)" style="fill: rgb(224, 81, 19);"></path></g><g><path fill="rgb(224, 81, 19)" d="M35 47H21V37h14v10z" coriginal="rgb(240, 188, 94, 1)" colortype="0" awdzp="0" colorover="rgb(240, 188, 94, 1)" style="fill: rgb(224, 81, 19);"></path></g><g><path d="M58 1H42c-2.757 0-5 2.243-5 5v13H6c-2.757 0-5 2.243-5 5v28c0 2.757 2.243 5 5 5h13v4h-4v2h26v-2h-4v-4h13c2.757 0 5-2.243 5-5v-5h3c2.757 0 5-2.243 5-5V6c0-2.757-2.243-5-5-5zM42 3h16c1.654 0 3 1.346 3 3v1H39V6c0-1.654 1.346-3 3-3zm19 6v28H39V9h22zM35 61H21v-4h14v4zm15-6H6c-1.654 0-3-1.346-3-3v-1h50v1c0 1.654-1.346 3-3 3zm3-6H3V24c0-1.654 1.346-3 3-3h31v21c0 2.757 2.243 5 5 5h11v2zm5-4H42c-1.654 0-3-1.346-3-3v-3h22v3c0 1.654-1.346 3-3 3z"></path><path d="M47 41h6v2h-6zM57 33h2v2h-2zM41 33h14v2H41zM41 29h18v2H41zM41 25h18v2H41zM21 37h14v2H21zM21 41h14v2H21zM21 45h10v2H21zM33 45h2v2h-2z"></path></g></g></svg>