<svg xmlns="http://www.w3.org/2000/svg" id="svgid20" x="0" y="0" xmlns:xlink="http://www.w3.org/1999/xlink" version="1.1" viewBox="0 0 496 496" xml:space="preserve" repair="1"><path fill="rgba(51, 51, 51, 1)" d="M424 200v-64H299.312L264 100.688V71.72c32.424-2.088 56-16.728 56-35.72 0-20.52-27.512-36-64-36s-64 15.48-64 36c0 18.992 23.576 33.632 56 35.72v28.968L212.688 136H88v64H32v80h128v-32h88v56H80v40h16v-24h320v24h16v-40H264v-56h88v32h128v-80h-56zM208 36c0-8.352 18.256-20 48-20s48 11.648 48 20-18.256 20-48 20-48-11.648-48-20zm48 79.312L284.688 144 256 172.688 227.312 144 256 115.312zM144 264H48v-48h96v48zm16-32v-32h-56v-48h108.688L256 195.312 299.312 152H408v48h-56v32H160zm304 32h-96v-48h96v48z" coriginal="rgb(51, 51, 51, 1)" colortype="1" awdzp="1" style="fill: rgb(51, 51, 51);" colorover="rgba(51, 51, 51, 1)" attrfill="block"></path><g><path fill="rgb(224, 81, 19)" d="M464 496h-80v-46.08c-15.104-12.128-24-30.48-24-49.92 0-35.288 28.712-64 64-64s64 28.712 64 64c0 19.448-8.896 37.8-24 49.92V496zM168 440v-48h-20.672l-.408-.984 14.616-14.616-33.936-33.936-14.616 14.616-.984-.408V336H64v20.672l-.984.408L48.4 342.464 14.464 376.4l14.616 14.616-.408.984H8v48h20.672l.408.984-14.616 14.608L48.4 489.536l14.616-14.616.984.408V496h48v-20.672l.984-.408 14.616 14.616 33.936-33.944-14.616-14.608.408-.984H168zm-80 0c-13.256 0-24-10.744-24-24s10.744-24 24-24 24 10.744 24 24-10.744 24-24 24z" coriginal="rgb(249, 186, 72, 1)" colortype="0" awdzp="0" style="fill: rgb(224, 81, 19);" colorover="rgba(249, 186, 72, 1)"></path></g><g><path fill="rgba(51, 51, 51, 1)" d="M432 422.528c9.288-3.312 16-12.112 16-22.528 0-13.232-10.768-24-24-24s-24 10.768-24 24c0 10.416 6.712 19.216 16 22.528V456h-40v16h96v-16h-40v-33.472zM424 392c4.416 0 8 3.584 8 8s-3.584 8-8 8-8-3.584-8-8 3.584-8 8-8zM88 384c-17.648 0-32 14.352-32 32s14.352 32 32 32 32-14.352 32-32-14.352-32-32-32zm0 48c-8.824 0-16-7.176-16-16s7.176-16 16-16 16 7.176 16 16-7.176 16-16 16z" colortype="1" coriginal="rgb(51, 51, 51, 1)" awdzp="1" style="fill: rgb(51, 51, 51);" colorover="rgba(51, 51, 51, 1)" attrfill="block"></path></g></svg>