<svg xmlns="http://www.w3.org/2000/svg" id="svgid12" x="0" y="0" xmlns:xlink="http://www.w3.org/1999/xlink" version="1.1" viewBox="0 0 498.24 498.24" xml:space="preserve" repair="1"><g><path fill="rgb(51, 51, 51, 1)" d="M242.24 233.12v-80H71.432l-50 40 50 40H242.24zm-160-16v-16h144v16h-144zm144-32h-144v-16h144v16zm-160-7.36v30.712L47.048 193.12l19.192-15.36zM106.736 329.12H242.24v-80H106.736l-67.952-8.496L0 289.12l38.792 48.496 67.944-8.496zm119.504-16h-80v-48h-16v48h-16v-48.056l112 .056v48zM45.696 257.616l52.544 6.568v49.928l-52.544 6.512L26.88 297.12h8.832c3.312 9.288 12.112 16 22.528 16 13.232 0 24-10.768 24-24s-10.768-24-24-24c-10.416 0-19.216 6.712-22.528 16H26.88l18.816-23.504zm4.544 31.504c0-4.416 3.584-8 8-8s8 3.584 8 8-3.584 8-8 8-8-3.584-8-8zM18.24 457.12v-88h16v24h16v-24h16v32h16v-32h16v24h16v-24h16v32h16v-32h16v24h16v-24h16v32h16v-32h24v-16h-232v120h288v-16z" coriginal="rgb(51, 51, 51, 1)" colortype="1" awdzp="1" colorover="rgb(51, 51, 51, 1)" style="fill: rgb(51, 51, 51);" attrfill="block"></path></g><path fill="rgb(224, 81, 19)" d="M362.24 497.12c-74.992 0-136-61.008-136-136v-208c0-13.232 10.768-24 24-24h224c13.232 0 24 10.768 24 24v208c0 74.992-61.008 136-136 136z" coriginal="rgb(249, 186, 72, 1)" colortype="0" awdzp="0" colorover="rgb(249, 186, 72, 1)" style="fill: rgb(224, 81, 19);"></path><g><path fill="rgb(51, 51, 51, 1)" d="M370.24 233.12v-72h-16v72h-128v16h272v-16zM378.24 97.12h-8v-72c0-13.232-10.768-24-24-24h-192c-13.232 0-24 10.768-24 24v64c0 4.416-3.584 8-8 8h-72v-16c0-13.232-10.768-24-24-24h-24v96h24c13.232 0 24-10.768 24-24v-16h72c13.232 0 24-10.768 24-24v-64c0-4.416 3.584-8 8-8h192c4.416 0 8 3.584 8 8v72h-8c-13.232 0-24 10.768-24 24s10.768 24 24 24h32c13.232 0 24-10.768 24-24s-10.768-24-24-24zm-344 32c0 4.416-3.584 8-8 8h-8v-64h8c4.416 0 8 3.584 8 8v48zm344 0h-32c-4.416 0-8-3.584-8-8s3.584-8 8-8h32c4.416 0 8 3.584 8 8s-3.584 8-8 8z" colortype="1" coriginal="rgb(51, 51, 51, 1)" awdzp="1" colorover="rgb(51, 51, 51, 1)" style="fill: rgb(51, 51, 51);" attrfill="block"></path></g></svg>