<svg xmlns="http://www.w3.org/2000/svg" id="svgid13" x="0" y="0" version="1.1" xmlns:xlink="http://www.w3.org/1999/xlink" viewBox="0 0 290.625 290.625" xml:space="preserve" repair="1"><g><g><g><path fill="rgb(224, 81, 19)" d="M0 28.125h290.625v32.813H0z" coriginal="rgb(249, 186, 72, 1)" colortype="0" awdzp="0" colorover="rgb(178, 219, 191)" style="fill: rgb(224, 81, 19);"></path></g><g><path fill="rgb(51, 51, 51, 1)" d="M276.562 0h-262.5C6.31 0 0 6.31 0 14.063v159.375C0 181.19 6.31 187.5 14.063 187.5v103.125h131.25V187.5h131.25c7.753 0 14.062-6.31 14.062-14.063V14.063C290.625 6.31 284.315 0 276.562 0zM135.938 196.875h-9.375v9.375h9.375v56.25h-9.375v9.375h9.375v9.375h-112.5v-9.375h9.375V262.5h-9.375v-56.25h9.375v-9.375h-9.375V187.5H135.935v9.375h.002zm-14.063-18.75h-14.062v-18.75c0-15.51-12.614-28.125-28.125-28.125s-28.125 12.614-28.125 28.125v18.75H37.5v-18.75c0-23.26 18.923-42.188 42.187-42.188s42.187 18.928 42.187 42.188v18.75zm-23.437 0h-37.5v-18.75c0-10.34 8.41-18.75 18.75-18.75s18.75 8.41 18.75 18.75v18.75zm182.812-4.687c0 2.587-2.1 4.688-4.687 4.688H131.25v-18.75c0-28.43-23.133-51.563-51.562-51.563s-51.562 23.133-51.562 51.563v18.75H14.063c-2.587 0-4.687-2.1-4.687-4.688V14.063c0-2.583 2.1-4.688 4.687-4.688h262.5c2.587 0 4.687 2.105 4.687 4.688v159.375z" coriginal="rgb(51, 51, 51, 1)" colortype="1" awdzp="1" colorover="rgb(51, 51, 51, 1)" style="fill: rgb(51, 51, 51);" attrfill="block"></path><path fill="rgb(51, 51, 51, 1)" d="M243.75 112.5c-6.127 0-11.79 1.992-16.41 5.334-4.763-3.445-10.445-5.334-16.403-5.334-15.51 0-28.125 12.614-28.125 28.125s12.614 28.125 28.125 28.125c5.958 0 11.64-1.89 16.397-5.334 4.627 3.342 10.29 5.334 16.416 5.334 15.51 0 28.125-12.614 28.125-28.125S259.26 112.5 243.75 112.5zm-51.563 28.125c0-10.34 8.41-18.75 18.75-18.75 3.47 0 6.787.994 9.694 2.77-3.15 4.542-5.005 10.045-5.005 15.98s1.856 11.433 5.006 15.975c-2.905 1.777-6.224 2.775-9.693 2.775-10.34 0-18.75-8.41-18.75-18.75zm51.563 18.75c-10.34 0-18.75-8.41-18.75-18.75s8.41-18.75 18.75-18.75 18.75 8.41 18.75 18.75-8.41 18.75-18.75 18.75zM79.688 201.563c-10.34 0-18.75 8.41-18.75 18.75 0 4.528 1.683 8.91 4.687 12.328v34.548H93.75V232.64c3.005-3.416 4.687-7.8 4.687-12.327 0-10.34-8.41-18.75-18.75-18.75zm6.234 25.682l-1.547 1.397v29.17H75v-29.17l-1.547-1.397c-2.025-1.823-3.14-4.29-3.14-6.933 0-5.17 4.204-9.375 9.374-9.375s9.375 4.205 9.375 9.375c0 2.644-1.115 5.11-3.14 6.933z" colortype="1" coriginal="rgb(51, 51, 51, 1)" awdzp="1" colorover="rgb(51, 51, 51, 1)" style="fill: rgb(51, 51, 51);" attrfill="block"></path></g></g></g></svg>