<svg xmlns="http://www.w3.org/2000/svg" id="svgid3" width="512" height="512" x="0" y="0" xmlns:xlink="http://www.w3.org/1999/xlink" version="1.1" viewBox="0 0 64 64" xml:space="preserve" repair="1"><g><g><path d="M40 20.007V6c0-2.757-2.243-5-5-5H9C6.243 1 4 3.243 4 6v52c0 2.757 2.243 5 5 5h26c2.757 0 5-2.243 5-5V43.993h-2V53H6V9h32v11.007h2zM38 55v3c0 1.654-1.346 3-3 3H9c-1.654 0-3-1.346-3-3v-3h32zM6 7V6c0-1.654 1.346-3 3-3h26c1.654 0 3 1.346 3 3v1H6z"></path><path d="M19 57h6v2h-6z"></path></g><path d="M36 20.075V11H8v40h28v-7.075h-2V49H10V13h24v7.075z"></path><g><path fill="rgb(224, 81, 19)" d="M12 29h14v6H12z" coriginal="rgb(240, 188, 94, 1)" colortype="0" awdzp="0" colorover="rgb(240, 188, 94, 1)" style="fill: rgb(224, 81, 19);"></path></g><g><path fill="rgb(224, 81, 19)" d="M57.54 28.46c-.32-1.235-.812-2.417-1.465-3.526l1.162-2.323-3.848-3.847-2.324 1.162c-1.11-.652-2.29-1.144-3.525-1.466L46.72 16h-5.44l-.82 2.46c-1.234.32-2.416.812-3.525 1.465l-2.323-1.162-3.848 3.848 1.162 2.324c-.652 1.11-1.144 2.29-1.466 3.525l-2.46.82v5.44l2.46.82c.32 1.234.812 2.416 1.465 3.525l-1.162 2.323 3.848 3.848 2.324-1.162c1.11.652 2.29 1.144 3.525 1.466l.82 2.46h5.44l.82-2.46c1.234-.32 2.416-.812 3.525-1.465l2.323 1.162 3.848-3.848-1.162-2.324c.652-1.11 1.144-2.29 1.466-3.525l2.46-.82v-5.44l-2.46-.82zM44 35c-1.657 0-3-1.343-3-3s1.343-3 3-3 3 1.343 3 3-1.343 3-3 3z" coriginal="rgb(240, 188, 94, 1)" colortype="0" awdzp="0" colorover="rgb(240, 188, 94, 1)" style="fill: rgb(224, 81, 19);"></path></g><g><path d="M44 42c-5.514 0-10-4.486-10-10s4.486-10 10-10 10 4.486 10 10-4.486 10-10 10zm0-18c-4.41 0-8 3.59-8 8s3.59 8 8 8 8-3.59 8-8-3.59-8-8-8z"></path></g><g><path d="M44 36c-2.206 0-4-1.794-4-4s1.794-4 4-4 4 1.794 4 4-1.794 4-4 4zm0-6c-1.103 0-2 .897-2 2s.897 2 2 2 2-.897 2-2-.897-2-2-2z"></path></g><g><path d="M26.414 29H12v-2h9.586l-2.293-2.293 1.414-1.414z"></path></g><g><path d="M20.707 40.707l-1.414-1.414L21.586 37H12v-2h14.414z"></path></g><g><path d="M24 31h2v2h-2z"></path></g><g><path d="M20 31h2v2h-2z"></path></g><g><path d="M16 31h2v2h-2z"></path></g></g></svg>