<svg xmlns="http://www.w3.org/2000/svg" id="svgid6" x="0" y="0" xmlns:xlink="http://www.w3.org/1999/xlink" version="1.1" viewBox="0 0 492.248 492.248" xml:space="preserve" repair="1"><path fill="rgb(224, 81, 19)" d="M38.124 80h416v240h-416z" coriginal="rgb(249, 186, 72, 1)" colortype="0" awdzp="0" style="fill: rgb(224, 81, 19);" colorover="rgba(249, 186, 72, 1)"></path><g><path fill="rgba(51, 51, 51, 1)" d="M268.652 32c.896-2.512 1.472-5.184 1.472-8 0-13.232-10.768-24-24-24s-24 10.768-24 24c0 2.816.576 5.488 1.472 8H14.124v48h464V32H268.652zm-30.528-8c0-4.416 3.584-8 8-8s8 3.584 8 8-3.584 8-8 8-8-3.584-8-8zm224 40h-432V48h432v16zM14.124 368h161.568L103.34 483.76l13.56 8.488L194.556 368h43.568v120h16V368h43.568l77.648 124.24 13.56-8.488L316.556 368h161.568v-48h-464v48zm16-32h432v16h-432v-16zM78.124 280v24h48v-24c0-8.352-4.296-15.696-10.784-20 6.488-4.304 10.784-11.648 10.784-20 0-10.416-6.712-19.216-16-22.528V208h80v9.472c-9.288 3.312-16 12.112-16 22.528 0 8.352 4.296 15.696 10.784 20-6.488 4.304-10.784 11.648-10.784 20v24h48v-24c0-8.352-4.296-15.696-10.784-20 6.488-4.304 10.784-11.648 10.784-20 0-10.416-6.712-19.216-16-22.528V208h80v9.472c-9.288 3.312-16 12.112-16 22.528 0 8.352 4.296 15.696 10.784 20-6.488 4.304-10.784 11.648-10.784 20v24h48v-24c0-8.352-4.296-15.696-10.784-20 6.488-4.304 10.784-11.648 10.784-20 0-10.416-6.712-19.216-16-22.528V208h80v9.472c-9.288 3.312-16 12.112-16 22.528 0 8.352 4.296 15.696 10.784 20-6.488 4.304-10.784 11.648-10.784 20v24h48v-24c0-8.352-4.296-15.696-10.784-20 6.488-4.304 10.784-11.648 10.784-20 0-10.416-6.712-19.216-16-22.528V192h-144v-16h16v-24c0-8.352-4.296-15.696-10.784-20 6.488-4.304 10.784-11.648 10.784-20 0-13.232-10.768-24-24-24s-24 10.768-24 24c0 8.352 4.296 15.696 10.784 20-6.488 4.304-10.784 11.648-10.784 20v24h16v16h-144v25.472c-9.288 3.312-16 12.112-16 22.528 0 8.352 4.296 15.696 10.784 20-6.488 4.304-10.784 11.648-10.784 20zm120-48c4.416 0 8 3.584 8 8s-3.584 8-8 8-8-3.584-8-8 3.584-8 8-8zm8 56h-16v-8c0-4.416 3.584-8 8-8s8 3.584 8 8v8zm88-56c4.416 0 8 3.584 8 8s-3.584 8-8 8-8-3.584-8-8 3.584-8 8-8zm8 56h-16v-8c0-4.416 3.584-8 8-8s8 3.584 8 8v8zm88-56c4.416 0 8 3.584 8 8s-3.584 8-8 8-8-3.584-8-8 3.584-8 8-8zm8 56h-16v-8c0-4.416 3.584-8 8-8s8 3.584 8 8v8zm-144-128h-16v-8c0-4.416 3.584-8 8-8s8 3.584 8 8v8zm-8-56c4.416 0 8 3.584 8 8s-3.584 8-8 8-8-3.584-8-8 3.584-8 8-8zm-136 184h-16v-8c0-4.416 3.584-8 8-8s8 3.584 8 8v8zm-8-56c4.416 0 8 3.584 8 8s-3.584 8-8 8-8-3.584-8-8 3.584-8 8-8z" coriginal="rgb(51, 51, 51, 1)" colortype="1" awdzp="1" style="fill: rgb(51, 51, 51);" colorover="rgba(51, 51, 51, 1)" attrfill="block"></path></g></svg>