<svg xmlns="http://www.w3.org/2000/svg" id="svgid3" x="0" y="0" version="1.1" xmlns:xlink="http://www.w3.org/1999/xlink" viewBox="0 0 290.626 290.626" xml:space="preserve" repair="1"><g><g><circle cx="145.314" cy="145.313" r="89.063" fill="rgb(224, 81, 19)" coriginal="rgb(249, 186, 72, 1)" colortype="0" awdzp="0" colorover="rgb(178, 219, 191)" style="fill: rgb(224, 81, 19);"></circle><path fill="rgb(51, 51, 51, 1)" d="M145.314 0C107.218 0 70.66 15.07 43.59 41.592l-6.17-33.08-9.215 1.725 8.48 45.43L83.86 60.91l1.036-9.315-34.22-3.802c25.267-24.502 59.242-38.42 94.637-38.42 74.953 0 135.937 60.98 135.937 135.94 0 40.907-18.187 77.624-46.875 102.566v-8.818c-3.998 0-7.59-2.222-9.375-5.794l-1.927-3.853c6.436-1.29 11.302-6.98 11.302-13.79 0-7.754-6.31-14.064-14.062-14.064h-18.75v46.876h9.375v-22.33l5.677 11.352c3.29 6.59 9.834 10.72 17.166 10.936-23.797 20.452-54.702 32.855-88.466 32.855-74.953 0-135.937-60.98-135.937-135.94 0-13.846 2.105-27.566 6.262-40.78l-8.945-2.813C2.25 115.842 0 130.51 0 145.313c0 80.123 65.185 145.313 145.313 145.313s145.312-65.19 145.312-145.313S225.44 0 145.315 0zm65.624 220.313v-9.375h9.375c2.587 0 4.687 2.105 4.687 4.688s-2.1 4.688-4.687 4.688h-9.375z" coriginal="rgb(51, 51, 51, 1)" colortype="1" awdzp="1" colorover="rgb(51, 51, 51, 1)" style="fill: rgb(51, 51, 51);" attrfill="block"></path><path fill="rgb(51, 51, 51, 1)" d="M25.103 81.877l-8.287-4.383c-1.828 3.45-3.366 6.623-4.706 9.684l8.587 3.76c1.256-2.85 2.69-5.813 4.406-9.06zM110.073 158.175L53.186 192.31c-6.783 4.068-10.997 11.507-10.997 19.42 0 12.487 10.157 22.644 22.644 22.644h80.48V225h-80.48c-7.317 0-13.27-5.953-13.27-13.27 0-4.636 2.466-8.995 6.445-11.377l56.89-34.14c18.76-11.254 30.413-31.836 30.413-53.713 0-28.43-23.133-51.563-51.562-51.563S42.19 84.07 42.19 112.5v9.375h9.374V112.5c0-23.26 18.923-42.188 42.187-42.188S135.94 89.24 135.94 112.5c0 18.605-9.91 36.108-25.865 45.675zM210.348 63.216l-8.194-4.556-45.473 81.848c-1.302 2.353-1.99 5.016-1.99 7.697 0 8.742 7.115 15.858 15.857 15.858h45.08v28.125H225v-28.125h42.188v-9.375H225v-93.75h-9.374v93.75h-45.08c-3.577 0-6.483-2.906-6.483-6.483 0-1.097.286-2.184.816-3.145l45.468-81.844zM154.688 248.438h9.375v-18.75h18.75v18.75h9.375v-46.875h-9.375v18.75h-18.75v-18.75h-9.375z" colortype="1" coriginal="rgb(51, 51, 51, 1)" awdzp="1" colorover="rgb(51, 51, 51, 1)" style="fill: rgb(51, 51, 51);" attrfill="block"></path></g></g></svg>