<svg xmlns="http://www.w3.org/2000/svg" id="svgid1" x="0" y="0" xmlns:xlink="http://www.w3.org/1999/xlink" version="1.1" viewBox="0 0 496 496" xml:space="preserve" repair="1"><circle cx="104" cy="136" r="64" fill="rgb(224, 81, 19)" coriginal="rgb(249, 186, 72, 1)" colortype="0" awdzp="0" colorover="rgb(249, 186, 72, 1)" style="fill: rgb(224, 81, 19);"></circle><g><path fill="rgb(51, 51, 51, 1)" d="M432 .12L68 0C30.504 0 0 30.504 0 68v428h376V172.28l16.576-11.048L424 176.944l32-16 40 20V68c0-36.152-28.36-65.808-64-67.88zM360 68v412H16V68c0-28.672 23.328-52 52-52h316.224C369.424 28.488 360 47.168 360 68zm120 87.056l-24-12-32 16-32.576-16.288L376 153.056V68c0-28.672 23.328-52 52-52s52 23.328 52 52v87.056z" coriginal="rgb(51, 51, 51, 1)" colortype="1" awdzp="1" colorover="rgb(51, 51, 51, 1)" style="fill: rgb(51, 51, 51);" attrfill="block"></path><path fill="rgb(51, 51, 51, 1)" d="M237.656 173.656L272 139.312l34.344 34.344 11.312-11.312L283.312 128l34.344-34.344-11.312-11.312L272 116.688l-34.344-34.344-11.312 11.312L260.688 128l-34.344 34.344zM149.976 101.312l-11.952-10.624-57.12 64.248-10.248-15.376-13.312 8.88 21.752 32.624zM40 200h128v16H40zM40 240h128v16H40zM40 280h128v16H40zM40 320h128v16H40zM40 360h128v16H40zM40 400h64v16H40zM208 200h128v16H208zM208 240h128v16H208zM208 280h128v16H208zM208 320h96v16h-96z" colortype="1" coriginal="rgb(51, 51, 51, 1)" awdzp="1" colorover="rgb(51, 51, 51, 1)" style="fill: rgb(51, 51, 51);" attrfill="block"></path></g></svg>