<svg xmlns="http://www.w3.org/2000/svg" id="svgid11" x="0" y="0" xmlns:xlink="http://www.w3.org/1999/xlink" version="1.1" viewBox="0 0 487.984 487.984" xml:space="preserve" repair="1"><path fill="rgb(224, 81, 19)" d="M253.656 237.637l-11.312-11.312L416.408 52.26c16.344-16.327 42.952-16.36 59.312 0 16.352 16.36 16.352 42.97 0 59.313L301.656 285.637l-11.312-11.312-36.688-36.688z" coriginal="rgb(249, 186, 72, 1)" colortype="0" awdzp="0" style="fill: rgb(224, 81, 19);" colorover="rgba(249, 186, 72, 1)"></path><g><path fill="rgba(51, 51, 51, 1)" d="M382.76 351.26c-.216-1.127-.488-2.23-.76-3.343-.208-.864-.416-1.72-.664-2.576-.384-1.343-.824-2.655-1.28-3.96-.112-.32-.192-.647-.312-.967C392.68 327.66 400 310.325 400 291.98c0-27.815-17.024-52.39-41.936-62.75l-12.704 12.703c22.544 6 38.64 26.424 38.64 50.048 0 12.337-4.384 24.025-12.152 33.305-12.296-17.68-32.728-29.304-55.848-29.304v16c20.728 0 38.616 12.225 46.96 29.817.784 1.656 1.472 3.344 2.08 5.04.048.136.104.272.152.408.536 1.56.976 3.144 1.36 4.736.064.28.152.56.216.85.328 1.48.56 2.975.76 4.47.048.37.128.73.168 1.105.192 1.848.304 3.704.304 5.576 0 28.673-23.328 52-52 52-11.648 0-22.696-3.815-31.944-11.03l-3.28-2.56c-10.704-9.793-16.944-23.745-16.944-38.41h-16c0 18.417 7.6 35.913 20.6 48.617-9.832 12.24-24.504 19.384-40.432 19.384-19.864 0-37.712-11.103-46.56-28.983l-4.928-9.944-7.88 7.832c-9.808 9.728-22.816 15.096-36.632 15.096-6.328 0-12.456-1.263-18.272-3.47C131.968 400.3 144 379.524 144 355.98c0-1.703-.224-3.36-.344-5.04 12.728-2.207 24.624-7.967 34.28-16.823l-10.816-11.8c-7.456 6.832-16.64 11.248-26.48 12.896-5.352-16.704-16.936-30.984-33-39.448l-7.456 14.16C117.344 318.973 128 336.613 128 355.98c0 22.45-14.328 41.56-34.296 48.833-2.816 1.016-5.672 1.784-8.544 2.312-.192.032-.384.056-.576.088-2.856.488-5.72.768-8.584.768-28.672 0-52-23.327-52-52 0-7.695 1.704-15.175 5.064-22.255l2.192-4.608-3.264-3.936C20.256 315.87 16 304.086 16 291.98c0-24.687 17.544-46.127 41.712-50.975l6.136-1.224.288-6.24c1.296-27.79 24.072-49.56 51.864-49.56 6.248 0 12.472 1.16 18.488 3.45l6.112 2.32 3.496-5.513c9.608-15.192 26.024-24.256 43.904-24.256 9.376 0 18.432 2.57 26.384 7.29-14.888 10.11-26.176 24.44-32.528 41.03-16.528 1.52-32.128 9.057-43.536 21.265l11.688 10.92c7.456-7.976 16.896-13.272 27.296-15.416-.832 4.87-1.304 9.84-1.304 14.91 0 16.833 4.776 33.193 13.8 47.32l13.488-8.607C195.896 267.14 192 253.757 192 239.98c0-28.455 16.496-53.647 42.168-65.36 19.184-8.75 41.256-8.575 59.92-.04l11.808-11.807c-22.632-12.256-50.28-14.112-74.44-4.416l-.056-.144c-.408.16-.784.36-1.192.528-12.008-9.55-26.8-14.76-42.208-14.76-21.28 0-40.976 9.81-53.824 26.513-5.96-1.672-12.048-2.512-18.176-2.512-34.32 0-62.808 25.377-67.304 58.793C20.152 235.213 0 261.733 0 291.98c0 14.16 4.456 27.993 12.632 39.465C9.552 339.31 8 347.54 8 355.98c0 37.497 30.504 68 68 68 3.032 0 6-.27 8.928-.655.552-.072 1.104-.168 1.656-.256 2.96-.465 5.872-1.08 8.704-1.92 11 7.103 23.6 10.83 36.712 10.83 14.664 0 28.632-4.615 40.224-13.167C184.832 437.02 205.416 447.98 228 447.98c20.976 0 40.296-9.455 53.144-25.655 10.52 6.344 22.416 9.656 34.856 9.656 37.496 0 68-30.503 68-68 0-2.175-.12-4.335-.328-6.487-.08-.856-.232-1.688-.344-2.536-.168-1.232-.328-2.472-.568-3.696z" coriginal="rgb(51, 51, 51, 1)" colortype="1" awdzp="1" style="fill: rgb(51, 51, 51);" colorover="rgba(51, 51, 51, 1)" attrfill="block"></path><path fill="rgba(51, 51, 51, 1)" d="M400 68.67l-39.312 39.31 24 24-107.824 107.825c-12.296-9.824-27.848-15.736-44.776-15.736v16c30.824 0 55.912 25.08 55.912 55.91h16c0-16.975-5.944-32.56-15.808-44.88L396 143.294l24 24 39.312-39.312L400 68.67zm-16.688 39.31L400 91.294l36.688 36.688L420 144.67l-36.688-36.69z" colortype="1" coriginal="rgb(51, 51, 51, 1)" awdzp="1" style="fill: rgb(51, 51, 51);" colorover="rgba(51, 51, 51, 1)" attrfill="block"></path></g></svg>