<svg xmlns="http://www.w3.org/2000/svg" id="svgid17" x="0" y="0" xmlns:xlink="http://www.w3.org/1999/xlink" version="1.1" viewBox="0 0 496 496" xml:space="preserve" repair="1"><path fill="rgb(224, 81, 19)" d="M240 128c-44.112 0-80 35.888-80 80s35.888 80 80 80 80-35.888 80-80-35.888-80-80-80zm0 32c13.256 0 24 10.744 24 24s-10.744 24-24 24-24-10.744-24-24 10.744-24 24-24zm32 112h-64v-24c0-17.672 14.328-32 32-32s32 14.328 32 32v24z" coriginal="rgb(249, 186, 72, 1)" colortype="0" awdzp="0" colorover="rgb(249, 186, 72, 1)" style="fill: rgb(224, 81, 19);"></path><g><path fill="rgb(51, 51, 51, 1)" d="M424 216c-13.232 0-24 10.768-24 24s10.768 24 24 24 24-10.768 24-24-10.768-24-24-24zm0 32c-4.416 0-8-3.584-8-8s3.584-8 8-8 8 3.584 8 8-3.584 8-8 8zM180 352h32c11.032 0 20-8.968 20-20s-8.968-20-20-20h-32c-11.032 0-20 8.968-20 20s8.968 20 20 20zm0-24h32c2.2 0 4 1.8 4 4s-1.8 4-4 4h-32c-2.2 0-4-1.8-4-4s1.8-4 4-4zM248 332c0 11.032 8.968 20 20 20h32c11.032 0 20-8.968 20-20s-8.968-20-20-20h-32c-11.032 0-20 8.968-20 20zm56 0c0 2.2-1.8 4-4 4h-32c-2.2 0-4-1.8-4-4s1.8-4 4-4h32c2.2 0 4 1.8 4 4zM216 248c0-13.232 10.768-24 24-24s24 10.768 24 24v24h16v-24c0-16.304-9.832-30.304-23.856-36.528C265.584 205.904 272 195.736 272 184c0-17.648-14.352-32-32-32s-32 14.352-32 32c0 11.736 6.416 21.904 15.856 27.472C209.832 217.696 200 231.696 200 248v24h16v-24zm24-80c8.824 0 16 7.176 16 16s-7.176 16-16 16-16-7.176-16-16 7.176-16 16-16z" coriginal="rgb(51, 51, 51, 1)" colortype="1" awdzp="1" colorover="rgb(51, 51, 51, 1)" style="fill: rgb(51, 51, 51);" attrfill="block"></path><path fill="rgb(51, 51, 51, 1)" d="M496 76c0-41.904-34.096-76-76-76h-56c-41.904 0-76 34.096-76 76 0 6.856.96 13.568 2.728 20H56c-13.232 0-24 10.768-24 24v96H16v81.472C6.712 300.784 0 309.584 0 320v80c0 10.416 6.712 19.216 16 22.528V496h80v-73.472c9.288-3.312 16-12.112 16-22.528v-16h24v88c0 13.232 10.768 24 24 24h280c13.232 0 24-10.768 24-24v-40c0-17.648-14.352-32-32-32h-8v64h8c5.856 0 11.272-1.696 16-4.448V472c0 4.416-3.584 8-8 8h-41.472c.896-2.512 1.472-5.184 1.472-8v-40c0-17.648-14.352-32-32-32h-8v64h8c5.856 0 11.272-1.696 16-4.448V472c0 4.416-3.584 8-8 8H160c-4.416 0-8-3.584-8-8v-88h288c13.232 0 24-10.768 24-24V137.856c19.328-13.8 32-36.352 32-61.856zm-56 369.848v-27.704c4.784 2.768 8 7.936 8 13.848s-3.216 11.096-8 13.856zm-64 0v-27.704c4.784 2.768 8 7.936 8 13.848s-3.216 11.096-8 13.856zM364 16h56c33.088 0 60 26.912 60 60s-26.912 60-60 60h-50.424L344 153.056v-20.288l-4.696-2.136C317.856 120.92 304 99.48 304 76c0-33.088 26.912-60 60-60zM48 120c0-4.416 3.584-8 8-8h24v104H48v-96zM32 232h48v64H32v-64zm48 248H32v-56h48v56zm16-120v40c0 4.416-3.584 8-8 8H24c-4.416 0-8-3.584-8-8v-80c0-4.416 3.584-8 8-8h64c4.416 0 8 3.584 8 8v40zm0-62.528V112h201.296c6.96 12.856 17.464 23.744 30.704 30.88v40.064L374.424 152H384v216H112v-48c0-10.416-6.712-19.216-16-22.528zM448 240v120c0 4.416-3.584 8-8 8h-40V152h20c9.896 0 19.32-1.96 28-5.416V240z" colortype="1" coriginal="rgb(51, 51, 51, 1)" awdzp="1" colorover="rgb(51, 51, 51, 1)" style="fill: rgb(51, 51, 51);" attrfill="block"></path><path fill="rgb(51, 51, 51, 1)" d="M56 320c-22.056 0-40 17.944-40 40s17.944 40 40 40 40-17.944 40-40-17.944-40-40-40zm0 64c-13.232 0-24-10.768-24-24s10.768-24 24-24 24 10.768 24 24-10.768 24-24 24zM336 48h112v16H336zM336 88h112v16H336z" colortype="1" coriginal="rgb(51, 51, 51, 1)" awdzp="1" colorover="rgb(51, 51, 51, 1)" style="fill: rgb(51, 51, 51);" attrfill="block"></path></g></svg>