<svg xmlns="http://www.w3.org/2000/svg" id="svgid7" width="512" height="512" x="0" y="0" xmlns:xlink="http://www.w3.org/1999/xlink" version="1.1" viewBox="0 0 64 64" xml:space="preserve" repair="1"><g><g><path fill="rgb(224, 81, 19)" d="M10 19h8v4h-8z" coriginal="rgb(240, 188, 94, 1)" colortype="0" awdzp="0" colorover="rgb(240, 188, 94, 1)" style="fill: rgb(224, 81, 19);"></path></g><g><path fill="rgb(224, 81, 19)" d="M28 9h8v4h-8z" coriginal="rgb(240, 188, 94, 1)" colortype="0" awdzp="0" colorover="rgb(240, 188, 94, 1)" style="fill: rgb(224, 81, 19);"></path></g><g><path fill="rgb(224, 81, 19)" d="M10 47h12v2H10z" coriginal="rgb(240, 188, 94, 1)" colortype="0" awdzp="0" colorover="rgb(240, 188, 94, 1)" style="fill: rgb(224, 81, 19);"></path></g><g><path fill="rgb(224, 81, 19)" d="M10 9h4v2h-4z" coriginal="rgb(240, 188, 94, 1)" colortype="0" awdzp="0" colorover="rgb(240, 188, 94, 1)" style="fill: rgb(224, 81, 19);"></path></g><g><path fill="rgb(224, 81, 19)" d="M10 29h4v2h-4z" coriginal="rgb(240, 188, 94, 1)" colortype="0" awdzp="0" colorover="rgb(240, 188, 94, 1)" style="fill: rgb(224, 81, 19);"></path></g><g><path fill="rgb(224, 81, 19)" d="M32 19h4v2h-4z" coriginal="rgb(240, 188, 94, 1)" colortype="0" awdzp="0" colorover="rgb(240, 188, 94, 1)" style="fill: rgb(224, 81, 19);"></path></g><g><g><path fill="rgb(224, 81, 19)" d="M23 45H11c-1.105 0-2-.895-2-2v-2c0-1.105.895-2 2-2h12c1.105 0 2 .895 2 2v2c0 1.105-.895 2-2 2z" coriginal="rgb(240, 188, 94, 1)" colortype="0" awdzp="0" colorover="rgb(240, 188, 94, 1)" style="fill: rgb(224, 81, 19);"></path></g></g><g><path d="M9 9h2v2H9zM13 9h2v2h-2zM35 9h2v4h-2zM31 9h2v4h-2zM27 9h2v4h-2zM9 29h2v2H9zM13 29h2v2h-2zM27 29h2v4h-2zM35 19h2v2h-2zM31 19h2v2h-2zM9 19h2v4H9zM13 19h2v4h-2zM17 19h2v4h-2zM9 47h2v2H9zM13 47h2v2h-2zM17 47h2v2h-2zM21 47h2v2h-2z"></path><path d="M45 27V4c0-1.654-1.346-3-3-3H4C2.346 1 1 2.346 1 4v46c0 1.654 1.346 3 3 3h24.9c2.952 5.917 9.05 10 16.1 10 9.925 0 18-8.075 18-18s-8.075-18-18-18zm15.708 15h-2.26c-1.898 0-3.58 1.14-4.287 2.904l-.18.45c-.398 1-1.353 1.646-2.43 1.646h-.695c-.404 0-.81-.096-1.17-.276l-1.237-.618C47.555 45.66 47 44.762 47 43.764V43.5c0-.7.272-1.358.767-1.853l.88-.88C49.52 39.894 50 38.733 50 37.5v-.264c0-1.76-.98-3.343-2.553-4.13C46.555 32.658 46 31.76 46 30.763V29.05c7.345.458 13.36 5.878 14.708 12.95zM3 50V4c0-.55.448-1 1-1h38c.552 0 1 .45 1 1v23.118c-.68.076-1.345.196-2 .346V5H5v46H4c-.552 0-1-.448-1-1zm27.044-15H7v-8h32v1.05c-3.678 1.307-6.816 3.76-8.956 6.95zM39 15H7V7h32v8zM7 17h32v8H7v-8zm0 34V37h21.9c-1.204 2.414-1.9 5.124-1.9 8 0 2.106.383 4.12 1.05 6H7zm22-6c0-1.747.29-3.425.81-5h1.975c.81 0 1.51.575 1.67 1.367l.13.657C33.93 43.75 35.457 45 37.215 45H38.3c.937 0 1.7.763 1.7 1.7v1c0 1.132.506 2.186 1.39 2.893l2.972 2.376c.406.324.64.81.64 1.33C45 56.34 46.66 58 48.7 58h.852c.57 0 1.1.283 1.416.758l.557.836C49.53 60.49 47.327 61 45 61c-8.822 0-16-7.178-16-16zm24.302 13.65l-.67-1.002C51.947 56.616 50.796 56 49.555 56H48.7c-.937 0-1.7-.763-1.7-1.7 0-1.132-.506-2.186-1.39-2.893L42.64 49.03c-.406-.324-.638-.808-.638-1.33v-1c0-2.04-1.66-3.7-3.7-3.7h-1.085c-.81 0-1.51-.575-1.67-1.367l-.13-.657C35.07 39.25 33.543 38 31.785 38h-1.15C33.1 32.966 38.12 29.417 44 29.05v1.715c0 1.76.98 3.342 2.553 4.13.892.446 1.447 1.343 1.447 2.34v.266c0 .7-.272 1.358-.767 1.853l-.88.88C45.48 41.106 45 42.267 45 43.5v.264c0 1.76.98 3.343 2.553 4.13l1.236.62c.637.317 1.35.486 2.064.486h.696c1.9 0 3.582-1.14 4.288-2.904l.18-.45c.4-1 1.355-1.646 2.43-1.646h2.5c.022.332.052.662.052 1 0 5.78-3.09 10.84-7.698 13.65z"></path></g></g></svg>