<svg xmlns="http://www.w3.org/2000/svg" id="svgid2" width="512" height="512" x="0" y="0" xmlns:xlink="http://www.w3.org/1999/xlink" version="1.1" viewBox="0 0 64 64" xml:space="preserve" repair="1"><g><path d="M44 1H6C3.243 1 1 3.243 1 6v52c0 2.757 2.243 5 5 5h39v-2H13V33h3.2l11-12H47v5.447h2V6c0-2.757-2.243-5-5-5zm3 5v5H22.8L13 21.69V3h31c1.654 0 3 1.346 3 3zM11 31H3v-6h8v6zM6 3h5v20H3V6c0-1.654 1.346-3 3-3zm5 58H6c-1.654 0-3-1.346-3-3V33h8v28zm15.32-42l-11 12H13v-6.35L23.68 13H47v6H26.32z"></path><g><path fill="rgb(224, 81, 19)" d="M44 25c-10.477 0-19 8.523-19 19s8.523 19 19 19 19-8.523 19-19-8.523-19-19-19zm0 23c-2.21 0-4-1.79-4-4s1.79-4 4-4 4 1.79 4 4-1.79 4-4 4z" coriginal="rgb(240, 188, 94, 1)" colortype="0" awdzp="0" colorover="rgb(240, 188, 94, 1)" style="fill: rgb(224, 81, 19);"></path></g><g><path d="M29.152 46.142C29.052 45.437 29 44.716 29 44h2c0 .622.044 1.247.13 1.858l-1.978.284z"></path></g><g><path d="M44 59c-6.588 0-12.5-4.406-14.38-10.715l1.918-.57C33.165 53.182 38.29 57 44 57v2z"></path></g><g><path d="M44 53c-4.962 0-9-4.037-9-9s4.038-9 9-9 9 4.037 9 9-4.038 9-9 9zm0-16c-3.86 0-7 3.14-7 7s3.14 7 7 7 7-3.14 7-7-3.14-7-7-7z"></path></g><g><path d="M44 49c-2.757 0-5-2.243-5-5s2.243-5 5-5 5 2.243 5 5-2.243 5-5 5zm0-8c-1.654 0-3 1.346-3 3s1.346 3 3 3 3-1.346 3-3-1.346-3-3-3z"></path></g></g></svg>