<svg xmlns="http://www.w3.org/2000/svg" id="svgid6" x="0" y="0" xmlns:xlink="http://www.w3.org/1999/xlink" version="1.1" viewBox="0 0 496 496" xml:space="preserve" repair="1"><g><path fill="rgb(224, 81, 19)" d="M202.744 212.568l-75.856 248.264L80 496l.352-42.336 86.376-282.688 15.296 4.672zM313.976 175.648l15.296-4.672L416 454.808V496l-46.888-35.168-.76-2.496-75.096-245.768z" coriginal="rgb(249, 186, 72, 1)" colortype="0" awdzp="0" colorover="rgb(249, 186, 72, 1)" style="fill: rgb(224, 81, 19);"></path></g><g><path fill="rgb(51, 51, 51, 1)" d="M387.896 401.912l10.768 11.84c4.056-3.688 8.04-7.584 11.848-11.6l-11.608-11.016c-3.536 3.728-7.24 7.36-11.008 10.776zM349.936 48.52c-9.472-4.84-19.376-9.048-29.44-12.488l-5.168 15.144c9.336 3.192 18.528 7.096 27.328 11.592l7.28-14.248zM444.808 315.496l15.144 5.2c3.464-10.088 6.208-20.496 8.168-30.936l-15.72-2.952c-1.832 9.68-4.376 19.336-7.592 28.688zM470.936 226.056l-15.92 1.544c.656 6.712.984 13.568.984 20.416.008 3.12-.064 6.208-.192 9.288l15.984.704c.144-3.328.216-6.672.208-10.008 0-7.344-.36-14.728-1.064-21.944zM417.768 368.2l13.048 9.264c6.168-8.688 11.752-17.88 16.592-27.344l-14.232-7.296c-4.504 8.776-9.688 17.32-15.408 25.376zM441.648 135.352c-5.344-9.168-11.416-18.048-18.04-26.4l-12.528 9.936c6.152 7.76 11.784 16.008 16.744 24.52l13.824-8.056zM450.032 198.328l15.544-3.8c-2.528-10.352-5.84-20.6-9.84-30.464l-14.832 6c3.712 9.16 6.784 18.672 9.128 28.264zM402.008 85.368c-7.728-7.312-16.048-14.136-24.728-20.272l-9.232 13.064c8.056 5.704 15.784 12.04 22.96 18.832l11-11.624zM124.144 434.632c4.616 3.064 9.368 5.976 14.136 8.656l7.84-13.936c-4.424-2.496-8.832-5.2-13.136-8.048l-8.84 13.328zM247.984 456c-4.752.048-10.152-.168-15.224-.544l-1.168 15.952c5.36.4 10.776.592 16.096.592 5.264.104 11.152-.184 16.616-.584l-1.16-15.952c-4.976.36-10.072.536-15.16.536zM293.216 451.064l3.472 15.624c10.672-2.376 21.216-5.544 31.344-9.44l-5.736-14.936c-9.392 3.608-19.176 6.552-29.08 8.752zM167.872 457.216c10.168 3.904 20.712 7.08 31.344 9.448l3.472-15.624c-9.856-2.184-19.648-5.144-29.08-8.76l-5.736 14.936zM349.88 429.352l7.84 13.936c4.768-2.68 9.512-5.592 14.136-8.656l-8.84-13.328c-4.296 2.848-8.712 5.552-13.136 8.048zM55.184 169.848l-14.832-6.016c-3.992 9.832-7.312 20.072-9.864 30.424l15.528 3.832c2.384-9.6 5.464-19.104 9.168-28.24zM40 248c0-6.92.336-13.864 1.008-20.64l-15.92-1.576C24.368 233.088 24 240.56 24 248c0 3.264.072 6.504.208 9.744l15.984-.688c-.12-3-.192-6.024-.192-9.056zM128.144 78.032l-9.232-13.08c-8.696 6.144-17.016 12.96-24.744 20.256l11 11.624c7.16-6.776 14.896-13.104 22.976-18.8zM54.472 135.152l13.816 8.08c4.968-8.504 10.616-16.76 16.784-24.504l-12.528-9.952c-6.648 8.336-12.72 17.216-18.072 26.376zM180.904 51.096l-5.16-15.144c-10.064 3.424-19.976 7.616-29.472 12.464l7.28 14.248c8.816-4.496 18.016-8.392 27.352-11.568zM48.48 349.904c4.848 9.48 10.424 18.68 16.576 27.36l13.048-9.248c-5.704-8.056-10.88-16.6-15.376-25.392l-14.248 7.28zM43.568 286.568l-15.72 2.952c1.96 10.464 4.696 20.864 8.136 30.936l15.144-5.168c-3.192-9.344-5.736-19.008-7.56-28.72zM85.488 402.16c3.816 4.016 7.8 7.912 11.848 11.6l10.768-11.84c-3.768-3.424-7.472-7.048-11.008-10.776L85.488 402.16zM280 72V42.624c2.128.328 4.24.552 6.368.944l2.92-15.736c-3.288-.608-6.568-1-9.856-1.456C276.76 11.416 263.72 0 248 0s-28.76 11.416-31.432 26.376c-3.288.464-6.568.848-9.856 1.456l2.92 15.736c2.128-.392 4.24-.616 6.368-.944V72c-35.288 0-64 28.712-64 64 0 23.64 12.92 44.28 32.032 55.36 0 .216-.032.424-.032.64 0 35.288 28.712 64 64 64s64-28.712 64-64c0-.216-.032-.424-.032-.64C331.08 180.28 344 159.64 344 136c0-35.288-28.712-64-64-64zm-48-40c0-8.824 7.176-16 16-16s16 7.176 16 16v42.104c-5.68 1.472-11.048 3.68-16 6.552-4.952-2.88-10.32-5.08-16-6.552V32zm31.584 98c-5-1.256-10.2-2-15.584-2s-10.584.744-15.584 2c1.472-11.736 7.2-22.144 15.584-29.672 8.384 7.528 14.112 17.936 15.584 29.672zM248 171.68c-7.328-6.584-12.64-15.352-14.84-25.304 4.68-1.528 9.656-2.376 14.84-2.376 5.184 0 10.16.848 14.84 2.376-2.2 9.952-7.512 18.72-14.84 25.304zm29.352-17.576c8.704 6.752 15.024 16.408 17.488 27.52-4.68 1.528-9.656 2.376-14.84 2.376-6.384 0-12.472-1.28-18.056-3.552 7.088-7.328 12.44-16.32 15.408-26.344zm-43.296 26.344C228.472 182.72 222.384 184 216 184c-5.184 0-10.16-.848-14.84-2.376 2.464-11.112 8.784-20.768 17.488-27.52 2.968 10.024 8.32 19.016 15.408 26.344zM168 136c0-26.472 21.528-48 48-48 6.384 0 12.472 1.28 18.056 3.552C222.904 103.08 216 118.736 216 136c0 .216.032.424.032.64-14.032 8.136-24.696 21.408-29.384 37.256C175.328 165.112 168 151.408 168 136zm80 104c-24.432 0-44.616-18.36-47.584-42 5 1.256 10.2 2 15.584 2 11.664 0 22.576-3.184 32-8.656 9.424 5.472 20.336 8.656 32 8.656 5.384 0 10.584-.744 15.584-2-2.968 23.64-23.152 42-47.584 42zm61.352-66.104c-4.688-15.848-15.352-29.12-29.384-37.256 0-.216.032-.424.032-.64 0-17.264-6.904-32.92-18.056-44.448C267.528 89.28 273.616 88 280 88c26.472 0 48 21.528 48 48 0 15.408-7.328 29.112-18.648 37.896zM160 312h176v16H160z" coriginal="rgb(51, 51, 51, 1)" colortype="1" awdzp="1" colorover="rgb(51, 51, 51, 1)" style="fill: rgb(51, 51, 51);" attrfill="block"></path></g></svg>