<svg xmlns="http://www.w3.org/2000/svg" id="svgid21" x="0" y="0" xmlns:xlink="http://www.w3.org/1999/xlink" version="1.1" viewBox="0 0 496 496" xml:space="preserve" repair="1"><path fill="rgb(224, 81, 19)" d="M16 368L218.72 15.736l138.56 80-73.64 127.552z" coriginal="rgb(249, 186, 72, 1)" colortype="0" awdzp="0" colorover="rgb(249, 186, 72, 1)" style="fill: rgb(224, 81, 19);"></path><g><path fill="rgb(51, 51, 51, 1)" d="M378.56 336l101.704-58.72-79.984-138.536L16 358.776V16h128v129.576l16-27.8V0H0v416c0 44.112 35.888 80 80 80h416V336H378.56zm79.848-64.576L346.56 336H87.992l306.4-175.448 64.016 110.872zM16 368l.064.12c-.016.024-.04.056-.064.088V368zm464 112H80c-35.288 0-64-28.712-64-64s28.712-64 64-64h400v128z" coriginal="rgb(51, 51, 51, 1)" colortype="1" awdzp="1" colorover="rgb(51, 51, 51, 1)" style="fill: rgb(51, 51, 51);" attrfill="block"></path><path fill="rgb(51, 51, 51, 1)" d="M40 416c0 22.056 17.944 40 40 40s40-17.944 40-40-17.944-40-40-40-40 17.944-40 40zm64 0c0 13.232-10.768 24-24 24s-24-10.768-24-24 10.768-24 24-24 24 10.768 24 24zM176 440h272v16H176zM136 440h24v16h-24z" colortype="1" coriginal="rgb(51, 51, 51, 1)" awdzp="1" colorover="rgb(51, 51, 51, 1)" style="fill: rgb(51, 51, 51);" attrfill="block"></path></g></svg>