<svg xmlns="http://www.w3.org/2000/svg" id="svgid5" x="0" y="0" xmlns:xlink="http://www.w3.org/1999/xlink" version="1.1" viewBox="0 0 496 496" xml:space="preserve" repair="1"><path fill="rgb(224, 81, 19)" d="M384 216c0-80.224-69.456-144.224-151.52-135.136-61.352 6.792-111.344 55.736-119.296 116.952-5.832 44.856 10.272 86.032 39.008 114.536C167.12 327.152 176 346.976 176 368h144v-.032c0-20.704 8.368-40.504 23.168-54.992C368.344 288.328 384 254.024 384 216z" coriginal="rgb(249, 186, 72, 1)" colortype="0" awdzp="0" colorover="rgb(249, 186, 72, 1)" style="fill: rgb(224, 81, 19);"></path><g><path fill="rgb(51, 51, 51, 1)" d="M344 388c0-15.44-12.56-28-28-28H180c-15.44 0-28 12.56-28 28 0 7.84 3.256 14.912 8.464 20-5.208 5.088-8.464 12.16-8.464 20s3.256 14.912 8.464 20c-5.208 5.088-8.464 12.16-8.464 20 0 15.44 12.56 28 28 28h136c15.44 0 28-12.56 28-28 0-7.84-3.256-14.912-8.464-20 5.208-5.088 8.464-12.16 8.464-20s-3.256-14.912-8.464-20c5.208-5.088 8.464-12.16 8.464-20zm-16 80c0 6.616-5.384 12-12 12H180c-6.616 0-12-5.384-12-12s5.384-12 12-12h136c6.616 0 12 5.384 12 12zm0-40c0 6.616-5.384 12-12 12H180c-6.616 0-12-5.384-12-12s5.384-12 12-12h136c6.616 0 12 5.384 12 12zm-148-28c-6.616 0-12-5.384-12-12s5.384-12 12-12h136c6.616 0 12 5.384 12 12s-5.384 12-12 12H180zM472 48V0h-48v16H72V0H24v48h48V32h120.128c-81.04 23.624-140.944 97.232-143.952 185.08C34.32 220.592 24 233.064 24 248c0 17.648 14.352 32 32 32s32-14.352 32-32c0-14.808-10.152-27.176-23.824-30.808C67.776 118.88 148.824 40 248 40s180.224 78.88 183.824 177.192C418.152 220.824 408 233.192 408 248c0 17.648 14.352 32 32 32s32-14.352 32-32c0-14.936-10.32-27.408-24.176-30.92C444.816 129.232 384.912 55.624 303.872 32H424v16h48zM40 32V16h16v16H40zm32 216c0 8.824-7.176 16-16 16s-16-7.176-16-16 7.176-16 16-16 16 7.176 16 16zm384 0c0 8.824-7.176 16-16 16s-16-7.176-16-16 7.176-16 16-16 16 7.176 16 16zm0-232v16h-16V16h16z" coriginal="rgb(51, 51, 51, 1)" colortype="1" awdzp="1" colorover="rgb(51, 51, 51, 1)" style="fill: rgb(51, 51, 51);" attrfill="block"></path><path fill="rgb(51, 51, 51, 1)" d="M200 240c-13.232 0-24 10.768-24 24s10.768 24 24 24 24-10.768 24-24v-8h48v8c0 13.232 10.768 24 24 24s24-10.768 24-24-10.768-24-24-24h-8v-48h8c13.232 0 24-10.768 24-24s-10.768-24-24-24-24 10.768-24 24v8h-48v-8c0-13.232-10.768-24-24-24s-24 10.768-24 24 10.768 24 24 24h8v48h-8zm8 24c0 4.416-3.584 8-8 8s-8-3.584-8-8 3.584-8 8-8h8v8zm80-96c0-4.416 3.584-8 8-8s8 3.584 8 8-3.584 8-8 8h-8v-8zm0 88h8c4.416 0 8 3.584 8 8s-3.584 8-8 8-8-3.584-8-8v-8zm-64-64h48v48h-48v-48zm-24-16c-4.416 0-8-3.584-8-8s3.584-8 8-8 8 3.584 8 8v8h-8z" colortype="1" coriginal="rgb(51, 51, 51, 1)" awdzp="1" colorover="rgb(51, 51, 51, 1)" style="fill: rgb(51, 51, 51);" attrfill="block"></path></g></svg>