<svg xmlns="http://www.w3.org/2000/svg" id="svgid20" width="512" height="512" x="0" y="0" xmlns:xlink="http://www.w3.org/1999/xlink" version="1.1" viewBox="0 0 64 64" xml:space="preserve" repair="1"><g><g><path fill="rgb(224, 81, 19)" d="M49 38h10v8H49z" coriginal="rgb(240, 188, 94, 1)" colortype="0" awdzp="0" colorover="rgb(240, 188, 94, 1)" style="fill: rgb(224, 81, 19);"></path></g><g><path fill="rgb(224, 81, 19)" d="M5 38h10v8H5z" coriginal="rgb(240, 188, 94, 1)" colortype="0" awdzp="0" colorover="rgb(240, 188, 94, 1)" style="fill: rgb(224, 81, 19);"></path></g><path d="M58 17h-6.4v2H58c1.654 0 3 1.346 3 3v27H3V22c0-1.654 1.346-3 3-3h6.4v-2H6c-2.757 0-5 2.243-5 5v30c0 2.757 2.243 5 5 5h13v4h-4v2h34v-2h-4v-4h13c2.757 0 5-2.243 5-5V22c0-2.757-2.243-5-5-5zM43 61H21v-4h22v4zm15-6H6c-1.654 0-3-1.346-3-3v-1h58v1c0 1.654-1.346 3-3 3z"></path><g><g><path fill="rgb(224, 81, 19)" d="M32 43c-11.58 0-21-9.42-21-21S20.42 1 32 1s21 9.42 21 21-9.42 21-21 21z" coriginal="rgb(240, 188, 94, 1)" colortype="0" awdzp="0" colorover="rgb(240, 188, 94, 1)" style="fill: rgb(224, 81, 19);"></path></g></g><g><path d="M38.625 30.366l-1.25-1.562 9.024-7.22-9.025-7.218 1.25-1.562 10.976 8.78z"></path></g><g><path d="M25.375 30.366L14.4 21.586l10.975-8.782 1.25 1.562-9.024 7.22 9.025 7.218z"></path></g><g><path d="M27.514 31.68l7.08-20.83 1.893.643-7.08 20.83z"></path></g><g><path d="M5 45h10v2H5z"></path></g><g><path d="M5 41h10v2H5z"></path></g><g><path d="M5 37h10v2H5z"></path></g><g><path d="M49 45h10v2H49z"></path></g><g><path d="M49 41h10v2H49z"></path></g><g><path d="M49 37h10v2H49z"></path></g></g></svg>