<svg xmlns="http://www.w3.org/2000/svg" id="svgid20" x="0" y="0" xmlns:xlink="http://www.w3.org/1999/xlink" version="1.1" viewBox="0 0 496 496" xml:space="preserve" repair="1"><path fill="rgb(224, 81, 19)" d="M178.736 287.952l-7.96-34.568-13.512-57.744L248 168.12l90.736 27.52-13.528 57.824-7.944 34.496L248 352.8z" coriginal="rgb(249, 186, 72, 1)" colortype="0" awdzp="0" colorover="rgb(249, 186, 72, 1)" style="fill: rgb(224, 81, 19);"></path><g><path fill="rgb(51, 51, 51, 1)" d="M248 0C111.248 0 0 111.248 0 248s111.248 248 248 248 248-111.248 248-248S384.752 0 248 0zm8.752 479.776l6.176-10.688-6.928-4v-2.152h-3.72l-3.208-1.848-1.064 1.848H248l-1.064-1.848-3.208 1.848H240v2.152l-6.928 4 6.176 10.688C115.368 475.152 16 372.984 16 248c0-39.096 9.76-75.936 26.912-108.28l6.16 10.664 6.92-3.992 1.856 1.072 1.856-3.216 3.216-1.856-1.072-1.848H64v-3.72l1.848-3.224L64 132.536v-8H51.728C92.856 59.392 165.44 16 248 16s155.144 43.392 196.272 108.528H432v8l-1.848 1.072 1.848 3.208v3.72h2.144l-1.072 1.848 3.216 1.856 1.856 3.216 1.856-1.072 6.92 3.992 6.16-10.664C470.24 172.064 480 208.904 480 248c0 124.984-99.368 227.152-223.248 231.776z" coriginal="rgb(51, 51, 51, 1)" colortype="1" awdzp="1" colorover="rgb(51, 51, 51, 1)" style="fill: rgb(51, 51, 51);" attrfill="block"></path><path fill="rgb(51, 51, 51, 1)" d="M196.728 374.198l-13.856 8-16.724-28.965 13.856-8zM96.374 200.33l-13.856 8-16.724-28.965 13.856-8zM129.832 258.278l-13.856 8-16.724-28.965 13.856-8zM230.19 432.124l-13.856 8-16.723-28.966 13.857-8zM164.36 124.528h33.464v16H164.36zM97.456 124.528h33.456v16H97.456zM298.16 124.528h33.456v16H298.16zM365.088 124.528h33.464v16h-33.464zM296.392 411.073l-16.72 28.97-13.858-8 16.72-28.968zM430.204 179.338l-16.72 28.97-13.858-8 16.72-28.968zM396.737 237.28l-16.72 28.968-13.858-7.998 16.72-28.97zM329.804 353.146l-16.72 28.97-13.858-8 16.72-28.968zM345.072 294.808l-9.912-5.736-8.016 13.84 9.928 5.752-4.36 7.552 13.856 8 16.728-28.968-13.856-8zM240 400.16h16v31.384h-16zM120.23 165.022l-8.002 13.855-27.19-15.706 8.004-13.854zM335.13 289.086l-8.01 13.85-13.85-8.012 8.01-13.85zM182.74 294.868l-13.846 8.018-8.017-13.847 13.846-8.018zM168.856 302.904l-8.016-13.84-9.912 5.736-4.36-7.552-13.856 8 16.728 28.968 13.856-8-4.368-7.56zM410.993 163.13l-27.19 15.706-8.002-13.854 27.19-15.707zM356.584 194.568l-8-13.856-13.848 8L248 238.808l-86.736-50.096-13.848-8-8 13.856 13.848 8L240 252.664V368.8h16V252.664l86.736-50.088 13.848-8.008zM248 248v-.136.136zM240 152.16h16v16h-16zM240 152h16v-11.472h8.728v-16h-33.456v16H240z" colortype="1" coriginal="rgb(51, 51, 51, 1)" awdzp="1" colorover="rgb(51, 51, 51, 1)" style="fill: rgb(51, 51, 51);" attrfill="block"></path></g></svg>