<svg xmlns="http://www.w3.org/2000/svg" id="svgid19" x="0" y="0" version="1.1" xmlns:xlink="http://www.w3.org/1999/xlink" viewBox="0 0 281.251 281.251" xml:space="preserve" repair="1"><g><g><circle cx="140.626" cy="140.625" r="65.625" fill="rgb(224, 81, 19)" coriginal="rgb(249, 186, 72, 1)" colortype="0" awdzp="0" colorover="rgb(178, 219, 191)" style="fill: rgb(224, 81, 19);"></circle><path fill="rgb(51, 51, 51, 1)" d="M140.626 37.5C83.762 37.5 37.5 83.76 37.5 140.625S83.763 243.75 140.627 243.75 243.75 197.49 243.75 140.625 197.49 37.5 140.627 37.5zm0 196.875c-51.694 0-93.75-42.056-93.75-93.75s42.056-93.75 93.75-93.75 93.75 42.056 93.75 93.75-42.056 93.75-93.75 93.75zM135.94 0h9.374v32.813h-9.375zM99.697 6.003l9.055-2.427 8.492 31.693-9.056 2.425zM66.254 21.192l8.12-4.687 16.402 28.41-8.12 4.687z" coriginal="rgb(51, 51, 51, 1)" colortype="1" awdzp="1" colorover="rgb(51, 51, 51, 1)" style="fill: rgb(51, 51, 51);" attrfill="block"></path><path fill="rgb(51, 51, 51, 1)" d="M37.876 44.503l6.63-6.63 23.197 23.2-6.63 6.628zM16.496 74.37l4.687-8.12 28.41 16.404-4.687 8.118zM3.58 108.76l2.425-9.055 31.69 8.49-2.425 9.057zM0 135.938h32.813v9.375H0zM3.583 172.488l31.692-8.492 2.426 9.056-31.69 8.49zM16.493 206.877l28.41-16.403 4.687 8.12-28.41 16.402zM37.873 236.743l23.198-23.198 6.63 6.63-23.198 23.197zM66.252 260.056l16.403-28.41 8.12 4.687-16.404 28.41zM99.694 275.242l8.492-31.693 9.055 2.426-8.49 31.692zM135.94 248.438h9.374v32.813h-9.375zM164.003 245.965l9.056-2.426 8.49 31.69-9.055 2.427zM190.463 236.347l8.12-4.687 16.402 28.41-8.12 4.687zM213.544 220.178l6.63-6.63 23.197 23.2-6.628 6.628zM231.64 198.582l4.688-8.12 28.41 16.404-4.687 8.12zM243.55 173.07l2.427-9.056 31.69 8.49-2.426 9.057zM248.438 135.938h32.812v9.375h-32.812zM243.546 108.18l31.69-8.49 2.427 9.055-31.69 8.49zM231.65 82.668l28.41-16.403 4.686 8.12-28.41 16.402zM213.548 61.075l23.198-23.198 6.63 6.63-23.2 23.197zM190.464 44.91l16.403-28.41 8.118 4.687-16.403 28.41zM164 35.277l8.49-31.692 9.055 2.426-8.49 31.693zM119.454 15.764l9.294-1.225 2.448 18.582-9.294 1.224zM87.862 25.494l8.662-3.587 7.174 17.323-8.662 3.587zM59.857 43.067l7.433-5.702L78.7 52.24l-7.433 5.702zM37.362 67.296l5.702-7.433 14.875 11.41-5.703 7.433zM21.902 96.525l3.587-8.66 17.322 7.172-3.587 8.662zM14.536 128.75l1.227-9.294 18.584 2.453-1.228 9.294zM14.536 152.5l18.584-2.454 1.227 9.295-18.584 2.454zM21.907 184.723l17.323-7.174 3.587 8.66-17.324 7.174zM37.36 213.96l14.878-11.413 5.703 7.435-14.875 11.413zM59.866 238.178L71.28 223.3l7.433 5.705L67.3 243.88zM87.86 255.76l7.174-17.324 8.662 3.587-7.174 17.323zM119.458 265.493l2.454-18.584 9.294 1.226-2.454 18.584zM150.034 248.132l9.294-1.225 2.448 18.583-9.294 1.224zM177.55 242.022l8.662-3.587 7.174 17.323-8.662 3.587zM202.526 229.005l7.433-5.702 11.41 14.875-7.434 5.702zM223.29 209.978l5.702-7.433 14.875 11.41-5.702 7.433zM238.435 186.216l3.586-8.662 17.325 7.174-3.587 8.662zM246.912 159.344l1.227-9.295 18.583 2.453-1.228 9.294zM246.895 121.914l18.583-2.448 1.224 9.295-18.583 2.45zM238.435 95.036l17.323-7.174 3.587 8.66-17.323 7.175zM223.31 71.278l14.875-11.413 5.704 7.434-14.878 11.413zM202.54 52.238l11.413-14.877 7.435 5.705-11.413 14.876zM177.55 39.23l7.175-17.324 8.66 3.587-7.172 17.323zM150.052 33.117l2.454-18.584 9.294 1.227-2.453 18.584zM82.032 112.5h-4.687c-9.047 0-16.406 7.36-16.406 16.406s7.358 16.406 16.405 16.406h4.687c3.877 0 7.03 3.155 7.03 7.03s-3.154 7.032-7.03 7.032h-4.687c-3.877 0-7.03-3.155-7.03-7.03V150h-9.376v2.344c0 9.047 7.358 16.406 16.405 16.406h4.687c9.047 0 16.406-7.36 16.406-16.406s-7.36-16.406-16.406-16.406h-4.687c-3.877 0-7.03-3.155-7.03-7.03 0-3.878 3.154-7.032 7.03-7.032h4.687c3.877 0 7.03 3.155 7.03 7.03v2.345h9.376v-2.343c0-9.048-7.36-16.407-16.406-16.407zM121.876 112.5c-10.34 0-18.75 8.41-18.75 18.75v37.5h9.375V150h18.75v18.75h9.376v-37.5c0-10.34-8.41-18.75-18.75-18.75zm-9.375 28.125v-9.375c0-5.17 4.206-9.375 9.376-9.375s9.375 4.205 9.375 9.375v9.375H112.5zM159.376 112.5H150v56.25h28.126v-9.375h-18.75zM220.313 121.875V112.5H187.5v56.25h32.813v-9.375h-23.437v-14.062h23.437v-9.375h-23.437v-14.063z" colortype="1" coriginal="rgb(51, 51, 51, 1)" awdzp="1" colorover="rgb(51, 51, 51, 1)" style="fill: rgb(51, 51, 51);" attrfill="block"></path></g></g></svg>