<svg xmlns="http://www.w3.org/2000/svg" id="svgid8" x="0" y="0" xmlns:xlink="http://www.w3.org/1999/xlink" version="1.1" viewBox="0 0 488 488" xml:space="preserve" repair="1"><g><path fill="rgb(51, 51, 51, 1)" d="M256 0H144C64.6 0 0 64.6 0 144c0 41 17.448 79.856 48 107.216v90.568l67.968-38.84-7.936-13.888L64 314.208v-70.32l-2.824-2.4C32.472 217.08 16 181.536 16 144 16 73.424 73.424 16 144 16h112c70.576 0 128 57.424 128 128 0 9.04-1.024 18.28-3.032 27.464l15.624 3.424C398.848 164.584 400 154.192 400 144 400 64.6 335.4 0 256 0z" coriginal="rgb(51, 51, 51, 1)" colortype="1" awdzp="1" colorover="rgb(51, 51, 51, 1)" style="fill: rgb(51, 51, 51);" attrfill="block"></path><path fill="rgb(51, 51, 51, 1)" d="M72 64h256v16H72zM72 112h256v16H72zM72 160h184v16H72z" colortype="1" coriginal="rgb(51, 51, 51, 1)" awdzp="1" colorover="rgb(51, 51, 51, 1)" style="fill: rgb(51, 51, 51);" attrfill="block"></path></g><path fill="rgb(224, 81, 19)" d="M352 168H240c-75.112 0-136 60.888-136 136s60.888 136 136 136h112c.824 0 1.624-.112 2.448-.12L440 488v-80.408c29.336-24.944 48-62.064 48-103.592 0-75.112-60.888-136-136-136zm8 240H224v-20c0-37.552 30.448-68 68-68-33.136 0-60-26.864-60-60s26.864-60 60-60 60 26.864 60 60-26.864 60-60 60c37.552 0 68 30.448 68 68v20z" coriginal="rgb(249, 186, 72, 1)" colortype="0" awdzp="0" colorover="rgb(249, 186, 72, 1)" style="fill: rgb(224, 81, 19);"></path><g><path fill="rgb(51, 51, 51, 1)" d="M324.784 319.536C345.752 307.944 360 285.608 360 260c0-37.496-30.504-68-68-68s-68 30.504-68 68c0 25.608 14.248 47.944 35.216 59.536C233.704 331.808 216 357.84 216 388v28h152v-28c0-30.16-17.704-56.192-43.216-68.464zM240 260c0-28.672 23.328-52 52-52s52 23.328 52 52-23.328 52-52 52-52-23.328-52-52zm112 140H232v-12c0-33.088 26.912-60 60-60s60 26.912 60 60v12z" colortype="1" coriginal="rgb(51, 51, 51, 1)" awdzp="1" colorover="rgb(51, 51, 51, 1)" style="fill: rgb(51, 51, 51);" attrfill="block"></path><circle cx="272" cy="240" r="8" fill="rgb(51, 51, 51, 1)" colortype="1" coriginal="rgb(51, 51, 51, 1)" awdzp="1" colorover="rgb(51, 51, 51, 1)" style="fill: rgb(51, 51, 51);" attrfill="block"></circle><circle cx="312" cy="240" r="8" fill="rgb(51, 51, 51, 1)" colortype="1" coriginal="rgb(51, 51, 51, 1)" awdzp="1" colorover="rgb(51, 51, 51, 1)" style="fill: rgb(51, 51, 51);" attrfill="block"></circle><path fill="rgb(51, 51, 51, 1)" d="M317.44 267.176C311.28 275.328 302.008 280 292 280s-19.28-4.672-25.44-12.824l-12.768 9.64C263.008 289.008 276.928 296 292 296s28.992-6.992 38.2-19.176l-12.76-9.648z" colortype="1" coriginal="rgb(51, 51, 51, 1)" awdzp="1" colorover="rgb(51, 51, 51, 1)" style="fill: rgb(51, 51, 51);" attrfill="block"></path></g></svg>