<svg xmlns="http://www.w3.org/2000/svg" id="svgid10" x="0" y="0" version="1.1" xmlns:xlink="http://www.w3.org/1999/xlink" viewBox="0 0 290.625 290.625" xml:space="preserve" repair="1"><g><g><path fill="rgb(224, 81, 19)" d="M206.25 2.344H0v75h206.25S225 64.41 225 39.844s-18.75-37.5-18.75-37.5zm-9.375 46.875c-5.18 0-9.375-4.196-9.375-9.376s4.195-9.375 9.375-9.375 9.375 4.194 9.375 9.374-4.196 9.375-9.375 9.375z" coriginal="rgb(249, 186, 72, 1)" colortype="0" awdzp="0" colorover="rgb(178, 219, 191)" style="fill: rgb(224, 81, 19);"></path><path fill="rgb(51, 51, 51, 1)" d="M196.875 53.906c7.753 0 14.062-6.31 14.062-14.063s-6.31-14.063-14.062-14.063-14.062 6.31-14.062 14.063 6.31 14.063 14.062 14.063zm0-18.75c2.583 0 4.687 2.105 4.687 4.688s-2.105 4.688-4.687 4.688c-2.583 0-4.688-2.105-4.688-4.688 0-2.583 2.105-4.688 4.688-4.688z" coriginal="rgb(51, 51, 51, 1)" colortype="1" awdzp="1" colorover="rgb(51, 51, 51, 1)" style="fill: rgb(51, 51, 51);" attrfill="block"></path><path fill="rgb(51, 51, 51, 1)" d="M257.812 180.47H224.7l-1.875-28.126h9.206c32.312 0 58.595-26.283 58.595-58.594s-26.283-58.594-58.594-58.594H225v9.375h7.03c27.142 0 49.22 22.08 49.22 49.22s-22.078 49.22-49.22 49.22h-9.833l-2.19-32.814H89.363l-4.687 70.313H32.812C14.72 180.47 0 195.186 0 213.28v51.564h35.573c5.578 13.725 19.036 23.438 34.74 23.438s29.16-9.712 34.738-23.438h80.523c5.578 13.725 19.036 23.438 34.74 23.438s29.16-9.712 34.738-23.438h35.574V213.28c0-18.093-14.718-32.81-32.812-32.81zm-187.5 98.436c-15.51 0-28.125-12.614-28.125-28.125s12.614-28.124 28.125-28.124 28.125 12.614 28.125 28.125-12.614 28.126-28.125 28.126zm150 0c-15.51 0-28.125-12.614-28.125-28.125s12.614-28.124 28.125-28.124 28.125 12.614 28.125 28.125-12.614 28.126-28.125 28.126zm60.938-23.437h-23.76c.19-1.54.322-3.1.322-4.69 0-20.676-16.823-37.5-37.5-37.5s-37.5 16.824-37.5 37.5c0 1.59.13 3.15.323 4.69h-75.647c.192-1.54.323-3.1.323-4.69 0-20.676-16.822-37.5-37.5-37.5s-37.5 16.824-37.5 37.5c0 1.59.132 3.15.324 4.69H9.374v-42.19c0-12.922 10.515-23.437 23.438-23.437H93.45l4.687-70.313H211.24l4.688 70.313h41.883c12.924 0 23.438 10.514 23.438 23.438v42.19h.002z" colortype="1" coriginal="rgb(51, 51, 51, 1)" awdzp="1" colorover="rgb(51, 51, 51, 1)" style="fill: rgb(51, 51, 51);" attrfill="block"></path><path fill="rgb(51, 51, 51, 1)" d="M103.125 189.844H206.25V124.22H103.125v65.624zm9.375-56.25h84.375v46.875H112.5v-46.876zM35.156 67.968h4.687c9.047 0 16.406-7.36 16.406-16.406s-7.36-16.406-16.407-16.406h-4.687c-3.877 0-7.03-3.155-7.03-7.03s3.154-7.032 7.03-7.032h4.687c3.877 0 7.03 3.155 7.03 7.03v2.345h9.376v-2.345c0-9.047-7.36-16.406-16.407-16.406h-4.687c-9.047 0-16.406 7.358-16.406 16.405S26.11 44.53 35.156 44.53h4.687c3.877 0 7.03 3.156 7.03 7.032s-3.154 7.03-7.03 7.03h-4.687c-3.877 0-7.03-3.154-7.03-7.03v-2.344H18.75v2.344c0 9.047 7.36 16.406 16.406 16.406zM70.312 49.22h18.75v18.75h9.375v-37.5c0-10.342-8.41-18.75-18.75-18.75s-18.75 8.408-18.75 18.75v37.5h9.375V49.22zm9.375-28.126c5.17 0 9.375 4.205 9.375 9.375v9.374h-18.75V30.47c0-5.172 4.205-9.376 9.375-9.376zM135.937 58.594h-18.75V11.72h-9.375v56.248h28.125zM173.437 58.594h-18.75V44.53h18.75v-9.374h-18.75V21.094h18.75V11.72h-28.125v56.248h28.125z" colortype="1" coriginal="rgb(51, 51, 51, 1)" awdzp="1" colorover="rgb(51, 51, 51, 1)" style="fill: rgb(51, 51, 51);" attrfill="block"></path></g></g></svg>