<svg xmlns="http://www.w3.org/2000/svg" id="svgid8" x="0" y="0" xmlns:xlink="http://www.w3.org/1999/xlink" version="1.1" viewBox="0 0 496 496" xml:space="preserve" repair="1"><path fill="rgb(224, 81, 19)" d="M174.984 115.936C180.632 108.056 184 98.432 184 88c0-26.512-21.488-48-48-48S88 61.488 88 88c0 10.432 3.368 20.056 9.016 27.936L72 216l24-16 16 32 17.04-96.56c2.28.328 4.592.56 6.96.56s4.68-.232 6.96-.56L160 232l16-32 24 16-25.016-100.064z" coriginal="rgb(249, 186, 72, 1)" colortype="0" awdzp="0" style="fill: rgb(224, 81, 19);" colorover="rgba(249, 186, 72, 1)"></path><g><path fill="rgba(51, 51, 51, 1)" d="M136 144c30.872 0 56-25.128 56-56s-25.128-56-56-56-56 25.128-56 56 25.128 56 56 56zm0-96c22.056 0 40 17.944 40 40s-17.944 40-40 40-40-17.944-40-40 17.944-40 40-40z" coriginal="rgb(51, 51, 51, 1)" colortype="1" awdzp="1" style="fill: rgb(51, 51, 51);" colorover="rgba(51, 51, 51, 1)" attrfill="block"></path><path fill="rgba(51, 51, 51, 1)" d="M472 128c-6.168 0-11.744 2.408-16 6.24-4.256-3.84-9.832-6.24-16-6.24h-88v-27.464L251.312 0H0v496h352V224h16v272h48V224h24c6.168 0 11.744-2.408 16-6.24 4.256 3.84 9.832 6.24 16 6.24 13.232 0 24-10.768 24-24v-48c0-13.232-10.768-24-24-24zM256 27.296L324.808 96H256V27.296zM16 480V16h224v96h96v17.472c-2.992 1.064-5.688 2.688-8 4.768-4.256-3.84-9.832-6.24-16-6.24-13.232 0-24 10.768-24 24v48c0 13.232 10.768 24 24 24 6.168 0 11.744-2.408 16-6.24 2.312 2.08 5.008 3.704 8 4.768V480H16zm304-280c0 4.416-3.584 8-8 8s-8-3.584-8-8v-48c0-4.416 3.584-8 8-8s8 3.584 8 8v48zm80 280h-16V224h16v256zm40-272h-96c-4.416 0-8-3.584-8-8v-48c0-4.416 3.584-8 8-8h96c4.416 0 8 3.584 8 8v48c0 4.416-3.584 8-8 8zm40-8c0 4.416-3.584 8-8 8s-8-3.584-8-8v-48c0-4.416 3.584-8 8-8s8 3.584 8 8v48z" colortype="1" coriginal="rgb(51, 51, 51, 1)" awdzp="1" style="fill: rgb(51, 51, 51);" colorover="rgba(51, 51, 51, 1)" attrfill="block"></path><path fill="rgba(51, 51, 51, 1)" d="M40 280h272v16H40zM40 320h272v16H40zM40 360h272v16H40zM40 400h272v16H40zM40 440h272v16H40z" colortype="1" coriginal="rgb(51, 51, 51, 1)" awdzp="1" style="fill: rgb(51, 51, 51);" colorover="rgba(51, 51, 51, 1)" attrfill="block"></path></g></svg>