<svg xmlns="http://www.w3.org/2000/svg" id="svgid10" x="0" y="0" xmlns:xlink="http://www.w3.org/1999/xlink" version="1.1" viewBox="0 0 496 496" xml:space="preserve" repair="1"><g><path fill="rgba(51, 51, 51, 1)" d="M426.56 191.408L407 156.128l-14 7.752 11.848 21.376c-24.264-6.096-51.784-10.616-80.608-13.496-3.752-37.568-10.272-72.968-19.456-101.76l19.832 9.248 6.768-14.496-34.44-16.056C284.288 18.792 267.904 0 248 0c-40.936 0-67.008 79.304-76.24 171.744-4.824.48-9.672.936-14.408 1.504l1.92 15.888c3.632-.44 7.368-.776 11.056-1.16C168.792 207.784 168 227.992 168 248c0 20.04.8 40.288 2.336 60.12C76.56 298.424 16 272.128 16 248c0-10.024 10.984-18.92 20.2-24.616l-8.408-13.608C9.352 221.168 0 234.032 0 248c0 40.936 79.32 67.016 171.76 76.24C180.984 416.68 207.064 496 248 496c38.84 0 58.912-69.928 67.424-111.616l-15.672-3.2C287.496 441.208 267.184 480 248 480c-24.128 0-50.424-60.56-60.12-154.336C207.712 327.2 227.96 328 248 328l8.072-.04-.144-16L248 312c-21.648 0-42.248-.848-61.608-2.392C184.848 290.248 184 269.648 184 248c0-21.616.848-42.184 2.384-61.52C206.368 184.872 226.96 184 248 184c21.648 0 42.248.848 61.608 2.392C311.152 205.752 312 226.352 312 248l-.04 7.928 16 .144L328 248c0-20.04-.8-40.288-2.336-60.12 29.2 3.016 55.168 7.64 77.096 13.312l-23.328 16.24 9.144 13.128 33.968-23.648C458.984 218.808 480 233.784 480 248c0 19.184-38.792 39.496-98.816 51.744l3.2 15.672C426.072 306.912 496 286.848 496 248c0-24.192-27.712-43.192-69.44-56.592zM248 168c-20.496 0-40.576.832-60.12 2.328C197.576 76.552 223.872 16 248 16c11.448 0 23.384 13.64 33.808 37.976l-16.792 30.128 13.968 7.8 10.168-18.224c8.256 25.376 15 58.24 18.976 96.664C288.288 168.8 268.04 168 248 168z" coriginal="rgb(51, 51, 51, 1)" colortype="1" awdzp="1" style="fill: rgb(51, 51, 51);" colorover="rgba(51, 51, 51, 1)" attrfill="block"></path><path fill="rgba(51, 51, 51, 1)" d="M190.4 440.552c-.72-.72-1.6-1.36-2.56-1.76-1.512-.64-3.12-.8-4.64-.4-.552.08-1.04.24-1.512.4-.488.24-.96.488-1.36.72-.488.32-.88.64-1.2 1.04-.8.728-1.36 1.6-1.76 2.56-.4 1.04-.64 2.08-.64 3.128 0 1.04.24 2.08.64 3.04s.96 1.832 1.76 2.552c1.52 1.52 3.52 2.408 5.6 2.408 2.16 0 4.16-.88 5.68-2.408.72-.72 1.36-1.592 1.76-2.552s.56-2 .56-3.04c0-1.048-.168-2.088-.56-3.128-.408-.952-1.048-1.832-1.768-2.56zM95.832 390c-3.12 3.192-3.12 8.24 0 11.36 1.6 1.512 3.6 2.32 5.68 2.32 2 0 4.088-.808 5.68-2.4 3.128-3.128 3.048-8.168-.08-11.28-3.112-3.128-8.152-3.128-11.28 0z" colortype="1" coriginal="rgb(51, 51, 51, 1)" awdzp="1" style="fill: rgb(51, 51, 51);" colorover="rgba(51, 51, 51, 1)" attrfill="block"></path></g><path fill="rgb(224, 81, 19)" d="M96 272c-39.704 0-72-32.296-72-72s32.296-72 72-72 72 32.296 72 72-32.296 72-72 72z" coriginal="rgb(249, 186, 72, 1)" colortype="0" awdzp="0" style="fill: rgb(224, 81, 19);" colorover="rgba(249, 186, 72, 1)"></path><g><path fill="rgba(51, 51, 51, 1)" d="M75.44 364.4c-3.6 2.64-4.32 7.6-1.76 11.2 1.6 2.16 4 3.272 6.48 3.272 1.6 0 3.28-.48 4.72-1.592 3.6-2.56 4.32-7.6 1.768-11.128-2.648-3.6-7.688-4.392-11.208-1.752zM104 224H88c-4.416 0-8-3.584-8-8H64c0 13.232 10.768 24 24 24v8h16v-8c13.232 0 24-10.768 24-24s-10.768-24-24-24H88c-4.416 0-8-3.584-8-8s3.584-8 8-8h16c4.416 0 8 3.584 8 8h16c0-13.232-10.768-24-24-24v-8H88v8c-13.232 0-24 10.768-24 24s10.768 24 24 24h16c4.416 0 8 3.584 8 8s-3.584 8-8 8zM158.08 426.72v-.08c-4-1.92-8.8-.4-10.8 3.6-2 3.912-.408 8.72 3.592 10.72h-.08c1.2.552 2.4.872 3.6.872 2.96 0 5.76-1.592 7.2-4.4 2.008-3.92.408-8.792-3.512-10.712z" colortype="1" coriginal="rgb(51, 51, 51, 1)" awdzp="1" style="fill: rgb(51, 51, 51);" colorover="rgba(51, 51, 51, 1)" attrfill="block"></path></g><path fill="rgb(224, 81, 19)" d="M320 392c-39.704 0-72-32.296-72-72s32.296-72 72-72 72 32.296 72 72-32.296 72-72 72z" coriginal="rgb(249, 186, 72, 1)" colortype="0" awdzp="0" style="fill: rgb(224, 81, 19);" colorover="rgba(249, 186, 72, 1)"></path><g><path fill="rgba(51, 51, 51, 1)" d="M120 412.16c-2.64 3.52-1.84 8.56 1.76 11.128 1.44 1.04 3.04 1.512 4.72 1.512 2.488 0 4.96-1.12 6.488-3.28 2.552-3.592 1.76-8.64-1.84-11.192-3.616-2.568-8.576-1.776-11.128 1.832zM59.28 335.92c-3.92 2-5.52 6.872-3.448 10.8 1.36 2.72 4.24 4.32 7.128 4.32 1.192 0 2.48-.32 3.68-.88 3.832-2 5.44-6.872 3.44-10.8-2.08-3.92-6.888-5.44-10.8-3.44zM312 296h16c4.416 0 8 3.584 8 8h16c0-13.232-10.768-24-24-24v-8h-16v8c-13.232 0-24 10.768-24 24s10.768 24 24 24h16c4.416 0 8 3.584 8 8s-3.584 8-8 8h-16c-4.416 0-8-3.584-8-8h-16c0 13.232 10.768 24 24 24v8h16v-8c13.232 0 24-10.768 24-24s-10.768-24-24-24h-16c-4.416 0-8-3.584-8-8s3.584-8 8-8zM57.68 315.76c.4-.96.56-1.92.56-3.04 0-1.04-.168-2.08-.56-3.04s-1.04-1.84-1.76-2.56c-2.96-3.04-8.32-3.04-11.28 0-.808.72-1.36 1.6-1.768 2.56-.4.96-.632 2-.632 3.04 0 1.12.232 2.08.632 3.04.408 1.04.96 1.84 1.768 2.64.72.72 1.6 1.36 2.552 1.76.96.4 2 .56 3.048.56 1.12 0 2.16-.168 3.12-.56s1.832-1.04 2.56-1.76c.72-.8 1.36-1.6 1.76-2.64zM451.44 307.04c-2.24-2.24-5.832-2.96-8.72-1.76-1.04.4-1.92.96-2.64 1.76-.72.72-1.28 1.6-1.68 2.56-.48.952-.64 2-.64 3.04 0 1.12.168 2.16.56 3.12s1.04 1.84 1.76 2.56 1.6 1.36 2.64 1.76c.96.4 2 .56 3.04.56 2.08 0 4.168-.808 5.68-2.32.72-.72 1.28-1.6 1.68-2.56s.64-2 .64-3.12c0-1.04-.24-2.088-.64-3.04-.4-.96-.96-1.84-1.68-2.56zM388.64 390.16c-3.2 3.128-3.2 8.24-.088 11.36 1.6 1.6 3.6 2.408 5.688 2.408 2 0 4.08-.808 5.592-2.32 3.2-3.128 3.2-8.168.088-11.36-3.12-3.128-8.16-3.128-11.28-.088zM409.28 366.24c-2.64 3.592-1.84 8.552 1.76 11.192 1.36 1.04 3.04 1.6 4.72 1.6 2.4 0 4.88-1.2 6.4-3.28 2.64-3.6 1.84-8.56-1.68-11.2-3.52-2.632-8.56-1.832-11.2 1.688zM436.72 335.92c-3.92-2-8.72-.488-10.72 3.44h-.08c-2 3.92-.488 8.8 3.512 10.8 1.12.56 2.4.88 3.6.88 2.96 0 5.68-1.6 7.12-4.32 2.008-4 .488-8.8-3.432-10.8zM364.48 410.64c-3.6 2.552-4.4 7.512-1.832 11.12 1.512 2.168 4 3.36 6.48 3.36 1.6 0 3.28-.48 4.64-1.512 3.6-2.56 4.4-7.52 1.84-11.128-2.568-3.608-7.608-4.48-11.128-1.84zM337.36 426.96c-3.92 2-5.52 6.8-3.6 10.72 1.44 2.8 4.24 4.4 7.2 4.4 1.192 0 2.4-.24 3.592-.8 3.92-2 5.52-6.808 3.52-10.728-1.992-4-6.792-5.592-10.712-3.592zM316 440.8c-.4-.32-.808-.64-1.2-.96-.48-.32-.872-.552-1.36-.72-.48-.24-1.04-.4-1.512-.48-2.56-.56-5.368.32-7.2 2.16-1.52 1.52-2.4 3.6-2.4 5.68 0 2.168.872 4.168 2.4 5.68 1.44 1.52 3.52 2.32 5.6 2.32 2.16 0 4.16-.8 5.68-2.32 1.512-1.512 2.32-3.512 2.32-5.68 0-1.04-.168-2.08-.56-3.04s-1.048-1.84-1.768-2.64zM346.872 72.96c2.168 0 4.168-.808 5.68-2.32 1.52-1.52 2.32-3.52 2.32-5.68 0-2.088-.8-4.168-2.32-5.6-2.952-3.04-8.4-3.04-11.36 0-1.44 1.44-2.32 3.512-2.32 5.6 0 2.16.88 4.16 2.32 5.68 1.528 1.52 3.528 2.32 5.68 2.32zM369.04 88.72c1.44 1.12 3.12 1.68 4.8 1.68 2.408 0 4.808-1.12 6.408-3.12 2.632-3.52 2-8.56-1.52-11.28-3.52-2.64-8.56-2-11.2 1.512-2.72 3.52-2 8.56 1.52 11.28v-.072h-.008zM418.32 136.552c1.6 0 3.192-.48 4.552-1.44 3.6-2.56 4.488-7.512 2-11.12v-.08c-2.552-3.6-7.592-4.488-11.192-1.92-3.6 2.552-4.488 7.512-1.92 11.192 1.52 2.176 4 3.368 6.56 3.368zM397.832 111.76c2 0 4-.72 5.6-2.24 3.12-3.04 3.28-8.16.168-11.272-3.048-3.2-8.088-3.28-11.28-.24-3.2 3.04-3.28 8.16-.24 11.28 1.6 1.672 3.68 2.472 5.752 2.472zM434.72 164.24c1.2 0 2.4-.32 3.52-.88 3.912-1.92 5.592-6.72 3.592-10.72-1.912-3.92-6.72-5.6-10.64-3.6-4 1.92-5.68 6.72-3.68 10.72 1.36 2.792 4.248 4.48 7.208 4.48zM439.28 183.12c-.408.96-.64 2-.64 3.04s.232 2.088.64 3.04c.4.96.96 1.84 1.68 2.56.8.8 1.68 1.36 2.64 1.76.952.408 2 .64 3.04.64s2.08-.232 3.04-.64c.96-.4 1.832-.96 2.64-1.76 1.512-1.44 2.32-3.44 2.32-5.6 0-1.04-.168-2.08-.64-3.04-.4-1.04-.96-1.92-1.68-2.64-3.04-2.96-8.4-2.96-11.36 0-.72.712-1.28 1.6-1.68 2.64zM82 126.08c.96.4 2 .64 3.04.64 2.16 0 4.16-.88 5.68-2.4.72-.72 1.36-1.6 1.76-2.56s.56-2 .56-3.04c0-1.12-.168-2.08-.56-3.12-.4-.96-1.04-1.84-1.76-2.56-2.24-2.24-5.76-2.96-8.72-1.76-.96.4-1.84 1.04-2.64 1.76-.72.72-1.28 1.6-1.68 2.56-.4 1.04-.64 2.08-.64 3.12 0 2.08.88 4.08 2.32 5.6.8.8 1.68 1.36 2.64 1.76zM106.08 104c1.92 0 3.92-.72 5.44-2.168 3.2-3.04 3.36-8.08.32-11.36-2.96-3.192-8-3.36-11.28-.32v-.08c-3.192 3.04-3.36 8.08-.4 11.36 1.6 1.688 3.76 2.568 5.92 2.568zM156.8 68.96c1.2 0 2.4-.24 3.52-.808 4-1.912 5.6-6.72 3.68-10.72-1.92-3.92-6.72-5.6-10.64-3.68h-.08c-3.92 2-5.6 6.72-3.68 10.72 1.44 2.888 4.232 4.488 7.2 4.488zM130.16 84.552c1.52 0 3.128-.4 4.488-1.36 3.68-2.552 4.552-7.512 2.08-11.12-2.48-3.68-7.52-4.56-11.12-2.08-3.68 2.48-4.56 7.512-2.088 11.12 1.6 2.248 4.08 3.44 6.64 3.44zM185.6 57.512c2.08 0 4.08-.8 5.592-2.32 1.528-1.512 2.408-3.512 2.408-5.68 0-2.08-.88-4.16-2.408-5.68-2.952-2.96-8.32-2.96-11.272 0-1.52 1.52-2.32 3.6-2.32 5.68 0 2.168.8 4.168 2.32 5.68 1.52 1.528 3.52 2.32 5.68 2.32z" colortype="1" coriginal="rgb(51, 51, 51, 1)" awdzp="1" style="fill: rgb(51, 51, 51);" colorover="rgba(51, 51, 51, 1)" attrfill="block"></path></g></svg>