<svg xmlns="http://www.w3.org/2000/svg" id="svgid10" width="512" height="512" x="0" y="0" xmlns:xlink="http://www.w3.org/1999/xlink" version="1.1" viewBox="0 0 64 64" xml:space="preserve" repair="1"><g><path d="M61 18v31H3V22c0-1.654 1.346-3 3-3h26v-2H6c-2.757 0-5 2.243-5 5v30c0 2.757 2.243 5 5 5h13v4h-4v2h34v-2h-4v-4h13c2.757 0 5-2.243 5-5V18h-2zM43 61H21v-4h22v4zm15-6H6c-1.654 0-3-1.346-3-3v-1h58v1c0 1.654-1.346 3-3 3z"></path><g><path fill="rgb(224, 81, 19)" d="M13 24h19v20H13z" coriginal="rgb(240, 188, 94, 1)" colortype="0" awdzp="0" colorover="rgb(240, 188, 94, 1)" style="fill: rgb(224, 81, 19);"></path></g><g><path fill="rgb(224, 81, 19)" d="M60.54 13.46c-.32-1.235-.812-2.417-1.465-3.526l1.162-2.323-3.847-3.847-2.323 1.162c-1.11-.652-2.29-1.144-3.525-1.466L49.722 1H44.28l-.82 2.46c-1.234.32-2.416.812-3.525 1.465L37.61 3.763 33.763 7.61l1.162 2.323c-.652 1.11-1.144 2.29-1.466 3.525l-2.46.82v5.442l2.46.82c.32 1.234.812 2.416 1.465 3.525l-1.162 2.323 3.848 3.848 2.324-1.162c1.11.652 2.29 1.144 3.525 1.466l.82 2.46h5.44l.82-2.46c1.234-.32 2.416-.812 3.525-1.465l2.323 1.162 3.848-3.848-1.162-2.324c.652-1.11 1.144-2.29 1.466-3.525l2.46-.82v-5.44l-2.46-.82zM47 20c-1.657 0-3-1.343-3-3s1.343-3 3-3 3 1.343 3 3-1.343 3-3 3z" coriginal="rgb(240, 188, 94, 1)" colortype="0" awdzp="0" colorover="rgb(240, 188, 94, 1)" style="fill: rgb(224, 81, 19);"></path></g><g><path d="M47 27c-5.514 0-10-4.486-10-10S41.486 7 47 7s10 4.486 10 10-4.486 10-10 10zm0-18c-4.41 0-8 3.59-8 8s3.59 8 8 8 8-3.59 8-8-3.59-8-8-8z"></path></g><g><path d="M47 21c-2.206 0-4-1.794-4-4s1.794-4 4-4 4 1.794 4 4-1.794 4-4 4zm0-6c-1.103 0-2 .897-2 2s.897 2 2 2 2-.897 2-2-.897-2-2-2z"></path></g><g><path d="M11 36h-1c-1.654 0-3-1.346-3-3v-1c0-1.103-.897-2-2-2v-2c1.103 0 2-.897 2-2v-1c0-1.654 1.346-3 3-3h1v2h-1c-.55 0-1 .448-1 1v1c0 1.193-.525 2.267-1.357 3C8.475 29.733 9 30.807 9 32v1c0 .552.45 1 1 1h1v2z"></path></g><g><path d="M35 45h-1v-2h1c.55 0 1-.448 1-1v-1c0-1.193.525-2.267 1.357-3-.832-.733-1.357-1.807-1.357-3v-1c0-.552-.45-1-1-1h-1v-2h1c1.654 0 3 1.346 3 3v1c0 1.103.897 2 2 2v2c-1.103 0-2 .897-2 2v1c0 1.654-1.346 3-3 3z"></path></g><g><path d="M13 23h19v2H13z"></path></g><g><path d="M17 27h15v2H17z"></path></g><g><path d="M13 27h2v2h-2z"></path></g><g><path d="M13 31h19v2H13z"></path></g><g><path d="M13 35h19v2H13z"></path></g><g><path d="M30 39h2v2h-2z"></path></g><g><path d="M13 39h15v2H13z"></path></g><g><path d="M13 43h19v2H13z"></path></g></g></svg>