<svg xmlns="http://www.w3.org/2000/svg" id="svgid16" width="512" height="512" x="0" y="0" xmlns:xlink="http://www.w3.org/1999/xlink" version="1.1" viewBox="0 0 64 64" xml:space="preserve" repair="1"><g><path d="M1 1v56h21.1v-2H3V11h58v44H41.9v2H63V1H1zm2 8V3h58v6H3z"></path><path fill="rgb(224, 81, 19)" d="M32 63.054l-.316-.105C20.51 59.223 13 48.806 13 37.025V25h1c6.233 0 12.412-2.06 17.4-5.8l.6-.45.6.45C37.588 22.94 43.767 25 50 25h1v12.026c0 11.78-7.51 22.197-18.684 25.922l-.316.106z" coriginal="rgb(240, 188, 94, 1)" colortype="0" awdzp="0" colorover="rgb(240, 188, 94, 1)" style="fill: rgb(224, 81, 19);"></path><path d="M5 5h2v2H5zM9 5h2v2H9zM13 5h2v2h-2zM47 28.873l-.88-.105c-4.797-.576-9.497-2.227-13.592-4.774l-.528-.33-.528.33c-4.095 2.546-8.794 4.197-13.59 4.773l-.882.106v8.154c0 9.583 5.742 18.078 14.627 21.643l.373.15.373-.15C41.258 55.104 47 46.61 47 37.026v-8.153zm-2 8.153c0 8.626-5.09 16.29-13 19.633-7.91-3.346-13-11.008-13-19.634v-6.39c4.574-.67 9.04-2.257 13-4.623 3.96 2.366 8.426 3.953 13 4.622v6.39z"></path><path d="M27 35v3.184c-1.16.414-2 1.514-2 2.816v8c0 1.654 1.346 3 3 3h8c1.654 0 3-1.346 3-3v-8c0-1.302-.84-2.402-2-2.816V35c0-2.757-2.243-5-5-5s-5 2.243-5 5zm10 14c0 .55-.45 1-1 1h-8c-.55 0-1-.45-1-1v-8c0-.55.45-1 1-1h8c.55 0 1 .45 1 1v8zm-2-14v3h-6v-3c0-1.654 1.346-3 3-3s3 1.346 3 3z"></path><path d="M32 41c-1.654 0-3 1.346-3 3 0 1.302.84 2.402 2 2.816V49h2v-2.184c1.16-.414 2-1.514 2-2.816 0-1.654-1.346-3-3-3zm0 4c-.55 0-1-.45-1-1s.45-1 1-1 1 .45 1 1-.45 1-1 1zM5 13h28v2H5zM5 17h20v2H5zM5 21h12v2H5z"></path></g></svg>