<svg xmlns="http://www.w3.org/2000/svg" id="svgid11" width="512" height="512" x="0" y="0" xmlns:xlink="http://www.w3.org/1999/xlink" version="1.1" viewBox="0 0 64 64" xml:space="preserve" repair="1"><g><g><path fill="rgb(224, 81, 19)" d="M49 30H39v4h8v16H33v9h26V30z" coriginal="rgb(240, 188, 94, 1)" colortype="0" awdzp="0" colorover="rgb(240, 188, 94, 1)" style="fill: rgb(224, 81, 19);"></path></g><g><path d="M5 5h2v2H5zM9 5h2v2H9zM13 5h2v2h-2z"></path><path d="M57 25V1H1v50h28v12h34V25h-6zM55 3v6H3V3h52zM3 49V11h52v14H35.586L29 31.586V37H10c-2.757 0-5 2.243-5 5s2.243 5 5 5h19v2H3zm14-4v-2h18v2H17zm-7 0c-1.654 0-3-1.346-3-3s1.346-3 3-3h1v6h-1zm3-6h2v6h-2v-6zm24 .443l5.713 2.142c.172.065.287.23.287.415s-.115.35-.288.415L37 44.557v-5.114zM35 41H17v-2h18v2zm0-12.586V31h-2.586L35 28.414zM61 61H31V47h5.18l7.234-2.712C44.364 43.933 45 43.013 45 42s-.637-1.933-1.585-2.288L36.18 37H31v-4h6v-6h24v34z"></path><path d="M39 29h20v2H39zM39 33h20v2H39zM47 37h12v2H47zM47 41h12v2H47zM47 45h12v2H47zM33 49h26v2H33zM33 53h26v2H33zM57 57h2v2h-2zM33 57h22v2H33z"></path></g><g><g><path fill="rgb(224, 81, 19)" d="M27 23H5V13h22v10z" coriginal="rgb(240, 188, 94, 1)" colortype="0" awdzp="0" colorover="rgb(240, 188, 94, 1)" style="fill: rgb(224, 81, 19);"></path></g></g><g><g><path fill="rgb(224, 81, 19)" d="M27 35H5V25h22v10z" coriginal="rgb(240, 188, 94, 1)" colortype="0" awdzp="0" colorover="rgb(240, 188, 94, 1)" style="fill: rgb(224, 81, 19);"></path></g></g></g></svg>