<svg xmlns="http://www.w3.org/2000/svg" id="svgid4" x="0" y="0" xmlns:xlink="http://www.w3.org/1999/xlink" version="1.1" viewBox="0 0 496 496" xml:space="preserve" repair="1"><path fill="rgb(224, 81, 19)" d="M128.04 224H31.96l-2.2-1.784C10.84 206.928 0 184.248 0 160c0-44.112 35.888-80 80-80s80 35.888 80 80c0 24.248-10.84 46.928-29.76 62.216l-2.2 1.784z" coriginal="rgb(249, 186, 72, 1)" colortype="0" awdzp="0" colorover="rgb(249, 186, 72, 1)" style="fill: rgb(224, 81, 19);"></path><g><path fill="rgb(51, 51, 51, 1)" d="M61.536 168h36.936l5.72 25.736 15.624-3.472-12.528-56.384C104.424 121 93.2 112 80 112s-24.424 9-27.28 21.88l-12.528 56.384 15.624 3.472L61.536 168zM80 128c5.64 0 10.44 3.84 11.656 9.352L94.912 152H65.088l3.256-14.648C69.56 131.84 74.36 128 80 128z" coriginal="rgb(51, 51, 51, 1)" colortype="1" awdzp="1" colorover="rgb(51, 51, 51, 1)" style="fill: rgb(51, 51, 51);" attrfill="block"></path><path fill="rgb(51, 51, 51, 1)" d="M496 80c0-44.112-35.888-80-80-80s-80 35.888-80 80c0 17.584 5.76 34.288 16.104 48H336v24c0 13.232 10.768 24 24 24h48v11.36c0 3.72-2.528 6.92-6.152 7.792L97.84 267.52c-2.36.568-4.872.024-6.808-1.504S88 262.208 88 259.744V256h48c13.232 0 24-10.768 24-24v-24H0v24c0 13.232 10.768 24 24 24h48v3.744c0 7.392 3.328 14.256 9.128 18.832 4.296 3.392 9.496 5.168 14.824 5.168 1.864 0 3.752-.216 5.608-.664l129.864-30.92c-.248.784-.488 1.576-.624 2.408L190.552 496H305.44L265.2 254.576c-.608-3.656-2.352-6.832-4.784-9.312l145.136-34.552C416.416 208.128 424 198.52 424 187.36V176h48c13.232 0 24-10.768 24-24v-24h-16.104C490.24 114.288 496 97.584 496 80zM16 232v-8h128v8c0 4.416-3.584 8-8 8H24c-4.416 0-8-3.584-8-8zm270.552 248H209.44l37.136-222.8c.232-1.392 2.608-1.392 2.84 0L286.552 480zM352 80c0-35.288 28.712-64 64-64s64 28.712 64 64c0 18.488-7.872 35.824-21.712 48h-84.576C359.872 115.824 352 98.488 352 80zm128 72c0 4.416-3.584 8-8 8H360c-4.416 0-8-3.584-8-8v-8h128v8z" colortype="1" coriginal="rgb(51, 51, 51, 1)" awdzp="1" colorover="rgb(51, 51, 51, 1)" style="fill: rgb(51, 51, 51);" attrfill="block"></path><path fill="rgb(51, 51, 51, 1)" d="M424 32h-40v80h40c13.232 0 24-10.768 24-24 0-6.144-2.32-11.752-6.128-16C445.68 67.752 448 62.144 448 56c0-13.232-10.768-24-24-24zm0 64h-24V80h24c4.416 0 8 3.584 8 8s-3.584 8-8 8zm0-32h-24V48h24c4.416 0 8 3.584 8 8s-3.584 8-8 8z" colortype="1" coriginal="rgb(51, 51, 51, 1)" awdzp="1" colorover="rgb(51, 51, 51, 1)" style="fill: rgb(51, 51, 51);" attrfill="block"></path></g></svg>