<svg xmlns="http://www.w3.org/2000/svg" id="svgid16" x="0" y="0" version="1.1" xmlns:xlink="http://www.w3.org/1999/xlink" viewBox="0 0 290.626 290.626" xml:space="preserve" repair="1"><g><g><circle cx="248.437" cy="42.188" r="42.188" fill="rgb(224, 81, 19)" coriginal="rgb(249, 186, 72, 1)" colortype="0" awdzp="0" colorover="rgb(178, 219, 191)" style="fill: rgb(224, 81, 19);"></circle><path fill="rgb(51, 51, 51, 1)" d="M276.563 229.688h-4.688v-51.563H252.68l-4.688-46.875H206.25V89.063H18.75V229.69h-4.687C6.31 229.687 0 235.996 0 243.75s6.31 14.063 14.062 14.063H42.185c0 18.09 14.72 32.813 32.812 32.813s32.812-14.723 32.812-32.813h89.062c0 18.09 14.72 32.813 32.812 32.813s32.812-14.723 32.812-32.813H276.56c7.752 0 14.06-6.31 14.06-14.063s-6.305-14.062-14.057-14.062zm-37.055-89.063l3.75 37.5H206.25v-37.5h33.258zM196.875 187.5v18.75H28.125v-65.625h168.75V187.5zM28.125 98.438h168.75v32.813H28.125V98.44zm-9.375 150h-4.687c-2.583 0-4.687-2.1-4.687-4.688s2.105-4.688 4.687-4.688h4.687v9.376zM75 281.25c-12.923 0-23.437-10.514-23.437-23.438S62.077 234.375 75 234.375s23.437 10.514 23.437 23.438S87.924 281.25 75 281.25zm31.43-32.812C102.384 234.9 89.83 225 75 225s-27.384 9.9-31.43 23.438H28.125v-32.813h168.75v32.813H106.43zm123.257 32.812c-12.923 0-23.437-10.514-23.437-23.438s10.514-23.438 23.437-23.438c12.923 0 23.437 10.514 23.437 23.438s-10.513 23.438-23.437 23.438zm32.813-32.812h-1.383C257.072 234.9 244.52 225 229.687 225c-9.178 0-17.475 3.797-23.437 9.895V187.5h56.25v60.938zm14.063 0h-4.688v-9.375h4.688c2.583 0 4.687 2.1 4.687 4.688s-2.105 4.688-4.687 4.688z" coriginal="rgb(51, 51, 51, 1)" colortype="1" awdzp="1" colorover="rgb(51, 51, 51, 1)" style="fill: rgb(51, 51, 51);" attrfill="block"></path><path fill="rgb(51, 51, 51, 1)" d="M75 243.75c-7.753 0-14.062 6.31-14.062 14.063 0 7.753 6.31 14.063 14.062 14.063s14.062-6.31 14.062-14.063c0-7.754-6.31-14.063-14.062-14.063zm0 18.75c-2.583 0-4.687-2.1-4.687-4.688s2.105-4.688 4.687-4.688 4.687 2.1 4.687 4.688c0 2.588-2.104 4.688-4.687 4.688zM229.687 243.75c-7.753 0-14.062 6.31-14.062 14.063 0 7.753 6.31 14.063 14.062 14.063 7.753 0 14.062-6.31 14.062-14.063 0-7.754-6.31-14.063-14.063-14.063zm0 18.75c-2.583 0-4.688-2.1-4.688-4.688s2.104-4.688 4.687-4.688 4.687 2.1 4.687 4.688c0 2.588-2.104 4.688-4.687 4.688zM23.438 9.375h173.437v9.375H23.438zM4.688 32.813h187.5v9.375H4.688zM23.438 56.25h173.437v9.375H23.438zM253.125 56.25h-9.375c-2.583 0-4.688-2.1-4.688-4.688h-9.375c0 7.753 6.31 14.063 14.062 14.063v4.688h9.374v-4.688c7.753 0 14.062-6.31 14.062-14.063S260.878 37.5 253.126 37.5h-9.376c-2.583 0-4.688-2.1-4.688-4.688s2.105-4.688 4.688-4.688h9.375c2.583 0 4.688 2.1 4.688 4.688h9.375c0-7.753-6.31-14.063-14.062-14.063v-4.69h-9.375v4.69c-7.752 0-14.06 6.308-14.06 14.062s6.308 14.063 14.06 14.063h9.376c2.583 0 4.688 2.1 4.688 4.688s-2.106 4.687-4.69 4.687z" colortype="1" coriginal="rgb(51, 51, 51, 1)" awdzp="1" colorover="rgb(51, 51, 51, 1)" style="fill: rgb(51, 51, 51);" attrfill="block"></path></g></g></svg>