<svg xmlns="http://www.w3.org/2000/svg" id="svgid8" x="0" y="0" version="1.1" xmlns:xlink="http://www.w3.org/1999/xlink" viewBox="0 0 290.625 290.625" xml:space="preserve" repair="1"><g><g><path fill="rgb(224, 81, 19)" d="M112.5 206.25H18.75v-79.688h93.75v79.688z" coriginal="rgb(249, 186, 72, 1)" colortype="0" awdzp="0" colorover="rgb(178, 219, 191)" style="fill: rgb(224, 81, 19);"></path><path fill="rgb(51, 51, 51, 1)" d="M243.75 126.563v-9.375c0-12.923-10.514-23.438-23.437-23.438H187.5V32.812h-46.875v-9.375C140.625 10.514 130.11 0 117.188 0H70.313C57.39 0 46.875 10.514 46.875 23.438v9.375H0V262.5h103.125v28.125h187.5V126.562H243.75zm28.823 9.375L254.995 150l17.578 14.063H243.27c-2.18-10.683-11.643-18.75-22.963-18.75h-46.87c-11.316 0-20.784 8.067-22.964 18.75H121.17L138.75 150l-17.578-14.063h151.401zM281.25 141v17.995L270.004 150l11.246-9zm-37.5 55.875c0 2.583-2.105 4.688-4.688 4.688-2.583 0-4.687-2.105-4.687-4.688s2.105-4.688 4.687-4.688c2.583 0 4.688 2.105 4.688 4.688zm-10.238-32.812h-73.275c1.94-5.442 7.097-9.375 13.2-9.375h46.875c6.103 0 11.26 3.932 13.2 9.375zm-74.137 32.812c0 2.583-2.105 4.688-4.687 4.688-2.583 0-4.688-2.105-4.688-4.688s2.105-4.688 4.688-4.688c2.582 0 4.687 2.105 4.687 4.688zM123.745 150l-11.245 9v-18l11.245 9zm35.63-23.437v-9.375c0-7.753 6.31-14.063 14.062-14.063h4.687v23.438h-18.75zm60.937-23.438c7.753 0 14.062 6.31 14.062 14.063v9.375H187.5v-23.438h32.812zM178.125 65.25l-11.245-9 11.245-9v18zM56.25 23.438c0-7.753 6.31-14.063 14.062-14.063h46.875c7.753 0 14.062 6.31 14.062 14.063v9.375h-75v-9.375zm0 18.75H169.448L151.87 56.25l17.578 14.063h-29.302c-2.18-10.683-11.644-18.75-22.964-18.75h-46.87c-11.316 0-20.784 8.067-22.964 18.75H18.052L35.63 56.25 18.052 42.188H56.25zm84.375 60.937c0 2.583-2.105 4.688-4.688 4.688s-4.687-2.105-4.687-4.688 2.105-4.688 4.687-4.688 4.688 2.105 4.688 4.688zm-10.237-32.812H57.113c1.94-5.442 7.097-9.375 13.2-9.375h46.875c6.103 0 11.26 3.932 13.2 9.375zM56.25 103.125c0 2.583-2.105 4.688-4.687 4.688s-4.687-2.105-4.687-4.688 2.105-4.688 4.687-4.688 4.687 2.105 4.687 4.688zM20.62 56.25l-11.244 9v-18l11.245 9zM9.376 253.125V79.688h37.5v10.238c-5.442 1.94-9.375 7.097-9.375 13.2 0 7.753 6.31 14.063 14.062 14.063s14.062-6.31 14.062-14.064c0-6.103-3.933-11.26-9.375-13.2V79.688h75v10.238c-5.443 1.94-9.376 7.097-9.376 13.2 0 7.753 6.31 14.063 14.062 14.063S150 110.877 150 103.124c0-6.103-3.933-11.26-9.375-13.2V79.688h37.5V93.75h-4.687c-12.923 0-23.437 10.514-23.437 23.438v9.375h-46.874V253.127H9.376zM281.25 281.25H112.5V173.438H150v10.237c-5.442 1.94-9.375 7.097-9.375 13.2 0 7.753 6.31 14.063 14.062 14.063s14.062-6.31 14.062-14.063c0-6.103-3.934-11.26-9.376-13.2v-10.237h75v10.237c-5.442 1.94-9.375 7.097-9.375 13.2 0 7.753 6.308 14.063 14.06 14.063 7.754 0 14.063-6.31 14.063-14.063 0-6.103-3.933-11.26-9.375-13.2v-10.237h37.5V281.25h.002z" coriginal="rgb(51, 51, 51, 1)" colortype="1" awdzp="1" colorover="rgb(51, 51, 51, 1)" style="fill: rgb(51, 51, 51);" attrfill="block"></path></g></g></svg>