<svg xmlns="http://www.w3.org/2000/svg" id="svgid9" width="512" height="512" x="0" y="0" xmlns:xlink="http://www.w3.org/1999/xlink" version="1.1" viewBox="0 0 64 64" xml:space="preserve" repair="1"><g><g><path fill="rgb(224, 81, 19)" d="M32 24c-1.375 0-2.686.264-3.9.725l.912 5.852.282.23C30.074 30.3 31 30 32 30c.98 0 1.885.292 2.656.778l.332-.202.91-5.852C34.687 24.264 33.376 24 32 24z" coriginal="rgb(240, 188, 94, 1)" colortype="0" awdzp="0" colorover="rgb(240, 188, 94, 1)" style="fill: rgb(224, 81, 19);"></path></g><g><path fill="rgb(224, 81, 19)" d="M21 35c0 1.375.264 2.686.725 3.9l5.852-.912.23-.282C27.3 36.926 27 36 27 35c0-.98.292-1.885.778-2.656l-.202-.332-5.852-.91C21.264 32.313 21 33.624 21 35z" coriginal="rgb(240, 188, 94, 1)" colortype="0" awdzp="0" colorover="rgb(240, 188, 94, 1)" style="fill: rgb(224, 81, 19);"></path></g><g><path fill="rgb(224, 81, 19)" d="M32 46c1.375 0 2.686-.264 3.9-.725l-.912-5.852-.282-.23C33.926 39.7 33 40 32 40c-.98 0-1.885-.292-2.656-.778l-.332.202-.91 5.852c1.212.46 2.523.724 3.898.724z" coriginal="rgb(240, 188, 94, 1)" colortype="0" awdzp="0" colorover="rgb(240, 188, 94, 1)" style="fill: rgb(224, 81, 19);"></path></g><g><path fill="rgb(224, 81, 19)" d="M46 34h13v12H46z" coriginal="rgb(240, 188, 94, 1)" colortype="0" awdzp="0" colorover="rgb(240, 188, 94, 1)" style="fill: rgb(224, 81, 19);"></path></g><g><path fill="rgb(224, 81, 19)" d="M5 34h13v12H5z" coriginal="rgb(240, 188, 94, 1)" colortype="0" awdzp="0" colorover="rgb(240, 188, 94, 1)" style="fill: rgb(224, 81, 19);"></path></g><g><path fill="rgb(224, 81, 19)" d="M43 35c0-1.375-.264-2.686-.725-3.9l-5.852.912-.23.282C36.7 33.074 37 34 37 35c0 .98-.292 1.885-.778 2.656l.202.332 5.852.91c.46-1.212.724-2.523.724-3.898z" coriginal="rgb(240, 188, 94, 1)" colortype="0" awdzp="0" colorover="rgb(240, 188, 94, 1)" style="fill: rgb(224, 81, 19);"></path></g><g><path d="M21.838 21l-3.154 1.05.633 1.898L22.162 23h2.91c.09.643.275 1.268.54 1.86C22.246 26.987 20 30.732 20 35c0 6.617 5.383 12 12 12s12-5.383 12-12c0-4.268-2.246-8.013-5.612-10.14.265-.593.45-1.217.54-1.86h2.91l2.846.95.633-1.898L42.162 21H39v-2h2.838l2.846.95.633-1.898L42.162 17H39v-2h2.838l2.846.95.633-1.898L42.162 13H39v-2h-2v-1c0-.965-.287-1.858-.763-2.623l2.953-1.97-1.242-3.724-1.896.633.758 2.275-1.962 1.31c-.81-.564-1.79-.9-2.848-.9s-2.038.336-2.848.9L27.19 4.592l.758-2.275-1.896-.633-1.242 3.724 2.953 1.97C27.287 8.14 27 9.034 27 10v1h-2v2h-3.162l-3.154 1.05.633 1.898L22.162 15H25v2h-3.162l-3.154 1.05.633 1.898L22.162 19H25v2h-3.162zM27 22v-7.586l4 4v4.637c-1.268.106-2.482.403-3.608.873C27.14 23.317 27 22.667 27 22zm8.586-9L32 16.586 28.414 13h7.172zM42 35c0 5.514-4.486 10-10 10s-10-4.486-10-10 4.486-10 10-10 10 4.486 10 10zm-9-11.95v-4.636l4-4V22c0 .667-.14 1.317-.392 1.923-1.126-.47-2.34-.767-3.608-.872zM29 10c0-1.654 1.346-3 3-3s3 1.346 3 3v1h-6v-1z"></path><path d="M26 35c0 3.31 2.69 6 6 6s6-2.69 6-6-2.69-6-6-6-6 2.69-6 6zm10 0c0 2.206-1.794 4-4 4s-4-1.794-4-4 1.794-4 4-4 4 1.794 4 4z"></path><path d="M58 17H47v2h11c1.654 0 3 1.346 3 3v27H3V22c0-1.654 1.346-3 3-3h11v-2H6c-2.757 0-5 2.243-5 5v30c0 2.757 2.243 5 5 5h13v4h-4v2h34v-2h-4v-4h13c2.757 0 5-2.243 5-5V22c0-2.757-2.243-5-5-5zM43 61H21v-4h22v4zm15-6H6c-1.654 0-3-1.346-3-3v-1h58v1c0 1.654-1.346 3-3 3z"></path><path d="M46 45h13v2H46zM46 41h13v2H46zM46 37h13v2H46zM46 33h13v2H46zM5 45h13v2H5zM5 41h13v2H5zM5 37h13v2H5zM5 33h13v2H5z"></path></g></g></svg>