<svg xmlns="http://www.w3.org/2000/svg" id="svgid8" width="512" height="512" x="0" y="0" xmlns:xlink="http://www.w3.org/1999/xlink" version="1.1" viewBox="0 0 64 64" xml:space="preserve" repair="1"><g><g><path fill="rgb(224, 81, 19)" d="M45 16h14v30H45z" coriginal="rgb(240, 188, 94, 1)" colortype="0" awdzp="0" colorover="rgb(240, 188, 94, 1)" style="fill: rgb(224, 81, 19);"></path></g><g><path fill="rgb(224, 81, 19)" d="M11 14h28v20H11z" coriginal="rgb(240, 188, 94, 1)" colortype="0" awdzp="0" colorover="rgb(240, 188, 94, 1)" style="fill: rgb(224, 81, 19);"></path></g><g><g><path fill="rgb(224, 81, 19)" d="M39 63H1V39h38v24z" coriginal="rgb(240, 188, 94, 1)" colortype="0" awdzp="0" colorover="rgb(240, 188, 94, 1)" style="fill: rgb(224, 81, 19);"></path></g></g><g><path d="M7 1v38h2V11h32v40h-2v2h24V1H7zm2 2h52v6H9V3zm34 48V11h18v40H43z"></path><path d="M11 5h2v2h-2zM15 5h2v2h-2zM19 5h2v2h-2zM24.24 44.65L29.684 51l-5.442 6.35 1.52 1.3L32.316 51l-6.558-7.65zM14.24 43.35L7.684 51l6.558 7.65 1.52-1.3L10.316 51l5.442-6.35zM17.032 58.758l3.996-16 1.94.483-3.997 16.002zM45 15h14v2H45zM45 21h14v2H45zM45 27h14v2H45zM45 33h14v2H45zM45 39h14v2H45zM45 45h14v2H45zM11 13h28v2H11zM11 17h28v2H11zM11 21h13v2H11zM26 21h13v2H26zM11 25h28v2H11zM11 29h28v2H11zM11 33h28v2H11z"></path></g></g></svg>