<svg xmlns="http://www.w3.org/2000/svg" id="svgid20" x="0" y="0" version="1.1" xmlns:xlink="http://www.w3.org/1999/xlink" viewBox="0 0 290.626 290.626" xml:space="preserve" repair="1"><g><g><path fill="rgb(224, 81, 19)" d="M107.814 271.875H42.19v-4.688c0-10.34-8.41-18.75-18.75-18.75h-4.69V121.875h112.5v126.563h-4.687c-10.34 0-18.75 8.41-18.75 18.75v4.687z" coriginal="rgb(249, 186, 72, 1)" colortype="0" awdzp="0" colorover="rgb(178, 219, 191)" style="fill: rgb(224, 81, 19);"></path><path fill="rgb(51, 51, 51, 1)" d="M182.813 131.25c7.753 0 14.062-6.31 14.062-14.063V14.063C196.875 6.31 190.565 0 182.813 0H14.063C6.312 0 .002 6.31.002 14.063v276.563h150V131.25h32.813zm4.688-84.375H9.377V32.813H187.5v14.062zM14.065 9.375h168.75c2.587 0 4.687 2.105 4.687 4.688v9.375H9.377v-9.375c0-2.583 2.1-4.688 4.688-4.688zM9.376 56.25H187.5v60.938c0 2.583-2.1 4.688-4.686 4.688H14.064c-2.587 0-4.687-2.105-4.687-4.688V56.25zm98.438 103.125c0 18.094-14.723 32.813-32.812 32.813s-32.812-14.72-32.812-32.813c0-11.555 6.136-22.205 16.03-28.125h33.563c9.895 5.92 16.03 16.57 16.03 28.125zm32.812 121.875H9.376V130.387c1.472.525 3.037.863 4.687.863h29.634c-6.853 7.63-10.884 17.57-10.884 28.125 0 23.26 18.923 42.188 42.187 42.188s42.187-18.928 42.187-42.188c0-10.556-4.03-20.494-10.884-28.125h34.322v150z" coriginal="rgb(51, 51, 51, 1)" colortype="1" awdzp="1" colorover="rgb(51, 51, 51, 1)" style="fill: rgb(51, 51, 51);" attrfill="block"></path><path fill="rgb(51, 51, 51, 1)" d="M140.626 112.5c3.314 0 6.534-.928 9.39-2.602 2.765 1.612 5.933 2.602 9.36 2.602 10.34 0 18.75-8.41 18.75-18.75S169.716 75 159.376 75c-3.427 0-6.595.99-9.36 2.602-2.85-1.673-6.076-2.602-9.39-2.602-10.34 0-18.75 8.41-18.75 18.75s8.41 18.75 18.75 18.75zm28.125-18.75c0 5.17-4.204 9.375-9.374 9.375S150 98.92 150 93.75s4.206-9.375 9.376-9.375 9.375 4.205 9.375 9.375zm-28.124-9.375c.82 0 1.622.15 2.41.37-1.492 2.68-2.41 5.723-2.41 9.005s.92 6.323 2.41 9.005c-.788.22-1.59.37-2.41.37-5.17 0-9.375-4.205-9.375-9.375s4.206-9.375 9.376-9.375zM225 159.375c-36.186 0-65.624 29.438-65.624 65.625s29.437 65.625 65.625 65.625 65.626-29.438 65.626-65.625-29.438-65.625-65.625-65.625zm0 121.875c-31.016 0-56.25-25.233-56.25-56.25s25.234-56.25 56.25-56.25 56.25 25.233 56.25 56.25-25.232 56.25-56.25 56.25z" colortype="1" coriginal="rgb(51, 51, 51, 1)" awdzp="1" colorover="rgb(51, 51, 51, 1)" style="fill: rgb(51, 51, 51);" attrfill="block"></path><path fill="rgb(51, 51, 51, 1)" d="M232.032 187.5h-2.344v-9.375h-9.375v9.375h-2.344c-11.63 0-21.095 9.464-21.095 21.094s9.464 21.094 21.094 21.094h14.06c6.465 0 11.72 5.26 11.72 11.72s-5.255 11.718-11.72 11.718h-14.06c-6.465 0-11.72-5.26-11.72-11.72v-2.343h-9.375v2.344c0 11.63 9.464 21.094 21.094 21.094h2.343v9.376h9.375V262.5h2.344c11.63 0 21.094-9.464 21.094-21.094s-9.464-21.094-21.094-21.094H217.97c-6.464 0-11.72-5.26-11.72-11.72s5.256-11.718 11.72-11.718h14.062c6.464 0 11.72 5.26 11.72 11.72v2.343h9.374v-2.344c0-11.63-9.465-21.093-21.094-21.093zM220.313 23.438v98.437h9.375V23.438l5.625 7.5 7.5-5.625L225 1.56 207.19 25.314l7.5 5.625zM220.313 131.25h9.375v14.063h-9.375zM267.188 51.563v84.375h9.375V51.563l5.625 7.5 7.5-5.625-17.813-23.752-17.812 23.752 7.5 5.625zM267.188 145.313h9.375v14.063h-9.375z" colortype="1" coriginal="rgb(51, 51, 51, 1)" awdzp="1" colorover="rgb(51, 51, 51, 1)" style="fill: rgb(51, 51, 51);" attrfill="block"></path></g></g></svg>