<svg xmlns="http://www.w3.org/2000/svg" id="svgid9" x="0" y="0" version="1.1" xmlns:xlink="http://www.w3.org/1999/xlink" viewBox="0 0 290.625 290.625" xml:space="preserve" repair="1"><g><g><path fill="rgb(224, 81, 19)" d="M28.125 89.063V0h262.5v168.75h-225z" coriginal="rgb(249, 186, 72, 1)" colortype="0" awdzp="0" colorover="rgb(178, 219, 191)" style="fill: rgb(224, 81, 19);"></path><path fill="rgb(51, 51, 51, 1)" d="M271.875 140.625H59.41l-6.042-14.063h45.07V79.688h-37.5V51.563h28.125v18.75h9.375V42.188H51.563v46.875h37.5v28.125H60.938v-18.75h-9.375v23.916L35.98 86.077C31.91 76.585 20.87 72.17 11.35 76.243 1.86 80.325-2.55 91.373 1.524 100.87L37.8 185.33c.005.68.13 1.33.202 1.992L16.754 236.8C6.9 241.176 0 251.04 0 262.5c0 15.51 12.614 28.125 28.125 28.125S56.25 278.01 56.25 262.5c0-5.077-1.373-9.83-3.736-13.945l6.22-14.48 6.22 14.48c-2.362 4.116-3.736 8.87-3.736 13.945 0 15.51 12.614 28.125 28.125 28.125s28.125-12.614 28.125-28.125c0-11.46-6.9-21.323-16.753-25.702l-21.02-48.938c.118-.895.273-1.78.273-2.705 0-.145-.042-.28-.042-.43l6.862-15.976H76.584l-1.383 3.215c-1.16-1.44-2.48-2.737-3.974-3.83L63.44 150h208.435v-9.375zM10.14 97.167c-2.04-4.748.163-10.27 4.91-12.314 4.76-2.048 10.27.17 12.315 4.917l31.927 74.334c-.14-.005-.272-.042-.413-.042-6.723 0-12.648 3.22-16.515 8.128L10.14 97.167zM28.124 281.25c-10.34 0-18.75-8.41-18.75-18.75s8.41-18.75 18.75-18.75 18.75 8.41 18.75 18.75-8.41 18.75-18.75 18.75zm17.602-40.65c-4.823-3.886-10.94-6.225-17.602-6.225-.042 0-.084.005-.13.005l15.158-35.302c.352.398.68.816 1.06 1.186l9.416 21.923-7.903 18.413zm62.372 21.9c0 10.34-8.41 18.75-18.75 18.75S70.6 272.84 70.6 262.5s8.408-18.75 18.75-18.75 18.75 8.41 18.75 18.75zm-33.69-63.192l15.066 35.072c-.042 0-.084-.005-.13-.005-6.662 0-12.784 2.34-17.603 6.225l-14.84-34.547c.66.06 1.297.197 1.977.197 6.164 0 11.672-2.71 15.53-6.942zm-3.81-14.152c0 6.464-5.256 11.72-11.72 11.72s-11.72-5.256-11.72-11.72 5.256-11.72 11.72-11.72 11.72 5.256 11.72 11.72zM46.875 18.75h206.25v9.375H46.875zM262.5 18.75h9.375v9.375H262.5z" coriginal="rgb(51, 51, 51, 1)" colortype="1" awdzp="1" colorover="rgb(51, 51, 51, 1)" style="fill: rgb(51, 51, 51);" attrfill="block"></path><path fill="rgb(51, 51, 51, 1)" d="M154.687 126.563V42.188h-46.875v84.375h9.375v-37.5h28.125v37.5h9.375zm-37.5-46.875V51.563h28.126v28.125h-28.125zM164.062 42.188v84.375h46.875v-9.375h-37.5v-75zM267.187 51.563v-9.375h-46.875v84.375h46.875v-9.375h-37.5V89.063h37.5v-9.375h-37.5V51.563z" colortype="1" coriginal="rgb(51, 51, 51, 1)" awdzp="1" colorover="rgb(51, 51, 51, 1)" style="fill: rgb(51, 51, 51);" attrfill="block"></path></g></g></svg>