<svg xmlns="http://www.w3.org/2000/svg" id="svgid15" x="0" y="0" version="1.1" xmlns:xlink="http://www.w3.org/1999/xlink" viewBox="0 0 291.47 291.47" xml:space="preserve" repair="1"><g><g><g><g><path fill="rgb(224, 81, 19)" d="M65.625 61.36V14.485c0-7.753 6.31-14.063 14.062-14.063h93.75c7.753 0 14.062 6.31 14.062 14.063v56.25c0 7.753-6.31 14.063-14.063 14.063h-70.312V61.36h-37.5z" coriginal="rgb(249, 186, 72, 1)" colortype="0" awdzp="0" colorover="rgb(178, 219, 191)" style="fill: rgb(224, 81, 19);"></path></g></g><g><path fill="rgb(51, 51, 51, 1)" d="M131.25 117.61c0-7.753-6.31-14.063-14.062-14.063H93.75V89.485h4.687c5.17 0 9.375-4.205 9.375-9.375V56.673H23.437V80.11c0 5.17 4.205 9.375 9.375 9.375H37.5v14.063H14.062C6.31 103.548 0 109.858 0 117.61v159.375c0 7.753 6.31 14.063 14.062 14.063h103.125c7.753 0 14.062-6.31 14.062-14.063v-60.938H150v-9.375h-18.75v-9.375H150v-9.375h-18.75v-9.375H150v-9.375h-18.75v-9.375H150v-9.375h-18.75V117.61zm-98.438-37.5V66.048h65.625V80.11H32.812zm14.063 9.375h37.5v14.063h-37.5V89.485zm-32.813 23.438h103.125c2.583 0 4.687 2.105 4.687 4.688v9.376H9.374v-9.375c0-2.583 2.106-4.687 4.688-4.687zM9.375 276.985v-14.063H55.22c-2.25 2.494-3.657 5.76-3.657 9.375s1.41 6.88 3.656 9.375H14.06c-2.582 0-4.687-2.104-4.687-4.687zm56.25 0c-2.583 0-4.687-2.105-4.687-4.688 0-2.583 2.105-4.688 4.687-4.688 2.583 0 4.687 2.104 4.687 4.687s-2.104 4.688-4.687 4.688zm51.562 4.688H76.03c2.25-2.494 3.657-5.76 3.657-9.375s-1.41-6.88-3.656-9.375h45.845v14.063c0 2.582-2.105 4.687-4.688 4.687zm4.688-112.5H51.562v9.375h70.312v9.375H60.937v9.375h60.937v9.375H70.312v9.375h51.562v37.5H9.374V136.36h112.5v14.063H60.938v9.375h60.937v9.375zM98.437 51.985c3.427 0 6.595-.99 9.36-2.602 2.856 1.673 6.076 2.602 9.39 2.602 10.34 0 18.75-8.41 18.75-18.75s-8.41-18.75-18.75-18.75c-3.314 0-6.534.928-9.39 2.602-2.765-1.612-5.933-2.602-9.36-2.602-10.34 0-18.75 8.41-18.75 18.75s8.41 18.75 18.75 18.75zm28.125-18.75c0 5.17-4.205 9.375-9.375 9.375-.89 0-1.678-.15-2.414-.356 1.49-2.686 2.414-5.733 2.414-9.02s-.923-6.332-2.414-9.018c.736-.206 1.523-.356 2.414-.356 5.17 0 9.375 4.205 9.375 9.375zM98.437 23.86c5.17 0 9.375 4.205 9.375 9.375s-4.205 9.375-9.375 9.375-9.375-4.205-9.375-9.375 4.205-9.375 9.375-9.375zM196.875 173.86h70.312v9.375h-70.312zM201.562 192.61H262.5v9.375H201.56z" coriginal="rgb(51, 51, 51, 1)" colortype="1" awdzp="1" colorover="rgb(51, 51, 51, 1)" style="fill: rgb(51, 51, 51);" attrfill="block"></path><path fill="rgb(51, 51, 51, 1)" d="M271.875 225.423H180.47c-1.295 0-2.345-1.05-2.345-2.344 0-1.295 1.05-2.345 2.344-2.345H280.533l10.936-65.625h-99.28v9.375h88.213l-7.814 46.875h-81.2l-14.062-75h-17.953v9.375h10.172l12.305 65.625h-1.383c-6.46 0-11.72 5.26-11.72 11.72s5.26 11.718 11.72 11.718h3.205c-.525 1.472-.863 3.037-.863 4.688 0 7.753 6.31 14.063 14.062 14.063s14.062-6.31 14.062-14.064c0-1.65-.337-3.216-.862-4.688h48.605c-.53 1.472-.868 3.037-.868 4.688 0 7.753 6.31 14.063 14.062 14.063s14.062-6.31 14.062-14.064c0-7.754-6.308-14.063-14.06-14.063zm-70.313 14.062c0 2.583-2.105 4.688-4.687 4.688-2.583 0-4.688-2.105-4.688-4.688 0-2.583 2.105-4.688 4.688-4.688 2.582 0 4.687 2.105 4.687 4.688zm70.313 4.688c-2.583 0-4.688-2.105-4.688-4.688 0-2.583 2.105-4.688 4.688-4.688 2.583 0 4.687 2.105 4.687 4.688s-2.105 4.688-4.687 4.688zM42.187 150.423h9.375v9.375h-9.375z" colortype="1" coriginal="rgb(51, 51, 51, 1)" awdzp="1" colorover="rgb(51, 51, 51, 1)" style="fill: rgb(51, 51, 51);" attrfill="block"></path></g></g></g></svg>