<svg xmlns="http://www.w3.org/2000/svg" id="svgid17" width="512" height="512" x="0" y="0" xmlns:xlink="http://www.w3.org/1999/xlink" version="1.1" viewBox="0 0 64 64" xml:space="preserve" repair="1"><g><g><path fill="rgb(224, 81, 19)" d="M5 32h11v8H5z" coriginal="rgb(240, 188, 94, 1)" colortype="0" awdzp="0" colorover="rgb(240, 188, 94, 1)" style="fill: rgb(224, 81, 19);"></path></g><g><g><path fill="rgb(224, 81, 19)" d="M32 43c-5.514 0-10-4.486-10-10s4.486-10 10-10 10 4.486 10 10-4.486 10-10 10z" coriginal="rgb(240, 188, 94, 1)" colortype="0" awdzp="0" colorover="rgb(240, 188, 94, 1)" style="fill: rgb(224, 81, 19);"></path></g></g><g><path d="M58 28h-8v-2h-2v2h-2.94c-1.787-4.654-5.983-8.11-11.06-8.84V2.13L20.697 11h-7.29L9 19.078V1H7v23h14.292c-.764.908-1.405 1.918-1.922 3H6c-2.757 0-5 2.243-5 5v20c0 2.757 2.243 5 5 5h7v4H9v2h28v-2h-4v-4h7c2.757 0 5-2.243 5-5V38.166c.022-.055.04-.11.06-.166H48v2h2v-2h8c2.757 0 5-2.243 5-5s-2.243-5-5-5zm-26-9c-1.39 0-2.73.21-4 .59V8.535l4-2.667V19zm-8.632 3H22v-9.465l4-2.667V20.37c-.94.448-1.822.993-2.632 1.63zM16 13h4v9h-4v-9zm-2 1.09V22H9.685L14 14.09zM32 21c6.617 0 12 5.383 12 12s-5.383 12-12 12-12-5.383-12-12 5.383-12 12-12zm-1 40H15v-4h16v4zm9-6H6c-1.654 0-3-1.346-3-3v-1h40v1c0 1.654-1.346 3-3 3zm3-6H3V32c0-1.654 1.346-3 3-3h12.59c-.38 1.27-.59 2.61-.59 4 0 7.72 6.28 14 14 14 4.462 0 8.435-2.106 11-5.368V49zm2.668-13c.212-.968.332-1.97.332-3s-.12-2.032-.332-3H48v6h-2.332zM58 36h-8v-6h8c1.654 0 3 1.346 3 3s-1.346 3-3 3z"></path><path d="M5 31h11v2H5zM5 35h11v2H5zM5 39h11v2H5z"></path></g></g></svg>