<svg xmlns="http://www.w3.org/2000/svg" id="svgid21" x="0" y="0" xmlns:xlink="http://www.w3.org/1999/xlink" version="1.1" viewBox="0 0 496 496" xml:space="preserve" repair="1"><path fill="rgb(224, 81, 19)" d="M280 400h-64v-28.04c-11.56-2.976-22.616-7.568-32.984-13.712l-19.864 19.856-45.256-45.256 19.856-19.864c-6.144-10.368-10.736-21.424-13.712-32.984H96v-64h28.04c2.976-11.56 7.568-22.616 13.712-32.984l-19.856-19.864 45.256-45.256 19.864 19.856c10.368-6.144 21.424-10.736 32.984-13.712V96h64v28.04c11.56 2.976 22.616 7.568 32.984 13.712l19.864-19.856 45.256 45.256-19.856 19.864c6.144 10.368 10.736 21.424 13.712 32.984H400v64h-28.04c-2.976 11.56-7.568 22.616-13.712 32.984l19.856 19.864-45.256 45.256-19.864-19.856c-10.368 6.144-21.424 10.736-32.984 13.712V400z" coriginal="rgb(249, 186, 72, 1)" colortype="0" awdzp="0" style="fill: rgb(224, 81, 19);" colorover="rgba(249, 186, 72, 1)"></path><g><path fill="rgba(51, 51, 51, 1)" d="M208 281.92V288h-8v16h8v24h80v-24h8v-16h-8v-6.08c15.104-12.128 24-30.48 24-49.92 0-35.288-28.712-64-64-64s-64 28.712-64 64c0 19.448 8.896 37.8 24 49.92zM272 312h-48v-8h48v8zm-32-80c0-4.416 3.584-8 8-8s8 3.584 8 8-3.584 8-8 8-8-3.584-8-8zm8-48c26.472 0 48 21.528 48 48 0 15.64-7.696 30.36-20.576 39.368L272 273.752V288h-16v-33.472c9.288-3.312 16-12.112 16-22.528 0-13.232-10.768-24-24-24s-24 10.768-24 24c0 10.416 6.712 19.216 16 22.528V288h-16v-14.248l-3.424-2.384C207.696 262.36 200 247.64 200 232c0-26.472 21.528-48 48-48zM304 0H138.36c-19.056 0-37.184 8.224-49.744 22.568-11.704 13.384-17.456 30.52-16.168 48.256 1.128 15.656 7.608 30.056 18.4 41.168H72v16h46.248l9.504-38.064-15.512-3.872-4.864 19.44-1.616-1.392C95.536 95.336 89.368 83.112 88.4 69.672c-.96-13.448 3.392-26.432 12.256-36.576C110.176 22.232 123.912 16 138.36 16H304V0zM86.064 383.76l19.44 4.864-1.392 1.616c-8.768 10.224-20.992 16.392-34.432 17.36-13.456.92-26.432-3.4-36.576-12.256C22.232 385.824 16 372.088 16 357.64V192H0v165.64c0 19.056 8.224 37.184 22.568 49.744 12.16 10.632 27.416 16.352 43.408 16.352 1.608 0 3.224-.064 4.848-.176 15.656-1.128 30.056-7.608 41.168-18.4V424h16v-46.248l-38.064-9.504-3.864 15.512zM368.24 406.064l15.512 3.872 4.864-19.44 1.616 1.392c10.224 8.768 16.392 20.992 17.36 34.432.96 13.448-3.392 26.432-12.256 36.576C385.824 473.768 372.088 480 357.64 480H192v16h165.64c19.056 0 37.184-8.224 49.744-22.568 11.704-13.384 17.456-30.52 16.168-48.256-1.128-15.656-7.608-30.056-18.4-41.168H424v-16h-46.248l-9.512 38.056zM473.432 88.616c-13.384-11.704-30.488-17.448-48.256-16.168-15.656 1.128-30.056 7.608-41.168 18.4V72h-16v46.248l38.064 9.504 3.872-15.512-19.44-4.864 1.392-1.616c8.768-10.224 20.992-16.392 34.432-17.36 13.416-.936 26.432 3.392 36.576 12.256C473.768 110.176 480 123.912 480 138.36V304h16V138.36c0-19.056-8.224-37.192-22.568-49.744z" coriginal="rgb(51, 51, 51, 1)" colortype="1" awdzp="1" style="fill: rgb(51, 51, 51);" colorover="rgba(51, 51, 51, 1)" attrfill="block"></path></g></svg>