<svg xmlns="http://www.w3.org/2000/svg" id="svgid13" x="0" y="0" xmlns:xlink="http://www.w3.org/1999/xlink" version="1.1" viewBox="0 0 496.88 496.88" xml:space="preserve" repair="1"><circle cx="248.44" cy="344.44" r="104" fill="rgb(224, 81, 19)" coriginal="rgb(249, 186, 72, 1)" colortype="0" awdzp="0" style="fill: rgb(224, 81, 19);" colorover="rgba(249, 186, 72, 1)"></circle><g><path fill="rgba(51, 51, 51, 1)" d="M496.88 178.928L471.376.44H25.504L0 178.928l103.592 119.528c-4.616 14.512-7.152 29.952-7.152 45.984 0 83.816 68.184 152 152 152s152-68.184 152-152c0-16.032-2.536-31.472-7.152-45.992l103.592-119.52zM386.688 281.624c-3.896-8.536-8.512-16.664-13.856-24.272l102.304-117.464L480 173.952l-93.312 107.672zm-252.552-37.048L24.736 118.96l4.504-31.568L151.36 227.6c-6.208 5.168-11.912 10.896-17.224 16.976zm30.088-26.568L32.232 66.464l5.656-39.584 153.848 176.648c-9.696 3.912-18.928 8.736-27.512 14.48zM314.48 168.44H182.4l-27.872-32h187.816l-27.864 32zm41.8-48H140.6l-34.84-40h285.36l-34.84 40zm48.776-56H91.824l-41.808-48h396.84l-41.8 48zM208.168 198.024l-11.832-13.584h104.2l-11.832 13.584c-12.848-3.536-26.304-5.584-40.264-5.584s-27.416 2.048-40.272 5.584zM458.992 26.88l5.656 39.584-131.992 151.544c-8.592-5.744-17.816-10.568-27.52-14.48L458.992 26.88zm8.648 60.512l4.512 31.56-109.408 125.624c-5.312-6.08-11.016-11.808-17.224-16.968L467.64 87.392zm-450.76 86.56l4.864-34.064 102.304 117.464c-5.344 7.608-9.96 15.728-13.856 24.272L16.88 173.952zM248.44 480.44c-74.992 0-136-61.008-136-136s61.008-136 136-136 136 61.008 136 136-61.008 136-136 136z" coriginal="rgb(51, 51, 51, 1)" colortype="1" awdzp="1" style="fill: rgb(51, 51, 51);" colorover="rgba(51, 51, 51, 1)" attrfill="block"></path><path fill="rgba(51, 51, 51, 1)" d="M274.64 307.456l-26.2-53.096-26.2 53.096-58.6 8.512 42.408 41.32-10.016 58.352 52.408-27.544 52.408 27.544-10.016-58.352 42.408-41.32-58.6-8.512zm4.96 78.936l-31.16-16.376-31.16 16.376 5.952-34.68-25.2-24.568 34.832-5.064 15.576-31.56 15.576 31.56 34.832 5.064-25.2 24.568 5.952 34.68z" colortype="1" coriginal="rgb(51, 51, 51, 1)" awdzp="1" style="fill: rgb(51, 51, 51);" colorover="rgba(51, 51, 51, 1)" attrfill="block"></path></g></svg>