<svg xmlns="http://www.w3.org/2000/svg" id="svgid7" x="0" y="0" xmlns:xlink="http://www.w3.org/1999/xlink" version="1.1" viewBox="0 0 497.984 497.984" xml:space="preserve" repair="1"><path fill="rgba(51, 51, 51, 1)" d="M378.56 497.984L392.552 456h-200.8c-16.96 0-30.76-13.8-30.76-30.76V320h16v105.24c0 8.144 6.616 14.76 14.76 14.76H414.76l-7.336 22.016L444.112 440h22.128c8.136 0 14.752-6.616 14.752-14.76V294.76c0-8.144-6.616-14.76-14.76-14.76h-169.24v-16h169.24c16.96 0 30.76 13.8 30.76 30.76v130.488c0 16.952-13.8 30.752-30.76 30.752h-17.688l-69.984 41.984z" coriginal="rgb(51, 51, 51, 1)" colortype="1" awdzp="1" style="fill: rgb(51, 51, 51);" colorover="rgba(51, 51, 51, 1)" attrfill="block"></path><path fill="rgb(224, 81, 19)" d="M184.992 184h120v113.24c0 16.96-13.8 30.76-30.76 30.76h-9.24l16 40-72-40H31.752c-16.96 0-30.76-13.8-30.76-30.76V166.76c0-16.96 13.8-30.76 30.76-30.76h137.24v32l16 16z" coriginal="rgb(249, 186, 72, 1)" colortype="0" awdzp="0" style="fill: rgb(224, 81, 19);" colorover="rgba(249, 186, 72, 1)"></path><g><path fill="rgba(51, 51, 51, 1)" d="M378.56 233.984L392.552 192h-200.8c-16.96 0-30.76-13.8-30.76-30.76V30.76c0-16.96 13.8-30.76 30.76-30.76H466.24c16.952 0 30.752 13.8 30.752 30.76v130.488c0 16.952-13.8 30.752-30.76 30.752h-17.688l-69.984 41.984zM191.752 16c-8.144 0-14.76 6.616-14.76 14.76v130.488c0 8.136 6.616 14.752 14.76 14.752H414.76l-7.336 22.016L444.112 176h22.128c8.136 0 14.752-6.616 14.752-14.76V30.76c0-8.144-6.616-14.76-14.76-14.76h-274.48z" colortype="1" coriginal="rgb(51, 51, 51, 1)" awdzp="1" style="fill: rgb(51, 51, 51);" colorover="rgba(51, 51, 51, 1)" attrfill="block"></path><path fill="rgba(51, 51, 51, 1)" d="M200.992 48h256v16h-256zM200.992 88h256v16h-256zM200.992 128h216v16h-216zM440.992 128h16v16h-16zM40.992 184h104v16h-104zM40.992 224h224v16h-224zM40.992 264h184v16h-184zM248.992 264h16v16h-16zM328.992 312h128v16h-128zM304.992 352h152v16h-152zM200.992 392h216v16h-216zM440.992 392h16v16h-16z" colortype="1" coriginal="rgb(51, 51, 51, 1)" awdzp="1" style="fill: rgb(51, 51, 51);" colorover="rgba(51, 51, 51, 1)" attrfill="block"></path></g></svg>