<svg xmlns="http://www.w3.org/2000/svg" id="svgid4" width="512" height="512" x="0" y="0" xmlns:xlink="http://www.w3.org/1999/xlink" version="1.1" viewBox="0 0 64 64" xml:space="preserve" repair="1"><g><g><path d="M7 57h2v2H7zM11 57h2v2h-2zM15 57h2v2h-2zM31 45h2v2h-2zM31 41h2v2h-2zM35 41h2v2h-2zM35 45h2v2h-2zM39 45h2v2h-2zM39 41h2v2h-2zM43 41h2v2h-2zM43 45h2v2h-2zM47 45h2v2h-2zM47 41h2v2h-2zM51 41h2v2h-2zM51 45h2v2h-2zM55 45h2v2h-2zM55 49h2v2h-2zM55 41h2v2h-2zM7 41h2v2H7zM7 45h2v2H7zM7 49h2v2H7zM11 45h2v2h-2zM11 41h2v2h-2zM15 41h2v2h-2zM15 45h2v2h-2zM19 45h2v2h-2zM19 41h2v2h-2zM23 41h2v2h-2zM23 45h2v2h-2zM27 45h2v2h-2zM27 41h2v2h-2z"></path><path d="M58 13H40.455v2H58c1.654 0 3 1.346 3 3v19H3V18c0-1.654 1.346-3 3-3h17.545v-2H6c-2.757 0-5 2.243-5 5v40c0 2.757 2.243 5 5 5h52c2.757 0 5-2.243 5-5V18c0-2.757-2.243-5-5-5zm3 26v14h-8v-1c0-1.654-1.346-3-3-3H14c-1.654 0-3 1.346-3 3v1H3V39h58zM51 53H13v-1c0-.552.45-1 1-1h36c.55 0 1 .448 1 1v1zm7 8H6c-1.654 0-3-1.346-3-3v-3h58v3c0 1.654-1.346 3-3 3z"></path><path d="M9 33V19h12.727v-2H7v18h50V17H42.273v2H55v14z"></path></g><g><g><path fill="rgb(224, 81, 19)" d="M40.34 31H23.66C20.54 31 18 28.46 18 25.34v-.33c0-.814.17-1.603.508-2.343l8.34-18.35C27.765 2.303 29.787 1 32 1s4.236 1.303 5.15 3.318l8.342 18.35c.337.74.508 1.527.508 2.34v.333c0 3.12-2.54 5.66-5.66 5.66z" coriginal="rgb(240, 188, 94, 1)" colortype="0" awdzp="0" colorover="rgb(240, 188, 94, 1)" style="fill: rgb(224, 81, 19);"></path></g></g><g><path d="M32 27c-1.654 0-3-1.346-3-3s1.346-3 3-3 3 1.346 3 3-1.346 3-3 3zm0-4c-.55 0-1 .45-1 1s.45 1 1 1 1-.45 1-1-.45-1-1-1z"></path></g><g><path d="M32 19c-1.086 0-1.986-.815-2.095-1.896l-.89-8.91c-.01-.095-.015-.192-.015-.29C29 6.305 30.303 5 31.905 5h.19C33.697 5 35 6.303 35 7.905c0 .097-.004.194-.014.29l-.89 8.91C33.985 18.185 33.085 19 32 19zm-.095-12c-.5 0-.905.406-.905.905l.896 9c.01.107.198.107.21 0l.89-8.91c.004-.59-.402-.995-.9-.995h-.19z"></path></g></g></svg>