<svg xmlns="http://www.w3.org/2000/svg" id="svgid17" x="0" y="0" xmlns:xlink="http://www.w3.org/1999/xlink" version="1.1" viewBox="0 0 497.072 497.072" xml:space="preserve" repair="1"><g><path fill="rgba(51, 51, 51, 1)" d="M432.536 65.272v-.2h-168v16h120.272c-14.816 12.488-24.272 31.152-24.272 52v296c0 28.672-23.328 52-52 52s-52-23.328-52-52v-12h-120v-152h-16v152h-120v12c0 37.496 30.504 68 68 68h240c20.832 0 39.512-9.424 52-24.224l136 .224v-340c0-36.144-28.376-65.712-64-67.8zm-364 415.8c-27.328 0-49.8-21.184-51.848-48h223.968c1.12 19.216 10.256 36.32 24.112 48H68.536zm412-24H370.504c3.872-8.544 6.032-18.024 6.032-28v-296c0-28.672 23.328-52 52-52s52 23.328 52 52v324z" coriginal="rgb(51, 51, 51, 1)" colortype="1" awdzp="1" style="fill: rgb(51, 51, 51);" colorover="rgba(51, 51, 51, 1)" attrfill="block"></path><path fill="rgba(51, 51, 51, 1)" d="M280.536 305.072c-6.456 0-12.296 2.592-16.616 6.752l-16.408-8.208c.6-2.096 1.024-4.264 1.024-6.544 0-13.232-10.768-24-24-24s-24 10.768-24 24c0 4.52 1.328 8.704 3.512 12.312L184.6 338.56c-2.536-.904-5.224-1.488-8.064-1.488-13.232 0-24 10.768-24 24s10.768 24 24 24 24-10.768 24-24c0-4.52-1.328-8.704-3.512-12.312l19.448-29.176c2.536.904 5.224 1.488 8.064 1.488 5.048 0 9.728-1.584 13.592-4.256l18.696 9.352c-.112.96-.288 1.912-.288 2.904 0 13.232 10.768 24 24 24s24-10.768 24-24c0-4.72-1.416-9.096-3.784-12.816l16.512-27.512c1.08.144 2.152.328 3.272.328 13.232 0 24-10.768 24-24s-10.768-24-24-24-24 10.768-24 24c0 6.312 2.496 12.016 6.488 16.304l-15.008 25.016c-2.368-.792-4.848-1.32-7.48-1.32zm-104 64c-4.416 0-8-3.584-8-8s3.584-8 8-8 8 3.584 8 8-3.584 8-8 8zm40-72c0-4.416 3.584-8 8-8s8 3.584 8 8-3.584 8-8 8-8-3.584-8-8zm64 40c-4.416 0-8-3.584-8-8s3.584-8 8-8 8 3.584 8 8-3.584 8-8 8zm40-80c4.416 0 8 3.584 8 8s-3.584 8-8 8-8-3.584-8-8 3.584-8 8-8zM40.536 65.072v16h176v-16l28.232 15.056L252.296 66 128.536 0 4.768 66.008l7.528 14.128 28.24-15.064zm175.992 0H40.544l87.992-46.928 87.992 46.928zM16.536 201.072v16h32v-16h-8v-88h8v-16h-32v16h8v88zM80.536 201.072v16h32v-16h-8v-88h8v-16h-32v16h8v88zM144.536 201.072v16h32v-16h-8v-88h8v-16h-32v16h8v88zM208.536 201.072v16h32v-16h-8v-88h8v-16h-32v16h8v88zM8.536 233.072h240v16h-240z" colortype="1" coriginal="rgb(51, 51, 51, 1)" awdzp="1" style="fill: rgb(51, 51, 51);" colorover="rgba(51, 51, 51, 1)" attrfill="block"></path></g><g><path fill="rgb(224, 81, 19)" d="M16.536 113.072h8v88h-8zM40.536 113.072h8v88h-8zM80.536 113.072h8v88h-8zM104.536 113.072h8v88h-8zM144.536 113.072h8v88h-8zM168.536 113.072h8v88h-8zM208.536 113.072h8v88h-8zM232.536 113.072h8v88h-8z" coriginal="rgb(249, 186, 72, 1)" colortype="0" awdzp="0" style="fill: rgb(224, 81, 19);" colorover="rgba(249, 186, 72, 1)"></path></g></svg>