<svg xmlns="http://www.w3.org/2000/svg" id="svgid11" x="0" y="0" xmlns:xlink="http://www.w3.org/1999/xlink" version="1.1" viewBox="0 0 496 496" xml:space="preserve" repair="1"><path fill="rgb(224, 81, 19)" d="M264 384l-48 8 8-48 192-192V64H80v102.592C107.4 147.376 140.696 136 176.704 136c46.584 0 88.76 18.88 119.296 49.416l-216 216V432h336V232L264 384z" coriginal="rgb(249, 186, 72, 1)" colortype="0" awdzp="0" colorover="rgb(249, 186, 72, 1)" style="fill: rgb(224, 81, 19);"></path><g><path fill="rgb(51, 51, 51, 1)" d="M272 456c0-13.232-10.768-24-24-24s-24 10.768-24 24 10.768 24 24 24 24-10.768 24-24zm-24 8c-4.416 0-8-3.584-8-8s3.584-8 8-8 8 3.584 8 8-3.584 8-8 8zM301.656 179.76C268.28 146.384 223.904 128 176.704 128 79.264 128 0 207.264 0 304.704c0 47.2 18.384 91.576 51.76 124.952l5.656 5.656 249.896-249.896-5.656-5.656zM57.552 412.544c-2.08-2.288-3.944-4.72-5.88-7.112l12.744-9.256-9.408-12.952-12.792 9.288c-6.336-9.656-11.664-19.864-15.744-30.592l15.176-4.928-4.936-15.216-15.12 4.912c-2.96-11-4.664-22.384-5.232-33.992h15.736v-16H16.408c.576-11.688 2.384-23.032 5.336-33.936l14.96 4.864 4.952-15.216-14.968-4.864c4.128-10.808 9.32-21.08 15.568-30.624l12.752 9.264 9.408-12.952-12.752-9.264c7.216-8.944 15.36-17.08 24.304-24.304l9.264 12.752 12.952-9.408-9.264-12.752c9.544-6.256 19.816-11.44 30.624-15.568l4.864 14.968 15.216-4.952-4.864-14.96c10.904-2.952 22.248-4.76 33.936-5.336v15.696h16v-15.736c11.6.568 22.984 2.272 33.992 5.232l-4.912 15.12 15.216 4.936 4.928-15.176c10.728 4.08 20.936 9.416 30.592 15.744l-9.288 12.792 12.952 9.408 9.256-12.744c2.392 1.928 4.816 3.8 7.112 5.88L57.552 412.544z" coriginal="rgb(51, 51, 51, 1)" colortype="1" awdzp="1" colorover="rgb(51, 51, 51, 1)" style="fill: rgb(51, 51, 51);" attrfill="block"></path><path fill="rgb(51, 51, 51, 1)" d="M176.704 208.336c-53.144 0-96.368 43.224-96.368 96.368 0 7.992 1.088 16.192 3.216 24.376l3.528 13.504 127.496-127.496-13.504-3.528c-8.176-2.136-16.376-3.224-24.368-3.224zM96.56 310.48c-.152-1.936-.224-3.864-.224-5.776 0-44.312 36.056-80.368 80.368-80.368 1.904 0 3.832.08 5.776.224l-85.92 85.92zM459.72 112c-9.696 0-18.808 3.776-25.656 10.624L216.528 340.16l-10.264 61.576 61.576-10.264 217.528-217.528C492.224 167.088 496 157.976 496 148.28c0-20.008-16.272-36.28-36.28-36.28zm-51.032 76L244 352.688 235.312 344 400 179.312l8.688 8.688zM255.312 364L420 199.312l8.688 8.688L264 372.688 255.312 364zm156-196L424 155.312 452.688 184 440 196.688 411.312 168zM229.336 360.648l18.016 18.016-21.616 3.6 3.6-21.616zm244.728-198.024L464 172.688 435.312 144l10.064-10.064c3.824-3.824 8.92-5.936 14.344-5.936 11.176 0 20.28 9.104 20.28 20.28 0 5.424-2.112 10.52-5.936 14.344zM200 32h96v16h-96zM400 472c0 4.416-3.584 8-8 8H104c-4.416 0-8-3.584-8-8v-40H80v40c0 13.232 10.768 24 24 24h288c13.232 0 24-10.768 24-24v-40h-16v40z" colortype="1" coriginal="rgb(51, 51, 51, 1)" awdzp="1" colorover="rgb(51, 51, 51, 1)" style="fill: rgb(51, 51, 51);" attrfill="block"></path><path fill="rgb(51, 51, 51, 1)" d="M96 24c0-4.416 3.584-8 8-8h288c4.416 0 8 3.584 8 8v40h16V24c0-13.232-10.768-24-24-24H104C90.768 0 80 10.768 80 24v40h16V24z" colortype="1" coriginal="rgb(51, 51, 51, 1)" awdzp="1" colorover="rgb(51, 51, 51, 1)" style="fill: rgb(51, 51, 51);" attrfill="block"></path></g></svg>