<svg xmlns="http://www.w3.org/2000/svg" id="svgid21" width="512" height="512" x="0" y="0" xmlns:xlink="http://www.w3.org/1999/xlink" version="1.1" viewBox="0 0 64 64" xml:space="preserve" repair="1"><g><g><path fill="rgb(224, 81, 19)" d="M62 43H2V14c0-2.21 1.79-4 4-4h52c2.21 0 4 1.79 4 4v29z" coriginal="rgb(240, 188, 94, 1)" colortype="0" awdzp="0" colorover="rgb(240, 188, 94, 1)" style="fill: rgb(224, 81, 19);"></path></g><g><path d="M58 9H6c-2.757 0-5 2.243-5 5v30c0 2.757 2.243 5 5 5h13v4h-4v2h34v-2h-4v-4h13c2.757 0 5-2.243 5-5V14c0-2.757-2.243-5-5-5zM43 53H21v-4h22v4zm18-9c0 1.654-1.346 3-3 3H6c-1.654 0-3-1.346-3-3V14c0-1.654 1.346-3 3-3h52c1.654 0 3 1.346 3 3v30z"></path><path d="M23 19c2.206 0 4 1.794 4 4h2c0-3.31-2.69-6-6-6s-6 2.69-6 6v6c0 3.31 2.69 6 6 6s6-2.69 6-6h-2c0 2.206-1.794 4-4 4s-4-1.794-4-4v-6c0-2.206 1.794-4 4-4zM44.992 18.124l-1.984-.248L42.492 22h-4.985l.484-3.876-1.983-.248L35.492 22H33v2h2.242l-.5 4H33v2h1.492l-.484 3.876 1.984.248.516-4.124h4.985l-.484 3.876 1.983.248.515-4.124H46v-2h-2.242l.5-4H46v-2h-1.492l.484-3.876zM41.742 28h-4.985l.5-4h4.985l-.5 4z"></path></g></g></svg>