<svg xmlns="http://www.w3.org/2000/svg" id="svgid1" x="0" y="0" xmlns:xlink="http://www.w3.org/1999/xlink" version="1.1" viewBox="0 0 496 496" xml:space="preserve" repair="1"><path fill="rgb(224, 81, 19)" d="M252 360L108 256V0h336v256L300 360l-24-16z" coriginal="rgb(249, 186, 72, 1)" colortype="0" awdzp="0" style="fill: rgb(224, 81, 19);" colorover="rgba(249, 186, 72, 1)"></path><g><path fill="rgba(51, 51, 51, 1)" d="M211.072 158.984l-14.264 14.272 33.936 33.936 14.272-14.264c2.272 1.088 4.6 2.048 6.984 2.888V216h48v-20.176c2.384-.84 4.712-1.808 6.984-2.888l14.272 14.264 33.936-33.936-14.264-14.272c1.088-2.272 2.048-4.6 2.888-6.984H364v-48h-20.176c-.84-2.384-1.808-4.712-2.888-6.984L355.2 82.752l-33.936-33.936-14.272 14.264c-2.28-1.096-4.608-2.056-6.992-2.904V40h-48v20.176c-2.384.84-4.712 1.808-6.984 2.888L230.744 48.8l-33.936 33.936 14.264 14.272c-1.088 2.272-2.048 4.6-2.888 6.984H188v48h20.176c.848 2.392 1.808 4.72 2.896 6.992zM204 120h16.288l1.544-6c1.312-5.072 3.32-9.912 5.968-14.392l3.152-5.344-11.52-11.52 11.312-11.312 11.52 11.52 5.344-3.152c4.48-2.648 9.32-4.656 14.392-5.968l6-1.544V56h16v16.288l6 1.544c5.072 1.312 9.912 3.32 14.392 5.968l5.344 3.152 11.52-11.52 11.312 11.312-11.52 11.52 3.152 5.344c2.648 4.48 4.656 9.32 5.968 14.392l1.544 6H348v16h-16.288l-1.544 6c-1.312 5.072-3.32 9.912-5.968 14.392l-3.152 5.344 11.52 11.52-11.312 11.312-11.52-11.52-5.344 3.152c-4.48 2.648-9.32 4.656-14.392 5.968l-6 1.544V200h-16v-16.288l-6-1.544c-5.072-1.312-9.912-3.32-14.392-5.968l-5.344-3.152-11.52 11.52-11.312-11.312 11.52-11.52-3.152-5.344c-2.648-4.48-4.656-9.32-5.968-14.392l-1.544-6H204v-16z" coriginal="rgb(51, 51, 51, 1)" colortype="1" awdzp="1" style="fill: rgb(51, 51, 51);" colorover="rgba(51, 51, 51, 1)" attrfill="block"></path><path fill="rgba(51, 51, 51, 1)" d="M276 160c17.648 0 32-14.352 32-32s-14.352-32-32-32-32 14.352-32 32 14.352 32 32 32zm0-48c8.824 0 16 7.176 16 16s-7.176 16-16 16-16-7.176-16-16 7.176-16 16-16zM4 72h168v16H4zM20 104h152v16H20zM36 136h136v16H36zM444 179.832v19.528l26.488 18.536-170.752 131.352L276 332.632l-23.736 16.616L81.512 217.904 108 199.368V184h64v-16H52v16h50.048L60 213.44V496h432V213.44l-48-33.608zM76 233.848l162.528 125.016L76 472.632V233.848zM93.376 480L276 352.168 458.624 480H93.376zM476 472.632L313.472 358.864 476 233.848v238.784z" colortype="1" coriginal="rgb(51, 51, 51, 1)" awdzp="1" style="fill: rgb(51, 51, 51);" colorover="rgba(51, 51, 51, 1)" attrfill="block"></path></g></svg>