<svg xmlns="http://www.w3.org/2000/svg" id="svgid11" x="0" y="0" version="1.1" xmlns:xlink="http://www.w3.org/1999/xlink" viewBox="0 0 290.626 290.626" xml:space="preserve" repair="1"><g><g><circle cx="65.626" cy="79.688" r="23.438" fill="rgb(224, 81, 19)" coriginal="rgb(249, 186, 72, 1)" colortype="0" awdzp="0" colorover="rgb(178, 219, 191)" style="fill: rgb(224, 81, 19);"></circle><path fill="rgb(51, 51, 51, 1)" d="M87.38 69.225l-6.01-7.2L56.543 82.72l-6.352-6.347-6.628 6.63 12.4 12.402zM103.126 65.625h70.312V75h-70.312zM103.126 84.375h79.687v9.375h-79.687zM87.38 116.1l-6.01-7.2-24.828 20.695-6.352-6.347-6.628 6.63 12.4 12.402zM103.126 112.5h98.437v9.375h-98.437zM103.126 131.25h18.75v9.375h-18.75zM131.25 131.25h70.313v9.375H131.25zM87.38 162.975l-6.01-7.2-24.828 20.695-6.352-6.347-6.628 6.63 12.4 12.402zM103.126 159.375h98.437v9.375h-98.437zM103.126 178.125h70.312v9.375h-70.312zM182.813 178.125h18.75v9.375h-18.75zM182.813 65.625h18.75V75h-18.75z" coriginal="rgb(51, 51, 51, 1)" colortype="1" awdzp="1" colorover="rgb(51, 51, 51, 1)" style="fill: rgb(51, 51, 51);" attrfill="block"></path><path fill="rgb(51, 51, 51, 1)" d="M276.563 215.625h-37.5V23.438C239.063 10.514 228.55 0 215.626 0H23.44C10.514 0 0 10.514 0 23.438S10.516 46.876 23.44 46.876v243.75h196.875V262.5h18.75v-18.75h37.5c7.753 0 14.062-6.31 14.062-14.063s-6.31-14.062-14.062-14.062zM229.688 23.438v192.188h-9.375V37.5h-4.688c-7.753 0-14.062-6.31-14.062-14.063s6.31-14.063 14.062-14.063 14.063 6.31 14.063 14.064zm-220.312 0c0-7.753 6.31-14.063 14.062-14.063h173.56c-2.978 3.928-4.81 8.766-4.81 14.063s1.833 10.134 4.81 14.063H23.437c-7.752 0-14.062-6.31-14.062-14.062zM32.814 281.25V46.875H210.94v168.75H78.93L36.74 229.688 78.93 243.75h132.008v37.5H32.814zm33.572-51.562L75 226.814v5.742l-8.614-2.868zm163.302 23.437h-9.375v-9.375h9.375v9.375zm9.375-18.75H84.376V225h154.687v9.375zm18.75 0h-9.375V225h9.375v9.375zm18.75 0h-9.375V225h9.375c2.587 0 4.687 2.105 4.687 4.688s-2.1 4.687-4.687 4.687z" colortype="1" coriginal="rgb(51, 51, 51, 1)" awdzp="1" colorover="rgb(51, 51, 51, 1)" style="fill: rgb(51, 51, 51);" attrfill="block"></path></g></g></svg>