<svg xmlns="http://www.w3.org/2000/svg" id="svgid5" width="512" height="512" x="0" y="0" xmlns:xlink="http://www.w3.org/1999/xlink" version="1.1" viewBox="0 0 64 64" xml:space="preserve" repair="1"><g><g><path fill="rgb(224, 81, 19)" d="M37 14h22v12H37z" coriginal="rgb(240, 188, 94, 1)" colortype="0" awdzp="0" colorover="rgb(240, 188, 94, 1)" style="fill: rgb(224, 81, 19);"></path></g><g><path d="M1 1v52h7v-2H3V11h58v36h2V1H1zm2 8V3h58v6H3z"></path><path d="M5 5h2v2H5zM9 5h2v2H9zM13 5h2v2h-2z"></path></g><g><g><path fill="rgb(224, 81, 19)" d="M20.72 63h-5.44l-.818-2.456-2.315 1.158L8.3 57.854l1.157-2.315L7 54.72v-5.44l2.456-.818-1.158-2.315 3.848-3.848 2.315 1.157.82-2.457h5.44l.818 2.456 2.315-1.158 3.848 3.848-1.157 2.315 2.457.82v5.44l-2.456.818 1.158 2.315-3.848 3.848-2.315-1.157L20.72 63z" coriginal="rgb(240, 188, 94, 1)" colortype="0" awdzp="0" colorover="rgb(240, 188, 94, 1)" style="fill: rgb(224, 81, 19);"></path></g></g><g><path d="M18 57c-2.757 0-5-2.243-5-5s2.243-5 5-5 5 2.243 5 5-2.243 5-5 5zm0-8c-1.654 0-3 1.346-3 3s1.346 3 3 3 3-1.346 3-3-1.346-3-3-3z"></path></g><g><g><path fill="rgb(224, 81, 19)" d="M49.72 63h-5.44l-.82-2.46c-1.234-.32-2.416-.812-3.525-1.465l-2.323 1.162-3.848-3.848 1.162-2.324c-.652-1.11-1.144-2.29-1.466-3.525L31 49.72v-5.44l2.46-.82c.32-1.234.812-2.416 1.465-3.525l-1.162-2.323 3.848-3.848 2.324 1.162c1.11-.652 2.29-1.144 3.525-1.466l.82-2.46h5.44l.82 2.46c1.234.32 2.416.812 3.525 1.465l2.323-1.162 3.848 3.848-1.162 2.324c.652 1.11 1.144 2.29 1.466 3.525l2.46.82v5.44l-2.46.82c-.32 1.234-.812 2.416-1.465 3.525l1.162 2.323-3.848 3.848-2.324-1.162c-1.11.652-2.29 1.144-3.525 1.466L49.72 63z" coriginal="rgb(240, 188, 94, 1)" colortype="0" awdzp="0" colorover="rgb(240, 188, 94, 1)" style="fill: rgb(224, 81, 19);"></path></g></g><g><path d="M47 57c-5.514 0-10-4.486-10-10s4.486-10 10-10 10 4.486 10 10-4.486 10-10 10zm0-18c-4.41 0-8 3.59-8 8s3.59 8 8 8 8-3.59 8-8-3.59-8-8-8z"></path></g><g><path d="M47 51c-2.206 0-4-1.794-4-4s1.794-4 4-4 4 1.794 4 4-1.794 4-4 4zm0-6c-1.103 0-2 .897-2 2s.897 2 2 2 2-.897 2-2-.897-2-2-2z"></path></g><g><path d="M9.625 32.78l-1.25-1.56L17.4 24l-9.025-7.22 1.25-1.56L20.6 24z"></path></g><g><path d="M14 31h22v2H14z"></path></g><g><path d="M37 13h22v2H37z"></path></g><g><path d="M37 17h22v2H37z"></path></g><g><path d="M37 21h22v2H37z"></path></g><g><path d="M37 25h22v2H37z"></path></g></g></svg>