<svg xmlns="http://www.w3.org/2000/svg" id="svgid4" x="0" y="0" xmlns:xlink="http://www.w3.org/1999/xlink" version="1.1" viewBox="0 0 496 496" xml:space="preserve" repair="1"><g><path fill="rgba(51, 51, 51, 1)" d="M336 4v160h160V4H336zm104 16h40v52.904l-17.176-5.728-13.336 8.896-49.304-16.44L352 73.392V20h88zm-88 128V90.04l47.824-13.664 32.8 10.928-21.056 14.04 8.872 13.312 44.744-29.832L480 89.768V148H352z" coriginal="rgb(51, 51, 51, 1)" colortype="1" awdzp="1" style="fill: rgb(51, 51, 51);" colorover="rgba(51, 51, 51, 1)" attrfill="block"></path><path fill="rgba(51, 51, 51, 1)" d="M416 44c0 13.232 10.768 24 24 24s24-10.768 24-24-10.768-24-24-24-24 10.768-24 24zm24-8c4.416 0 8 3.584 8 8s-3.584 8-8 8-8-3.584-8-8 3.584-8 8-8zM472 348h8v-48h-8v-32h-16v-32H320v48h16v32h8v16h-8v32H192v-24h80c13.232 0 24-10.768 24-24v-24H0v24c0 13.232 10.768 24 24 24h80v24H0v48h24v80h16v-80h16v80h16v-80h352v80h16v-80h16v80h16v-80h24v-48h-24v-16zm-136-96h104v16H336v-16zm120 32v16H352v-16h104zm-96 32h104v16H360v-16zm-8 32h104v16H352v-16zM24 324c-4.416 0-8-3.584-8-8v-8h264v8c0 4.416-3.584 8-8 8H24zm96 16h56v24h-56v-24zm360 40v16H16v-16h464zM80 132c35.288 0 64-28.712 64-64S115.288 4 80 4 16 32.712 16 68s28.712 64 64 64zm0-112c26.472 0 48 21.528 48 48s-21.528 48-48 48-48-21.528-48-48 21.528-48 48-48z" colortype="1" coriginal="rgb(51, 51, 51, 1)" awdzp="1" style="fill: rgb(51, 51, 51);" colorover="rgba(51, 51, 51, 1)" attrfill="block"></path><path fill="rgba(51, 51, 51, 1)" d="M108.44 77.344L88 63.72V36H72v36.28l27.56 18.376z" colortype="1" coriginal="rgb(51, 51, 51, 1)" awdzp="1" style="fill: rgb(51, 51, 51);" colorover="rgba(51, 51, 51, 1)" attrfill="block"></path></g><path fill="rgb(224, 81, 19)" d="M296 308H0V164c0-13.232 10.768-24 24-24h248c13.232 0 24 10.768 24 24v144z" coriginal="rgb(249, 186, 72, 1)" colortype="0" awdzp="0" style="fill: rgb(224, 81, 19);" colorover="rgba(249, 186, 72, 1)"></path></svg>