<svg xmlns="http://www.w3.org/2000/svg" id="svgid14" width="512" height="512" x="0" y="0" xmlns:xlink="http://www.w3.org/1999/xlink" version="1.1" viewBox="0 0 64 64" xml:space="preserve" repair="1"><g><g><path fill="rgb(224, 81, 19)" d="M31 6v8h-6v8h14V6z" coriginal="rgb(240, 188, 94, 1)" colortype="0" awdzp="0" colorover="rgb(240, 188, 94, 1)" style="fill: rgb(224, 81, 19);"></path></g><g><path fill="rgb(224, 81, 19)" d="M34.72 55h-5.44l-.818-2.456-2.315 1.158-3.848-3.848 1.157-2.315L21 46.72v-5.44l2.456-.818-1.158-2.315 3.848-3.848 2.315 1.157.82-2.457h5.44l.818 2.456 2.315-1.158 3.848 3.848-1.157 2.315 2.457.82v5.44l-2.456.818 1.158 2.315-3.848 3.848-2.315-1.157L34.72 55z" coriginal="rgb(240, 188, 94, 1)" colortype="0" awdzp="0" colorover="rgb(240, 188, 94, 1)" style="fill: rgb(224, 81, 19);"></path></g><g><path fill="rgb(224, 81, 19)" d="M63 33H49v-8h14v8z" coriginal="rgb(240, 188, 94, 1)" colortype="0" awdzp="0" colorover="rgb(240, 188, 94, 1)" style="fill: rgb(224, 81, 19);"></path></g><g><path fill="rgb(224, 81, 19)" d="M15 33H1v-8h14v8z" coriginal="rgb(240, 188, 94, 1)" colortype="0" awdzp="0" colorover="rgb(240, 188, 94, 1)" style="fill: rgb(224, 81, 19);"></path></g><g><path d="M31 27v6h2v-6h10V15h12v5.586l-2.293-2.293-1.414 1.414L56 24.414l4.707-4.707-1.414-1.414L57 20.586V13H43V1H27.586L21 7.586V13H7v7.586l-2.293-2.293-1.414 1.414L8 24.414l4.707-4.707-1.414-1.414L9 20.586V15h12v12h10zm10-2H23V9h6V3h12v22zM24.414 7L27 4.414V7h-2.586zM32 39c-2.757 0-5 2.243-5 5s2.243 5 5 5 5-2.243 5-5-2.243-5-5-5zm0 8c-1.654 0-3-1.346-3-3s1.346-3 3-3 3 1.346 3 3-1.346 3-3 3z"></path><path d="M31 5h8v2h-8zM31 9h8v2h-8zM25 13h14v2H25zM25 17h14v2H25zM25 21h14v2H25zM57 49.142V33h-2v10H43v2h4v12.184c-1.16.414-2 1.514-2 2.816 0 1.654 1.346 3 3 3s3-1.346 3-3c0-1.302-.84-2.402-2-2.816V45h6v4.142c-1.72.447-3 2-3 3.858 0 2.206 1.794 4 4 4s4-1.794 4-4c0-1.858-1.28-3.41-3-3.858zM48 61c-.552 0-1-.45-1-1s.448-1 1-1 1 .45 1 1-.448 1-1 1zm8-6c-1.103 0-2-.897-2-2s.897-2 2-2 2 .897 2 2-.897 2-2 2zM9 33H7v16.142c-1.72.447-3 2-3 3.858 0 2.206 1.794 4 4 4s4-1.794 4-4c0-1.858-1.28-3.41-3-3.858V45h6v12.184c-1.16.414-2 1.514-2 2.816 0 1.654 1.346 3 3 3s3-1.346 3-3c0-1.302-.84-2.402-2-2.816V45h4v-2H9V33zm7 28c-.552 0-1-.45-1-1s.448-1 1-1 1 .45 1 1-.448 1-1 1zm-6-8c0 1.103-.897 2-2 2s-2-.897-2-2 .897-2 2-2 2 .897 2 2z"></path></g></g></svg>