<svg xmlns="http://www.w3.org/2000/svg" id="svgid18" width="512" height="512" x="0" y="0" xmlns:xlink="http://www.w3.org/1999/xlink" version="1.1" viewBox="0 0 64 64" xml:space="preserve" repair="1"><g><g><path fill="rgb(224, 81, 19)" d="M14 46h20v12H14z" coriginal="rgb(240, 188, 94, 1)" colortype="0" awdzp="0" colorover="rgb(240, 188, 94, 1)" style="fill: rgb(224, 81, 19);"></path></g><g><path fill="rgb(224, 81, 19)" d="M38 46h12v12H38z" coriginal="rgb(240, 188, 94, 1)" colortype="0" awdzp="0" colorover="rgb(240, 188, 94, 1)" style="fill: rgb(224, 81, 19);"></path></g><g><path fill="rgb(224, 81, 19)" d="M2 15h60v24H2z" coriginal="rgb(240, 188, 94, 1)" colortype="0" awdzp="0" colorover="rgb(240, 188, 94, 1)" style="fill: rgb(224, 81, 19);"></path></g><g><path d="M63 1H1v52h8v7c0 1.654 1.346 3 3 3h40c1.654 0 3-1.346 3-3v-7h8V1zm-2 2v6H3V3h58zm-8 57c0 .55-.45 1-1 1H12c-.55 0-1-.45-1-1V44c0-.55.45-1 1-1h13.79c.594 0 1.17-.174 1.663-.504l1.992-1.328c.165-.11.357-.168.555-.168h22c.55 0 1 .45 1 1v18zm2-9v-9c0-1.654-1.346-3-3-3H30c-.594 0-1.17.174-1.664.504l-1.993 1.328c-.164.11-.356.168-.554.168H12c-1.654 0-3 1.346-3 3v7H3V11h58v40h-6z"></path><path d="M5 5h2v2H5zM9 5h2v2H9zM13 5h2v2h-2zM13 59h22V45H13v14zm2-4h2v2h-2v-2zm14-2h-2v-2h2v2zm2-2h2v2h-2v-2zm-8 2v-2h2v2h-2zm6 2v2H19v-2h10zm-2-6v-2h2v2h-2zm-2 0h-2v-2h2v2zm-4 0h-2v-2h2v2zm0 2v2h-2v-2h2zm-4 2h-2v-2h2v2zm14 4v-2h2v2h-2zm2-8h-2v-2h2v2zm-16-2v2h-2v-2h2zM37 59h14V45H37v14zm2-4h2v2h-2v-2zm6-4v2h-2v-2h2zm-2-2v-2h2v2h-2zm4 2h2v2h-2v-2zm-2 4v2h-2v-2h2zm-4-2h-2v-2h2v2zm6 4v-2h2v2h-2zm2-8h-2v-2h2v2zm-8-2v2h-2v-2h2zM37.375 19.196l9.024 7.22-9.025 7.218 1.25 1.562 10.976-8.78-10.975-8.782zM25.375 17.634L14.4 26.414l10.975 8.782 1.25-1.562-9.024-7.22 9.025-7.218zM27.513 36.51l7.08-20.83 1.894.643-7.08 20.83z"></path></g></g></svg>