<svg xmlns="http://www.w3.org/2000/svg" id="svgid13" width="512" height="512" x="0" y="0" xmlns:xlink="http://www.w3.org/1999/xlink" version="1.1" viewBox="0 0 64 64" xml:space="preserve" repair="1"><g><g><path fill="rgb(224, 81, 19)" d="M18 36V24h-7v17h36v-5z" coriginal="rgb(240, 188, 94, 1)" colortype="0" awdzp="0" colorover="rgb(240, 188, 94, 1)" style="fill: rgb(224, 81, 19);"></path></g><g><g><path fill="rgb(224, 81, 19)" d="M23 21H11v-8h12v8z" coriginal="rgb(240, 188, 94, 1)" colortype="0" awdzp="0" colorover="rgb(240, 188, 94, 1)" style="fill: rgb(224, 81, 19);"></path></g></g><g><g><path fill="rgb(224, 81, 19)" d="M38 21H26v-8h12v8z" coriginal="rgb(240, 188, 94, 1)" colortype="0" awdzp="0" colorover="rgb(240, 188, 94, 1)" style="fill: rgb(224, 81, 19);"></path></g></g><g><path d="M58 17h-7V1H7v16H6c-2.757 0-5 2.243-5 5v30c0 2.757 2.243 5 5 5h13v4h-4v2h34v-2h-4v-4h13c2.757 0 5-2.243 5-5V22c0-2.757-2.243-5-5-5zm-9 8h2v6h-2v-6zm-2 2H29v-2h18v2zm-20 3.557l-5.713-2.142C21.115 28.35 21 28.185 21 28s.115-.35.288-.415L27 25.443v5.114zM29 29h18v2H29v-2zm24-4h1c1.654 0 3 1.346 3 3s-1.346 3-3 3h-1v-6zm-25.182-2l-7.232 2.712C19.638 26.067 19 26.987 19 28s.638 1.933 1.585 2.288L27.818 33H49v10H9V11h40v12H27.818zM49 3v6H9V3h40zM6 19h1v26h44V33h3c2.757 0 5-2.243 5-5s-2.243-5-5-5h-3v-4h7c1.654 0 3 1.346 3 3v27H3V22c0-1.654 1.346-3 3-3zm37 42H21v-4h22v4zm15-6H6c-1.654 0-3-1.346-3-3v-1h58v1c0 1.654-1.346 3-3 3z"></path><path d="M11 5h2v2h-2zM15 5h2v2h-2zM19 5h2v2h-2zM11 23h7v2h-7zM11 27h6v2h-6zM11 31h7v2h-7zM11 35h36v2H11zM45 39h2v2h-2zM11 39h32v2H11z"></path></g></g></svg>