<svg xmlns="http://www.w3.org/2000/svg" id="svgid12" x="0" y="0" version="1.1" xmlns:xlink="http://www.w3.org/1999/xlink" viewBox="0 0 290.606 290.606" xml:space="preserve" repair="1"><g><g><circle cx="150" cy="196.875" r="65.625" fill="rgb(224, 81, 19)" coriginal="rgb(249, 186, 72, 1)" colortype="0" awdzp="0" colorover="rgb(178, 219, 191)" style="fill: rgb(224, 81, 19);"></circle><path fill="rgb(51, 51, 51, 1)" d="M287.165 127.078c-2.46-2.836-5.878-4.547-9.628-4.814l-8.648-.614L163.832 16.59C162.745 7.28 154.898 0 145.303 0c-9.534 0-17.34 7.177-18.51 16.397L25.05 103.687l.01-.562h-.006c-7.758 0-14.475 5.873-15.028 13.603L.038 257.288c-.267 3.745.942 7.52 3.403 10.355s5.88 4.622 9.624 4.884L265.55 290.55c.343.023.685.056 1.023.056 3.38 0 6.61-1.19 9.188-3.427 2.837-2.462 4.548-5.874 4.815-9.62l9.994-140.27c.266-3.748-.944-7.37-3.405-10.212zM145.303 9.375c5.17 0 9.375 4.205 9.375 9.375s-4.205 9.375-9.375 9.375-9.375-4.205-9.375-9.375 4.205-9.375 9.375-9.375zm-16.655 17.808c3.098 6.094 9.36 10.317 16.655 10.317 7.083 0 13.19-3.994 16.378-9.806l92.94 92.94-216.328-15.41 90.356-78.04zm142.575 249.712c-.09 1.247-.656 2.386-1.603 3.206-.942.82-2.16 1.22-3.403 1.135L13.73 263.25c-1.247-.09-2.386-.656-3.206-1.603s-1.223-2.152-1.134-3.403l9.99-140.27c.177-2.465 2.24-4.354 4.672-4.354.113 0 .22 0 .333.01l252.482 17.985c1.252.09 2.39.66 3.21 1.603.82.947 1.224 2.156 1.135 3.403l-9.99 140.275z" coriginal="rgb(51, 51, 51, 1)" colortype="1" awdzp="1" colorover="rgb(51, 51, 51, 1)" style="fill: rgb(51, 51, 51);" attrfill="block"></path><path fill="rgb(51, 51, 51, 1)" d="M27.73 132.666l.668-9.352 224.45 15.998-.665 9.352zM261.53 149.32l.667-9.352 9.352.666-.668 9.352zM19.072 254.238l.666-9.352 224.452 16-.667 9.35zM252.85 270.87l.666-9.352 9.352.665-.666 9.352zM66.67 234.075c10.95 0 20.236-8.498 21.028-19.598l2.995-42.08c.398-5.62-1.41-11.063-5.1-15.32-3.69-4.255-8.817-6.82-14.437-7.222-5.61-.398-11.062 1.41-15.32 5.1-4.255 3.694-6.82 8.817-7.222 14.438l-3 42.084c-.398 5.62 1.41 11.058 5.105 15.32s8.816 6.82 14.44 7.222c.503.036 1.01.055 1.51.055zm-11.704-21.928l3-42.084c.22-3.122 1.645-5.967 4.012-8.02 2.147-1.86 4.837-2.864 7.655-2.864.286 0 .567.008.853.027 3.122.22 5.967 1.645 8.02 4.012 2.053 2.362 3.056 5.385 2.83 8.507l-2.994 42.08c-.464 6.445-6.08 11.334-12.52 10.856-3.122-.22-5.972-1.645-8.02-4.012-2.05-2.358-3.057-5.38-2.836-8.503zM110.227 162.038l9.356.67c7.73.548 13.575 7.29 13.027 15.023s-7.33 13.614-15.028 13.028l-9.352-.666-.67 9.352 9.352.666c12.853.844 24.127-8.822 25.045-21.713.914-12.89-8.822-24.122-21.712-25.04l-18.703-1.332-5.995 84.16 9.352.67 2.66-37.407 2.667-37.41zM189.712 167.705l.67-9.352-37.405-2.667-5.996 84.16 37.403 2.666.67-9.35-28.055-1.998 1.997-28.055 28.055 1.996.666-9.35-28.055-1.998 1.998-28.055zM231.81 236.494l-.796-.06-8.7-75.807-17.906-1.275-5.996 84.16 9.352.67 5.325-74.813.796.055 8.7 75.806 17.906 1.276 5.995-84.16-9.35-.665z" colortype="1" coriginal="rgb(51, 51, 51, 1)" awdzp="1" colorover="rgb(51, 51, 51, 1)" style="fill: rgb(51, 51, 51);" attrfill="block"></path></g></g></svg>