<svg xmlns="http://www.w3.org/2000/svg" id="svgid19" x="0" y="0" xmlns:xlink="http://www.w3.org/1999/xlink" version="1.1" viewBox="0 0 496 496" xml:space="preserve" repair="1"><path fill="rgba(51, 51, 51, 1)" d="M496 120c0-39.704-32.296-72-72-72H208c-25.616 0-49.512 13.792-62.36 35.992l13.84 8.016C169.488 74.736 188.072 64 208 64c30.872 0 56 25.128 56 56v136H152v-24h-16v40h152v176h64V272h144V120zM336 432h-32V272h32v160zm144-176H280V120c0-22.608-10.496-42.792-26.84-56H424c30.872 0 56 25.128 56 56v136z" coriginal="rgb(51, 51, 51, 1)" colortype="1" awdzp="1" style="fill: rgb(51, 51, 51);" colorover="rgba(51, 51, 51, 1)" attrfill="block"></path><path fill="rgb(224, 81, 19)" d="M0 80h240v160H0z" coriginal="rgb(249, 186, 72, 1)" colortype="0" awdzp="0" style="fill: rgb(224, 81, 19);" colorover="rgba(249, 186, 72, 1)"></path><path fill="rgba(51, 51, 51, 1)" d="M143.968 155.28l66.376 66.376 11.312-11.312-63.4-63.4 61.776-36.032-8.064-13.824L120 150.744 28.032 97.088l-8.064 13.824 61.776 36.032-63.4 63.4 11.312 11.312 66.376-66.376L120 169.256z" colortype="1" coriginal="rgb(51, 51, 51, 1)" awdzp="1" style="fill: rgb(51, 51, 51);" colorover="rgba(51, 51, 51, 1)" attrfill="block"></path></svg>