<svg xmlns="http://www.w3.org/2000/svg" id="svgid5" x="0" y="0" xmlns:xlink="http://www.w3.org/1999/xlink" version="1.1" viewBox="0 0 496 496" xml:space="preserve" repair="1"><g><path fill="rgb(224, 81, 19)" d="M80 392h96v72H80zM368 392h96v72h-96zM80 72h96v72H80zM368 72h96v72h-96z" coriginal="rgb(249, 186, 72, 1)" colortype="0" awdzp="0" style="fill: rgb(224, 81, 19);" colorover="rgba(249, 186, 72, 1)"></path></g><g><path fill="rgba(51, 51, 51, 1)" d="M160 320H0v144c0 17.648 14.352 32 32 32h144c17.648 0 32-14.352 32-32V352h-48v-32zM48 464c0 8.824-7.176 16-16 16s-16-7.176-16-16V336h128v16H48v112zm144-96v96c0 8.824-7.176 16-16 16H59.704C62.44 475.288 64 469.824 64 464v-96h128z" coriginal="rgb(51, 51, 51, 1)" colortype="1" awdzp="1" style="fill: rgb(51, 51, 51);" colorover="rgba(51, 51, 51, 1)" attrfill="block"></path><path fill="rgba(51, 51, 51, 1)" d="M80 384h96v16H80zM80 416h96v16H80zM80 448h64v16H80zM160 448h16v16h-16zM56 304v-89.048l11.56 7.704 8.88-13.312L48 190.384l-28.44 18.96 8.88 13.312L40 214.952V304zM456 304v-89.048l11.56 7.704 8.88-13.312-28.44-18.96-28.44 18.96 8.88 13.312 11.56-7.704V304zM282.536 178.152L244 214.12l-38.536-35.968-10.928 11.696 37.736 35.216-60.624 56.584-4.064-12.176-15.168 5.056 9.256 27.8 27.8 9.256 5.056-15.168-11.224-3.752L244 236.016l60.696 56.648-11.224 3.752 5.056 15.168 27.8-9.256 9.256-27.8-15.168-5.056-4.064 12.176-60.624-56.584 37.736-35.216zM32 176h144c17.648 0 32-14.352 32-32V32h-48V0H0v144c0 17.648 14.352 32 32 32zM192 48v96c0 8.824-7.176 16-16 16H59.704C62.44 155.288 64 149.824 64 144V48h128zM16 16h128v16H48v112c0 8.824-7.176 16-16 16s-16-7.176-16-16V16z" colortype="1" coriginal="rgb(51, 51, 51, 1)" awdzp="1" style="fill: rgb(51, 51, 51);" colorover="rgba(51, 51, 51, 1)" attrfill="block"></path><path fill="rgba(51, 51, 51, 1)" d="M80 64h96v16H80zM80 96h96v16H80zM80 128h64v16H80zM160 128h16v16h-16zM448 32V0H288v144c0 17.648 14.352 32 32 32h144c17.648 0 32-14.352 32-32V32h-48zM336 144c0 8.824-7.176 16-16 16s-16-7.176-16-16V16h128v16h-96v112zm144 0c0 8.824-7.176 16-16 16H347.704c2.736-4.712 4.296-10.176 4.296-16V48h128v96z" colortype="1" coriginal="rgb(51, 51, 51, 1)" awdzp="1" style="fill: rgb(51, 51, 51);" colorover="rgba(51, 51, 51, 1)" attrfill="block"></path><path fill="rgba(51, 51, 51, 1)" d="M368 64h96v16h-96zM368 96h96v16h-96zM368 128h64v16h-64zM448 128h16v16h-16zM448 320H288v144c0 17.648 14.352 32 32 32h144c17.648 0 32-14.352 32-32V352h-48v-32zM336 464c0 8.824-7.176 16-16 16s-16-7.176-16-16V336h128v16h-96v112zm144-96v96c0 8.824-7.176 16-16 16H347.704c2.736-4.712 4.296-10.176 4.296-16v-96h128z" colortype="1" coriginal="rgb(51, 51, 51, 1)" awdzp="1" style="fill: rgb(51, 51, 51);" colorover="rgba(51, 51, 51, 1)" attrfill="block"></path><path fill="rgba(51, 51, 51, 1)" d="M368 384h96v16h-96zM368 416h96v16h-96zM368 448h64v16h-64zM448 448h16v16h-16z" colortype="1" coriginal="rgb(51, 51, 51, 1)" awdzp="1" style="fill: rgb(51, 51, 51);" colorover="rgba(51, 51, 51, 1)" attrfill="block"></path></g></svg>