<svg xmlns="http://www.w3.org/2000/svg" id="svgid3" x="0" y="0" xmlns:xlink="http://www.w3.org/1999/xlink" version="1.1" viewBox="0 0 495.848 495.848" xml:space="preserve" repair="1"><path fill="rgb(224, 81, 19)" d="M146.028 0c-39.704 0-72 32.296-72 72 0 23.992 12.152 46.496 32 59.8V160h80v-28.2c19.848-13.304 32-35.808 32-59.8 0-39.704-32.296-72-72-72zm0 87.992c-8.84 0-16-7.16-16-16s7.16-16 16-16 16 7.16 16 16-7.16 16-16 16z" coriginal="rgb(249, 186, 72, 1)" colortype="0" awdzp="0" colorover="rgb(249, 186, 72, 1)" style="fill: rgb(224, 81, 19);"></path><g><path fill="rgb(51, 51, 51, 1)" d="M466.028 0l-46.504 34.88L372.756 144h-37.608l-14.768-32h9.648c17.648 0 32-14.352 32-32V48h16V0h-48v48h16v32c0 8.824-7.176 16-16 16h-17.032l-20.448-44.312 24.496-12.24-80.208-34.384-23.496 82.224 24.84-12.424 9.704 21.352c-16.632 1.12-29.856 14.864-29.856 31.784v16h-64V94.528c9.288-3.312 16-12.112 16-22.528 0-13.232-10.768-24-24-24s-24 10.768-24 24c0 10.416 6.712 19.216 16 22.528V144H86.652l-1.248 6.488c-3.888 20.168-4.248 40.856-1.072 61.528L29.82 309.272l60.336 13.76v100.816h80v72h192v-111.48c55.152-39.616 87.92-103.312 87.872-171.264l-.016-29.184c0-11-1.032-22.224-3.08-33.368l-1.2-6.552h-15.704l36-86.4V0zm-120 16h16v16h-16V16zm-200 48c4.416 0 8 3.584 8 8s-3.584 8-8 8-8-3.584-8-8 3.584-8 8-8zm304-20.952l-8.848-4.424L450.028 32v11.048zM317.524 144H287.18l-14.544-32h30.12l14.768 32zm-78.808-87.296l8.504-29.784 31.8 13.624-7.504 3.76 23.856 51.688h-30.008l-19.496-42.864-7.152 3.576zM234.028 128c0-8.824 7.176-16 16-16h5.032l14.544 32h-35.576v-16zm199.984 55.928l.016 29.192c.048 64.088-31.512 124.088-84.416 160.504l-3.464 2.384v103.84h-160v-72h-80v-97.584l-51.912-11.832 46.8-83.496-.472-2.784c-2.968-17.504-3.16-35.016-.568-52.16h332.272c1.16 8.024 1.744 16.04 1.744 23.936zM390.156 144l39.88-93.048 17.736 8.864L412.7 144h-22.544z" coriginal="rgb(51, 51, 51, 1)" colortype="1" awdzp="1" colorover="rgb(51, 51, 51, 1)" style="fill: rgb(51, 51, 51);" attrfill="block"></path><path fill="rgb(51, 51, 51, 1)" d="M162.028 224c22.056 0 40-17.944 40-40h-16c0 13.232-10.768 24-24 24s-24-10.768-24-24h-16c0 22.048 17.944 40 40 40z" colortype="1" coriginal="rgb(51, 51, 51, 1)" awdzp="1" colorover="rgb(51, 51, 51, 1)" style="fill: rgb(51, 51, 51);" attrfill="block"></path></g></svg>