<svg xmlns="http://www.w3.org/2000/svg" id="svgid7" x="0" y="0" xmlns:xlink="http://www.w3.org/1999/xlink" version="1.1" viewBox="0 0 490.536 490.536" xml:space="preserve" repair="1"><path fill="rgb(224, 81, 19)" d="M53.268 56v240h384V56h-384zm152 32h80v72h-80V88zm-112 0h80v72h-80V88zm136 176h-136v-72h136v72zm168 0h-136v-72h136v72zm0-104h-80V88h80v72z" coriginal="rgb(249, 186, 72, 1)" colortype="0" awdzp="0" colorover="rgb(249, 186, 72, 1)" style="fill: rgb(224, 81, 19);"></path><g><path fill="rgb(51, 51, 51, 1)" d="M293.268 24V0h-96v24h-168v40h432V24h-168zm-80-8h64v8h-64v-8zm232 32h-400v-8h400v8zM29.268 328h124.904l-52.488 157.472 15.168 5.064L171.028 328h66.24v160h16V328h66.24l54.176 162.528 15.168-5.064L336.364 328h124.904v-40h-432v40zm16-24h400v8h-400v-8zM85.268 272h152v-88h-152v88zm16-72h120v56h-120v-56zM253.268 272h152v-88h-152v88zm16-72h120v56h-120v-56zM85.268 80v88h96V80h-96zm80 72h-64V96h64v56zM197.268 168h96V80h-96v88zm16-72h64v56h-64V96zM405.268 80h-96v88h96V80zm-16 72h-64V96h64v56z" coriginal="rgb(51, 51, 51, 1)" colortype="1" awdzp="1" colorover="rgb(51, 51, 51, 1)" style="fill: rgb(51, 51, 51);" attrfill="block"></path></g></svg>