<svg xmlns="http://www.w3.org/2000/svg" id="svgid4" x="0" y="0" version="1.1" xmlns:xlink="http://www.w3.org/1999/xlink" viewBox="0 0 290.624 290.624" xml:space="preserve" repair="1"><g><g><circle cx="173.437" cy="124.217" r="37.5" fill="rgb(224, 81, 19)" coriginal="rgb(249, 186, 72, 1)" colortype="0" awdzp="0" colorover="rgb(178, 219, 191)" style="fill: rgb(224, 81, 19);"></circle><path fill="rgb(51, 51, 51, 1)" d="M145.312 208.593c-10.34 0-18.75 8.41-18.75 18.75s8.41 18.75 18.75 18.75 18.75-8.41 18.75-18.75-8.41-18.75-18.75-18.75zm0 28.125c-5.17 0-9.375-4.205-9.375-9.375s4.205-9.375 9.375-9.375 9.375 4.205 9.375 9.375-4.204 9.375-9.375 9.375z" coriginal="rgb(51, 51, 51, 1)" colortype="1" awdzp="1" colorover="rgb(51, 51, 51, 1)" style="fill: rgb(51, 51, 51);" attrfill="block"></path><path fill="rgb(51, 51, 51, 1)" d="M283.903 164.657c-4.205-2.916-9.586-3.577-14.386-1.79l-.54.2-50.704-124.462L90.39 84.28 64.063 21.093H14.062C6.31 21.093 0 27.403 0 35.155s6.31 14.063 14.062 14.063h29.72l66.28 155.006c-4.373 6.647-6.937 14.583-6.937 23.12 0 23.263 18.928 42.187 42.187 42.187S187.5 250.61 187.5 227.344c0-.464-.057-.92-.07-1.378l92.91-33.783c6.15-2.24 10.284-8.138 10.284-14.686 0-5.124-2.512-9.92-6.72-12.84zM157.373 70.31l14.494 32.612-14.728 5.892L142.4 75.66l14.97-5.35zm-23.826 8.51l18.69 42.05 32.146-12.857-18.16-40.86 46.754-16.698L260.2 166.363 175.63 198.08c-7.678-7.956-18.422-12.924-30.32-12.924-4.222 0-8.29.642-12.14 1.8L93.998 92.942l39.55-14.123zM14.062 39.842c-2.583 0-4.687-2.1-4.687-4.688s2.105-4.688 4.687-4.688H57.81l66.745 160.19c-2.784 1.58-5.353 3.48-7.697 5.626l-66.89-156.44H14.063zm131.25 220.312c-18.094 0-32.812-14.723-32.812-32.813s14.72-32.813 32.812-32.813 32.812 14.722 32.812 32.812-14.718 32.813-32.812 32.813zM277.14 183.37l-91.102 33.126c-1.008-3.778-2.522-7.345-4.477-10.63l91.248-34.22c1.95-.736 4.04-.473 5.756.713 1.706 1.185 2.686 3.06 2.686 5.136 0 2.62-1.655 4.978-4.11 5.873z" colortype="1" coriginal="rgb(51, 51, 51, 1)" awdzp="1" colorover="rgb(51, 51, 51, 1)" style="fill: rgb(51, 51, 51);" attrfill="block"></path></g></g></svg>