<svg xmlns="http://www.w3.org/2000/svg" id="svgid1" x="0" y="0" version="1.1" xmlns:xlink="http://www.w3.org/1999/xlink" viewBox="0 0 290.625 290.625" xml:space="preserve" repair="1"><g><g><path fill="rgb(51, 51, 51, 1)" d="M46.875 135.938h9.375v9.375h-9.375zM65.625 135.938H75v9.375h-9.375zM206.25 135.938h9.375v9.375h-9.375zM225 135.938h9.375v9.375H225z" coriginal="rgb(51, 51, 51, 1)" colortype="1" awdzp="1" colorover="rgb(51, 51, 51, 1)" style="fill: rgb(51, 51, 51);" attrfill="block"></path><path fill="rgb(51, 51, 51, 1)" d="M0 0v164.063h103.125v-9.375H9.375V9.375H281.25v145.313H187.5v9.375h103.125V0z" colortype="1" coriginal="rgb(51, 51, 51, 1)" awdzp="1" colorover="rgb(51, 51, 51, 1)" style="fill: rgb(51, 51, 51);" attrfill="block"></path><path fill="rgb(51, 51, 51, 1)" d="M18.75 145.313H37.5V18.75H18.75zM271.875 18.75h-18.75v126.563h18.75zM46.875 18.75h9.375v107.813h-9.375zM65.625 18.75H75v107.813h-9.375zM84.375 18.75h9.375V75h-9.375zM103.125 18.75h9.375v37.5h-9.375zM121.875 18.75v28.125h9.375v-4.687h9.375V18.75h-9.375zM150 18.75h9.375v23.438H150zM168.75 18.75h9.375v28.125h-9.375zM187.5 18.75h9.375v42.188H187.5zM206.25 18.75h9.375v107.813h-9.375zM243.75 18.75H225v107.813h18.75zM234.375 135.938h9.375v9.375h-9.375zM159.375 187.5v-18.75H131.25v18.75h-4.688v84.375c0 10.34 8.41 18.75 18.75 18.75s18.75-8.41 18.75-18.75V187.5h-4.687zm-18.75-9.375H150v9.375h-9.375v-9.375zm14.062 93.75c0 5.17-4.205 9.375-9.375 9.375s-9.375-4.205-9.375-9.375v-75h18.75v75z" colortype="1" coriginal="rgb(51, 51, 51, 1)" awdzp="1" colorover="rgb(51, 51, 51, 1)" style="fill: rgb(51, 51, 51);" attrfill="block"></path><path fill="rgb(224, 81, 19)" d="M145.313 37.5C106.543 37.5 75 69.042 75 107.813s31.542 70.313 70.312 70.313 70.312-31.542 70.312-70.313-31.54-70.313-70.31-70.313zm0 117.188c-25.89 0-46.875-20.986-46.875-46.875s20.986-46.875 46.875-46.875 46.875 20.986 46.875 46.875-20.986 46.875-46.875 46.875z" coriginal="rgb(249, 186, 72, 1)" colortype="0" awdzp="0" colorover="rgb(178, 219, 191)" style="fill: rgb(224, 81, 19);"></path><path fill="rgb(51, 51, 51, 1)" d="M145.313 159.375c-28.43 0-51.562-23.133-51.562-51.563s23.134-51.563 51.563-51.563 51.562 23.132 51.562 51.562-23.133 51.563-51.562 51.563zm0-93.75c-23.264 0-42.187 18.928-42.187 42.188S122.048 150 145.313 150s42.187-18.928 42.187-42.188-18.923-42.187-42.187-42.187z" colortype="1" coriginal="rgb(51, 51, 51, 1)" awdzp="1" colorover="rgb(51, 51, 51, 1)" style="fill: rgb(51, 51, 51);" attrfill="block"></path></g></g></svg>