<svg xmlns="http://www.w3.org/2000/svg" id="svgid18" x="0" y="0" xmlns:xlink="http://www.w3.org/1999/xlink" version="1.1" viewBox="0 0 496 496" xml:space="preserve" repair="1"><g><path fill="rgb(51, 51, 51, 1)" d="M232 140h256v16H232zM344 4h-64v128h64V4zm-16 16v48h-32V20h32zm-32 96V84h32v32h-32z" coriginal="rgb(51, 51, 51, 1)" colortype="1" awdzp="1" colorover="rgb(51, 51, 51, 1)" style="fill: rgb(51, 51, 51);" attrfill="block"></path><circle cx="312" cy="100" r="8" fill="rgb(51, 51, 51, 1)" colortype="1" coriginal="rgb(51, 51, 51, 1)" awdzp="1" colorover="rgb(51, 51, 51, 1)" style="fill: rgb(51, 51, 51);" attrfill="block"></circle><path fill="rgb(51, 51, 51, 1)" d="M416 4h-64v128h64V4zm-16 16v48h-32V20h32zm-32 96V84h32v32h-32z" colortype="1" coriginal="rgb(51, 51, 51, 1)" awdzp="1" colorover="rgb(51, 51, 51, 1)" style="fill: rgb(51, 51, 51);" attrfill="block"></path><circle cx="384" cy="100" r="8" fill="rgb(51, 51, 51, 1)" colortype="1" coriginal="rgb(51, 51, 51, 1)" awdzp="1" colorover="rgb(51, 51, 51, 1)" style="fill: rgb(51, 51, 51);" attrfill="block"></circle><path fill="rgb(51, 51, 51, 1)" d="M488 4h-64v128h64V4zm-16 16v48h-32V20h32zm-32 96V84h32v32h-32z" colortype="1" coriginal="rgb(51, 51, 51, 1)" awdzp="1" colorover="rgb(51, 51, 51, 1)" style="fill: rgb(51, 51, 51);" attrfill="block"></path><circle cx="456" cy="100" r="8" fill="rgb(51, 51, 51, 1)" colortype="1" coriginal="rgb(51, 51, 51, 1)" awdzp="1" colorover="rgb(51, 51, 51, 1)" style="fill: rgb(51, 51, 51);" attrfill="block"></circle></g><path fill="rgb(224, 81, 19)" d="M496 316H224V196c0-13.232 10.768-24 24-24h224c13.232 0 24 10.768 24 24v120z" coriginal="rgb(249, 186, 72, 1)" colortype="0" awdzp="0" colorover="rgb(249, 186, 72, 1)" style="fill: rgb(224, 81, 19);"></path><path fill="rgb(51, 51, 51, 1)" d="M472 348c13.232 0 24-10.768 24-24v-8h-16v8c0 4.416-3.584 8-8 8H248c-4.416 0-8-3.584-8-8v-8h-16v8c0 13.232 10.768 24 24 24h80v16H191.528v-8c0-13.232-10.768-24-24-24h-27.064l-82.2-133.8C61.864 193.024 64 186.768 64 180c0-1.968-.24-3.88-.584-5.752l33.48-61.384c3.088 15.208 11.552 28.792 24.392 38.392l5.224 3.904 19.76-17.56c4.32 1.568 8.752 2.4 13.256 2.4 22.056 0 40-17.944 40-40 0-2.912-.456-5.824-1.136-8.728l19.8-17.6-3.264-5.648C203.504 48.272 182.28 36 159.528 36c-1.504 0-2.984.12-4.464.224L128.016 9.176 68.568 58.72 79.584 73.4l-52.568 75.104C11.744 150.92 0 164.056 0 180c0 12 6.712 22.344 16.496 27.824L82.664 332H55.528c-13.232 0-24 10.768-24 24v8H0v48h24v80h16v-80h16v80h16v-80h352v80h16v-80h16v80h16v-80h24v-48H392v-16h80zm-128 0h32v16h-32v-16zM161.688 123.904l21.336-18.968c-2.144 10.192-10.768 18.024-21.336 18.968zM159.528 52c14.888 0 28.92 7.024 37.944 18.68l-71.504 63.56c-9.24-9-14.44-21.168-14.44-34.24 0-26.472 21.536-48 48-48zM127.04 30.824l9.52 9.52c-16.096 6.224-29.096 18.72-35.872 34.536l-10.192-13.6 36.544-30.456zM89.688 86.872l1.832 2.448-37.056 67.936c-2.736-2.704-5.96-4.88-9.52-6.464l44.744-63.92zM16 180c0-8.824 7.176-16 16-16s16 7.176 16 16-7.176 16-16 16-16-7.176-16-16zm20.616 31.536c3.304-.48 6.424-1.448 9.32-2.856L121.696 332H100.8L36.616 211.536zM47.528 356c0-4.416 3.584-8 8-8h112c4.416 0 8 3.584 8 8v8h-128v-8zM480 380v16H16v-16h464z" colortype="1" coriginal="rgb(51, 51, 51, 1)" awdzp="1" colorover="rgb(51, 51, 51, 1)" style="fill: rgb(51, 51, 51);" attrfill="block"></path></svg>